<svg width="393" height="852" viewBox="0 0 393 852" fill="none" xmlns="http://www.w3.org/2000/svg">
<g clip-path="url(#clip0_5_65)">
<rect width="393" height="852" fill="white"/>
<rect width="393" height="748" fill="#F0FBF6"/>
<rect width="353" height="56" transform="translate(20 345)" fill="#9A9999"/>
<path d="M25.08 144V131.64H20.08V129.9H32.14V131.64H27.14V144H25.08ZM33.4666 131.98V129.88H35.8266V131.98H33.4666ZM33.6466 144V134.24H35.6666V144H33.6466ZM38.5098 147.6V134.24H40.4898V136.44H40.2698C40.4832 135.72 40.9032 135.147 41.5298 134.72C42.1565 134.28 42.8965 134.06 43.7498 134.06C44.6165 134.06 45.3698 134.267 46.0098 134.68C46.6632 135.093 47.1632 135.673 47.5098 136.42C47.8698 137.167 48.0498 138.067 48.0498 139.12C48.0498 140.147 47.8698 141.047 47.5098 141.82C47.1632 142.58 46.6698 143.167 46.0298 143.58C45.3898 143.98 44.6298 144.18 43.7498 144.18C42.9098 144.18 42.1765 143.967 41.5498 143.54C40.9232 143.113 40.5032 142.547 40.2898 141.84H40.5298V147.6H38.5098ZM43.2498 142.62C44.0898 142.62 44.7565 142.32 45.2498 141.72C45.7565 141.12 46.0098 140.253 46.0098 139.12C46.0098 137.973 45.7565 137.107 45.2498 136.52C44.7565 135.933 44.0898 135.64 43.2498 135.64C42.4232 135.64 41.7565 135.933 41.2498 136.52C40.7432 137.107 40.4898 137.973 40.4898 139.12C40.4898 140.253 40.7432 141.12 41.2498 141.72C41.7565 142.32 42.4232 142.62 43.2498 142.62ZM59.8202 144.18C58.8335 144.18 57.9802 143.973 57.2602 143.56C56.5535 143.147 56.0002 142.56 55.6002 141.8C55.2002 141.04 55.0002 140.147 55.0002 139.12C55.0002 138.08 55.2002 137.187 55.6002 136.44C56.0002 135.68 56.5535 135.093 57.2602 134.68C57.9802 134.267 58.8335 134.06 59.8202 134.06C60.7935 134.06 61.6335 134.267 62.3402 134.68C63.0602 135.093 63.6202 135.68 64.0202 136.44C64.4202 137.2 64.6202 138.093 64.6202 139.12C64.6202 140.147 64.4202 141.04 64.0202 141.8C63.6202 142.56 63.0602 143.147 62.3402 143.56C61.6335 143.973 60.7935 144.18 59.8202 144.18ZM59.8002 142.62C60.6402 142.62 61.3135 142.32 61.8202 141.72C62.3268 141.12 62.5802 140.253 62.5802 139.12C62.5802 137.973 62.3268 137.107 61.8202 136.52C61.3135 135.933 60.6402 135.64 59.8002 135.64C58.9735 135.64 58.3068 135.933 57.8002 136.52C57.2935 137.107 57.0402 137.973 57.0402 139.12C57.0402 140.253 57.2935 141.12 57.8002 141.72C58.3068 142.32 58.9735 142.62 59.8002 142.62ZM67.3711 144V135.8H65.4711V134.24H67.9511L67.3711 134.78V134.06C67.3711 132.727 67.7111 131.72 68.3911 131.04C69.0844 130.347 70.1444 129.96 71.5711 129.88L72.4511 129.82L72.5911 131.34L71.6711 131.4C71.1244 131.427 70.6844 131.533 70.3511 131.72C70.0178 131.907 69.7711 132.173 69.6111 132.52C69.4644 132.853 69.3911 133.273 69.3911 133.78V134.56L69.1111 134.24H72.1311V135.8H69.3911V144H67.3711ZM83.1386 144.18C81.9253 144.18 81.0119 143.867 80.3986 143.24C79.7986 142.613 79.4986 141.707 79.4986 140.52V135.8H77.5986V134.24H79.4986V131.3H81.5186V134.24H84.5386V135.8H81.5186V140.36C81.5186 141.067 81.6653 141.6 81.9586 141.96C82.2653 142.32 82.7586 142.5 83.4386 142.5C83.6386 142.5 83.8386 142.473 84.0386 142.42C84.2519 142.367 84.4586 142.313 84.6586 142.26L84.9786 143.78C84.7786 143.9 84.4986 143.993 84.1386 144.06C83.7919 144.14 83.4586 144.18 83.1386 144.18ZM86.2833 144V129.9H88.3033V136.32H88.0233C88.3166 135.573 88.7766 135.013 89.4033 134.64C90.0299 134.253 90.7499 134.06 91.5633 134.06C92.3366 134.06 92.9766 134.207 93.4833 134.5C94.0033 134.78 94.3899 135.213 94.6433 135.8C94.8966 136.373 95.0233 137.1 95.0233 137.98V144H93.0033V138.1C93.0033 137.54 92.9299 137.087 92.7833 136.74C92.6366 136.38 92.4166 136.113 92.1233 135.94C91.8299 135.767 91.4499 135.68 90.9833 135.68C90.4499 135.68 89.9766 135.793 89.5633 136.02C89.1633 136.247 88.8499 136.573 88.6233 137C88.4099 137.427 88.3033 137.92 88.3033 138.48V144H86.2833ZM102.387 144.18C101.32 144.18 100.4 143.98 99.6267 143.58C98.8667 143.167 98.2734 142.587 97.8467 141.84C97.4334 141.08 97.2267 140.18 97.2267 139.14C97.2267 138.127 97.4334 137.24 97.8467 136.48C98.2601 135.72 98.8267 135.127 99.5467 134.7C100.267 134.273 101.087 134.06 102.007 134.06C102.913 134.06 103.687 134.26 104.327 134.66C104.98 135.047 105.48 135.6 105.827 136.32C106.173 137.04 106.347 137.9 106.347 138.9V139.58H98.8267V138.34H104.987L104.647 138.62C104.647 137.62 104.427 136.847 103.987 136.3C103.547 135.753 102.913 135.48 102.087 135.48C101.46 135.48 100.927 135.627 100.487 135.92C100.06 136.213 99.7334 136.62 99.5067 137.14C99.2801 137.66 99.1667 138.267 99.1667 138.96V139.08C99.1667 139.853 99.2867 140.507 99.5267 141.04C99.7801 141.56 100.147 141.953 100.627 142.22C101.107 142.487 101.7 142.62 102.407 142.62C102.967 142.62 103.513 142.533 104.047 142.36C104.593 142.173 105.107 141.887 105.587 141.5L106.187 142.9C105.747 143.3 105.18 143.613 104.487 143.84C103.793 144.067 103.093 144.18 102.387 144.18ZM117.523 144.18C116.669 144.18 115.916 143.98 115.263 143.58C114.623 143.167 114.123 142.58 113.763 141.82C113.403 141.047 113.223 140.147 113.223 139.12C113.223 138.067 113.403 137.167 113.763 136.42C114.123 135.673 114.623 135.093 115.263 134.68C115.916 134.267 116.669 134.06 117.523 134.06C118.376 134.06 119.109 134.273 119.723 134.7C120.349 135.113 120.769 135.673 120.983 136.38H120.763V129.9H122.783V144H120.803V141.8H121.003C120.789 142.52 120.369 143.1 119.743 143.54C119.129 143.967 118.389 144.18 117.523 144.18ZM118.043 142.62C118.869 142.62 119.536 142.32 120.043 141.72C120.549 141.12 120.803 140.253 120.803 139.12C120.803 137.973 120.549 137.107 120.043 136.52C119.536 135.933 118.869 135.64 118.043 135.64C117.203 135.64 116.529 135.933 116.023 136.52C115.516 137.107 115.263 137.973 115.263 139.12C115.263 140.253 115.516 141.12 116.023 141.72C116.529 142.32 117.203 142.62 118.043 142.62ZM128.739 144.18C128.059 144.18 127.446 144.047 126.899 143.78C126.366 143.513 125.946 143.153 125.639 142.7C125.333 142.247 125.179 141.733 125.179 141.16C125.179 140.44 125.359 139.873 125.719 139.46C126.093 139.033 126.699 138.733 127.539 138.56C128.393 138.373 129.539 138.28 130.979 138.28H131.919V139.52H130.999C130.279 139.52 129.673 139.547 129.179 139.6C128.686 139.653 128.293 139.74 127.999 139.86C127.706 139.967 127.493 140.12 127.359 140.32C127.239 140.52 127.179 140.76 127.179 141.04C127.179 141.547 127.353 141.96 127.699 142.28C128.046 142.587 128.526 142.74 129.139 142.74C129.633 142.74 130.066 142.627 130.439 142.4C130.813 142.16 131.106 141.84 131.319 141.44C131.546 141.04 131.659 140.58 131.659 140.06V137.76C131.659 137 131.499 136.453 131.179 136.12C130.859 135.787 130.333 135.62 129.599 135.62C129.039 135.62 128.479 135.707 127.919 135.88C127.359 136.04 126.786 136.3 126.199 136.66L125.579 135.24C125.926 135 126.326 134.793 126.779 134.62C127.233 134.447 127.706 134.313 128.199 134.22C128.706 134.113 129.193 134.06 129.659 134.06C130.553 134.06 131.286 134.2 131.859 134.48C132.446 134.76 132.879 135.187 133.159 135.76C133.439 136.333 133.579 137.073 133.579 137.98V144H131.679V141.82H131.859C131.753 142.313 131.553 142.74 131.259 143.1C130.979 143.447 130.626 143.713 130.199 143.9C129.773 144.087 129.286 144.18 128.739 144.18ZM137.264 147.6L139.184 143.32V144.18L134.924 134.24H137.084L140.364 142.34H139.804L143.124 134.24H145.204L139.384 147.6H137.264ZM146.414 136.62V134.24H148.794V136.62H146.414ZM146.414 144V141.62H148.794V144H146.414Z" fill="#0D0907"/>
<path d="M20.38 181L26.6 166.9H28L34.22 181H32.52L30.78 176.98L31.58 177.4H22.98L23.8 176.98L22.08 181H20.38ZM27.28 168.82L24.06 176.4L23.58 176.02H30.98L30.54 176.4L27.32 168.82H27.28ZM39.6927 181.18C38.826 181.18 38.066 180.973 37.4127 180.56C36.7727 180.147 36.2727 179.567 35.9127 178.82C35.566 178.06 35.3927 177.167 35.3927 176.14C35.3927 175.1 35.566 174.207 35.9127 173.46C36.2727 172.7 36.7727 172.12 37.4127 171.72C38.066 171.307 38.826 171.1 39.6927 171.1C40.5727 171.1 41.326 171.32 41.9527 171.76C42.5793 172.2 42.9993 172.793 43.2127 173.54H42.9927V166.9H44.6127V181H43.0327V178.68H43.2327C43.0193 179.44 42.5927 180.047 41.9527 180.5C41.326 180.953 40.5727 181.18 39.6927 181.18ZM40.0327 179.88C40.9527 179.88 41.6793 179.56 42.2127 178.92C42.7593 178.267 43.0327 177.34 43.0327 176.14C43.0327 174.927 42.7593 174 42.2127 173.36C41.6793 172.72 40.9527 172.4 40.0327 172.4C39.126 172.4 38.3993 172.72 37.8527 173.36C37.306 174 37.0327 174.927 37.0327 176.14C37.0327 177.34 37.306 178.267 37.8527 178.92C38.3993 179.56 39.126 179.88 40.0327 179.88ZM51.3528 181.18C50.4861 181.18 49.7261 180.973 49.0728 180.56C48.4328 180.147 47.9328 179.567 47.5728 178.82C47.2261 178.06 47.0528 177.167 47.0528 176.14C47.0528 175.1 47.2261 174.207 47.5728 173.46C47.9328 172.7 48.4328 172.12 49.0728 171.72C49.7261 171.307 50.4861 171.1 51.3528 171.1C52.2328 171.1 52.9861 171.32 53.6128 171.76C54.2395 172.2 54.6595 172.793 54.8728 173.54H54.6528V166.9H56.2728V181H54.6928V178.68H54.8928C54.6795 179.44 54.2528 180.047 53.6128 180.5C52.9861 180.953 52.2328 181.18 51.3528 181.18ZM51.6928 179.88C52.6128 179.88 53.3395 179.56 53.8728 178.92C54.4195 178.267 54.6928 177.34 54.6928 176.14C54.6928 174.927 54.4195 174 53.8728 173.36C53.3395 172.72 52.6128 172.4 51.6928 172.4C50.7861 172.4 50.0595 172.72 49.5128 173.36C48.9661 174 48.6928 174.927 48.6928 176.14C48.6928 177.34 48.9661 178.267 49.5128 178.92C50.0595 179.56 50.7861 179.88 51.6928 179.88ZM67.5097 181.18C66.843 181.18 66.243 181.053 65.7097 180.8C65.1897 180.533 64.7764 180.173 64.4697 179.72C64.163 179.267 64.0097 178.76 64.0097 178.2C64.0097 177.48 64.1897 176.913 64.5497 176.5C64.923 176.087 65.5297 175.793 66.3697 175.62C67.223 175.447 68.383 175.36 69.8497 175.36H70.7497V176.42H69.8697C69.0564 176.42 68.3764 176.447 67.8297 176.5C67.283 176.553 66.8497 176.647 66.5297 176.78C66.2097 176.913 65.983 177.087 65.8497 177.3C65.7164 177.513 65.6497 177.78 65.6497 178.1C65.6497 178.647 65.8364 179.093 66.2097 179.44C66.5964 179.787 67.1164 179.96 67.7697 179.96C68.303 179.96 68.7697 179.833 69.1697 179.58C69.583 179.327 69.903 178.98 70.1297 178.54C70.3697 178.1 70.4897 177.593 70.4897 177.02V174.74C70.4897 173.913 70.323 173.32 69.9897 172.96C69.6564 172.587 69.1097 172.4 68.3497 172.4C67.763 172.4 67.1964 172.487 66.6497 172.66C66.103 172.82 65.543 173.087 64.9697 173.46L64.4097 172.28C64.7564 172.04 65.1497 171.833 65.5897 171.66C66.0297 171.473 66.4897 171.333 66.9697 171.24C67.4497 171.147 67.9097 171.1 68.3497 171.1C69.1897 171.1 69.883 171.24 70.4297 171.52C70.9764 171.787 71.383 172.2 71.6497 172.76C71.9164 173.307 72.0497 174.013 72.0497 174.88V181H70.5297V178.74H70.7097C70.603 179.247 70.3964 179.68 70.0897 180.04C69.7964 180.4 69.4297 180.68 68.9897 180.88C68.5497 181.08 68.0564 181.18 67.5097 181.18ZM83.1719 181.18C82.1852 181.18 81.4385 180.887 80.9319 180.3C80.4385 179.713 80.1919 178.873 80.1919 177.78V166.9H81.8119V177.66C81.8119 178.127 81.8719 178.52 81.9919 178.84C82.1252 179.16 82.3185 179.4 82.5719 179.56C82.8252 179.72 83.1385 179.8 83.5119 179.8C83.6719 179.8 83.8252 179.793 83.9719 179.78C84.1319 179.753 84.2785 179.72 84.4119 179.68L84.3719 181.04C84.1585 181.08 83.9519 181.113 83.7519 181.14C83.5652 181.167 83.3719 181.18 83.1719 181.18ZM89.1698 181.18C88.5032 181.18 87.9032 181.053 87.3698 180.8C86.8498 180.533 86.4365 180.173 86.1298 179.72C85.8232 179.267 85.6698 178.76 85.6698 178.2C85.6698 177.48 85.8498 176.913 86.2098 176.5C86.5832 176.087 87.1898 175.793 88.0298 175.62C88.8832 175.447 90.0432 175.36 91.5098 175.36H92.4098V176.42H91.5298C90.7165 176.42 90.0365 176.447 89.4898 176.5C88.9432 176.553 88.5098 176.647 88.1898 176.78C87.8698 176.913 87.6432 177.087 87.5098 177.3C87.3765 177.513 87.3098 177.78 87.3098 178.1C87.3098 178.647 87.4965 179.093 87.8698 179.44C88.2565 179.787 88.7765 179.96 89.4298 179.96C89.9632 179.96 90.4298 179.833 90.8298 179.58C91.2432 179.327 91.5632 178.98 91.7898 178.54C92.0298 178.1 92.1498 177.593 92.1498 177.02V174.74C92.1498 173.913 91.9832 173.32 91.6498 172.96C91.3165 172.587 90.7698 172.4 90.0098 172.4C89.4232 172.4 88.8565 172.487 88.3098 172.66C87.7632 172.82 87.2032 173.087 86.6298 173.46L86.0698 172.28C86.4165 172.04 86.8098 171.833 87.2498 171.66C87.6898 171.473 88.1498 171.333 88.6298 171.24C89.1098 171.147 89.5698 171.1 90.0098 171.1C90.8498 171.1 91.5432 171.24 92.0898 171.52C92.6365 171.787 93.0432 172.2 93.3098 172.76C93.5765 173.307 93.7098 174.013 93.7098 174.88V181H92.1898V178.74H92.3698C92.2632 179.247 92.0565 179.68 91.7498 180.04C91.4565 180.4 91.0898 180.68 90.6498 180.88C90.2098 181.08 89.7165 181.18 89.1698 181.18ZM97.7377 184.6L99.5577 180.5V181.2L95.2977 171.28H97.0577L100.538 179.8H99.9977L103.518 171.28H105.218L99.4377 184.6H97.7377ZM111.134 181.18C110.108 181.18 109.221 180.98 108.474 180.58C107.741 180.167 107.168 179.587 106.754 178.84C106.354 178.093 106.154 177.2 106.154 176.16C106.154 175.147 106.354 174.267 106.754 173.52C107.154 172.76 107.701 172.167 108.394 171.74C109.101 171.313 109.914 171.1 110.834 171.1C111.714 171.1 112.468 171.293 113.094 171.68C113.721 172.067 114.201 172.613 114.534 173.32C114.881 174.027 115.054 174.873 115.054 175.86V176.48H107.394V175.42H113.974L113.654 175.68C113.654 174.613 113.414 173.787 112.934 173.2C112.468 172.6 111.781 172.3 110.874 172.3C110.194 172.3 109.614 172.46 109.134 172.78C108.668 173.087 108.314 173.52 108.074 174.08C107.834 174.627 107.714 175.267 107.714 176V176.12C107.714 176.933 107.841 177.62 108.094 178.18C108.361 178.74 108.754 179.167 109.274 179.46C109.794 179.74 110.414 179.88 111.134 179.88C111.708 179.88 112.261 179.793 112.794 179.62C113.341 179.433 113.854 179.133 114.334 178.72L114.894 179.86C114.454 180.26 113.894 180.58 113.214 180.82C112.534 181.06 111.841 181.18 111.134 181.18ZM117.399 181V171.28H118.979V173.58H118.779C119.006 172.793 119.399 172.2 119.959 171.8C120.519 171.387 121.259 171.147 122.179 171.08L122.759 171.02L122.879 172.42L121.859 172.54C120.952 172.62 120.252 172.913 119.759 173.42C119.279 173.913 119.039 174.593 119.039 175.46V181H117.399ZM133.744 181.18C132.797 181.18 131.977 180.973 131.284 180.56C130.59 180.147 130.05 179.567 129.664 178.82C129.29 178.06 129.104 177.167 129.104 176.14C129.104 175.113 129.29 174.227 129.664 173.48C130.05 172.72 130.59 172.133 131.284 171.72C131.977 171.307 132.797 171.1 133.744 171.1C134.69 171.1 135.51 171.307 136.204 171.72C136.897 172.133 137.43 172.72 137.804 173.48C138.19 174.227 138.384 175.113 138.384 176.14C138.384 177.167 138.19 178.06 137.804 178.82C137.43 179.567 136.897 180.147 136.204 180.56C135.51 180.973 134.69 181.18 133.744 181.18ZM133.744 179.88C134.664 179.88 135.39 179.56 135.924 178.92C136.47 178.267 136.744 177.333 136.744 176.12C136.744 174.92 136.47 174 135.924 173.36C135.39 172.72 134.664 172.4 133.744 172.4C132.837 172.4 132.11 172.72 131.564 173.36C131.017 174 130.744 174.92 130.744 176.12C130.744 177.333 131.017 178.267 131.564 178.92C132.11 179.56 132.837 179.88 133.744 179.88ZM141.239 181V172.54H139.319V171.28H141.679L141.239 171.7V170.94C141.239 169.647 141.559 168.667 142.199 168C142.853 167.333 143.853 166.96 145.199 166.88L145.979 166.84L146.119 168.08L145.199 168.14C144.653 168.18 144.206 168.3 143.859 168.5C143.513 168.7 143.259 168.987 143.099 169.36C142.939 169.733 142.859 170.193 142.859 170.74V171.58L142.619 171.28H145.659V172.54H142.859V181H141.239ZM152.556 181V171.28H154.136V173.44H153.916C154.076 172.947 154.309 172.527 154.616 172.18C154.936 171.82 155.309 171.553 155.736 171.38C156.176 171.193 156.656 171.1 157.176 171.1C158.003 171.1 158.669 171.3 159.176 171.7C159.696 172.087 160.043 172.693 160.216 173.52H159.916C160.156 172.773 160.583 172.187 161.196 171.76C161.823 171.32 162.549 171.1 163.376 171.1C164.109 171.1 164.709 171.24 165.176 171.52C165.656 171.8 166.016 172.227 166.256 172.8C166.496 173.36 166.616 174.073 166.616 174.94V181H164.996V175.02C164.996 174.127 164.843 173.473 164.536 173.06C164.229 172.633 163.709 172.42 162.976 172.42C162.456 172.42 161.996 172.547 161.596 172.8C161.209 173.053 160.909 173.413 160.696 173.88C160.496 174.333 160.396 174.873 160.396 175.5V181H158.776V175.02C158.776 174.127 158.616 173.473 158.296 173.06C157.989 172.633 157.476 172.42 156.756 172.42C156.223 172.42 155.763 172.547 155.376 172.8C154.989 173.053 154.689 173.413 154.476 173.88C154.276 174.333 154.176 174.873 154.176 175.5V181H152.556ZM173.085 181.18C172.298 181.18 171.645 181.04 171.125 180.76C170.618 180.467 170.232 180.033 169.965 179.46C169.712 178.887 169.585 178.173 169.585 177.32V171.28H171.205V177.3C171.205 177.873 171.278 178.353 171.425 178.74C171.585 179.113 171.832 179.393 172.165 179.58C172.498 179.753 172.912 179.84 173.405 179.84C173.965 179.84 174.452 179.713 174.865 179.46C175.278 179.207 175.605 178.853 175.845 178.4C176.085 177.947 176.205 177.413 176.205 176.8V171.28H177.825V181H176.245V178.76H176.505C176.238 179.547 175.798 180.147 175.185 180.56C174.585 180.973 173.885 181.18 173.085 181.18ZM183.836 181.18C182.849 181.18 182.103 180.887 181.596 180.3C181.103 179.713 180.856 178.873 180.856 177.78V166.9H182.476V177.66C182.476 178.127 182.536 178.52 182.656 178.84C182.789 179.16 182.983 179.4 183.236 179.56C183.489 179.72 183.803 179.8 184.176 179.8C184.336 179.8 184.489 179.793 184.636 179.78C184.796 179.753 184.943 179.72 185.076 179.68L185.036 181.04C184.823 181.08 184.616 181.113 184.416 181.14C184.229 181.167 184.036 181.18 183.836 181.18ZM190.796 181.18C189.823 181.18 188.983 180.967 188.276 180.54C187.57 180.113 187.023 179.52 186.636 178.76C186.263 177.987 186.076 177.093 186.076 176.08C186.076 175.053 186.263 174.167 186.636 173.42C187.023 172.673 187.57 172.1 188.276 171.7C188.983 171.3 189.823 171.1 190.796 171.1C191.396 171.1 191.99 171.207 192.576 171.42C193.163 171.633 193.65 171.933 194.036 172.32L193.476 173.5C193.09 173.127 192.663 172.853 192.196 172.68C191.743 172.507 191.31 172.42 190.896 172.42C189.883 172.42 189.103 172.74 188.556 173.38C188.01 174.007 187.736 174.913 187.736 176.1C187.736 177.26 188.01 178.18 188.556 178.86C189.103 179.527 189.883 179.86 190.896 179.86C191.31 179.86 191.743 179.773 192.196 179.6C192.663 179.427 193.09 179.147 193.476 178.76L194.036 179.94C193.65 180.327 193.156 180.633 192.556 180.86C191.97 181.073 191.383 181.18 190.796 181.18ZM195.934 181V166.9H197.554V173.44H197.294C197.574 172.667 198.027 172.087 198.654 171.7C199.294 171.3 200.027 171.1 200.854 171.1C201.627 171.1 202.267 171.24 202.774 171.52C203.294 171.8 203.681 172.227 203.934 172.8C204.187 173.36 204.314 174.073 204.314 174.94V181H202.694V175.04C202.694 174.44 202.614 173.947 202.454 173.56C202.307 173.173 202.067 172.887 201.734 172.7C201.414 172.513 200.994 172.42 200.474 172.42C199.887 172.42 199.374 172.547 198.934 172.8C198.494 173.053 198.154 173.407 197.914 173.86C197.674 174.313 197.554 174.847 197.554 175.46V181H195.934ZM216.338 181.18C215.191 181.18 214.331 180.873 213.758 180.26C213.185 179.647 212.898 178.773 212.898 177.64V172.54H210.998V171.28H212.898V168.3H214.518V171.28H217.598V172.54H214.518V177.48C214.518 178.24 214.678 178.82 214.998 179.22C215.318 179.607 215.838 179.8 216.558 179.8C216.771 179.8 216.985 179.773 217.198 179.72C217.411 179.667 217.605 179.613 217.778 179.56L218.058 180.8C217.885 180.893 217.631 180.98 217.298 181.06C216.965 181.14 216.645 181.18 216.338 181.18ZM223.373 181.18C222.426 181.18 221.606 180.973 220.913 180.56C220.219 180.147 219.679 179.567 219.293 178.82C218.919 178.06 218.733 177.167 218.733 176.14C218.733 175.113 218.919 174.227 219.293 173.48C219.679 172.72 220.219 172.133 220.913 171.72C221.606 171.307 222.426 171.1 223.373 171.1C224.319 171.1 225.139 171.307 225.833 171.72C226.526 172.133 227.059 172.72 227.433 173.48C227.819 174.227 228.013 175.113 228.013 176.14C228.013 177.167 227.819 178.06 227.433 178.82C227.059 179.567 226.526 180.147 225.833 180.56C225.139 180.973 224.319 181.18 223.373 181.18ZM223.373 179.88C224.293 179.88 225.019 179.56 225.553 178.92C226.099 178.267 226.373 177.333 226.373 176.12C226.373 174.92 226.099 174 225.553 173.36C225.019 172.72 224.293 172.4 223.373 172.4C222.466 172.4 221.739 172.72 221.193 173.36C220.646 174 220.373 174.92 220.373 176.12C220.373 177.333 220.646 178.267 221.193 178.92C221.739 179.56 222.466 179.88 223.373 179.88ZM235.583 181V171.28H237.163V173.58H236.963C237.189 172.793 237.583 172.2 238.143 171.8C238.703 171.387 239.443 171.147 240.363 171.08L240.943 171.02L241.063 172.42L240.043 172.54C239.136 172.62 238.436 172.913 237.943 173.42C237.463 173.913 237.223 174.593 237.223 175.46V181H235.583ZM247.013 181.18C245.987 181.18 245.1 180.98 244.353 180.58C243.62 180.167 243.047 179.587 242.633 178.84C242.233 178.093 242.033 177.2 242.033 176.16C242.033 175.147 242.233 174.267 242.633 173.52C243.033 172.76 243.58 172.167 244.273 171.74C244.98 171.313 245.793 171.1 246.713 171.1C247.593 171.1 248.347 171.293 248.973 171.68C249.6 172.067 250.08 172.613 250.413 173.32C250.76 174.027 250.933 174.873 250.933 175.86V176.48H243.273V175.42H249.853L249.533 175.68C249.533 174.613 249.293 173.787 248.813 173.2C248.347 172.6 247.66 172.3 246.753 172.3C246.073 172.3 245.493 172.46 245.013 172.78C244.547 173.087 244.193 173.52 243.953 174.08C243.713 174.627 243.593 175.267 243.593 176V176.12C243.593 176.933 243.72 177.62 243.973 178.18C244.24 178.74 244.633 179.167 245.153 179.46C245.673 179.74 246.293 179.88 247.013 179.88C247.587 179.88 248.14 179.793 248.673 179.62C249.22 179.433 249.733 179.133 250.213 178.72L250.773 179.86C250.333 180.26 249.773 180.58 249.093 180.82C248.413 181.06 247.72 181.18 247.013 181.18ZM257.178 181.18C256.031 181.18 255.171 180.873 254.598 180.26C254.024 179.647 253.738 178.773 253.738 177.64V172.54H251.838V171.28H253.738V168.3H255.358V171.28H258.438V172.54H255.358V177.48C255.358 178.24 255.518 178.82 255.838 179.22C256.158 179.607 256.678 179.8 257.398 179.8C257.611 179.8 257.824 179.773 258.038 179.72C258.251 179.667 258.444 179.613 258.618 179.56L258.898 180.8C258.724 180.893 258.471 180.98 258.138 181.06C257.804 181.14 257.484 181.18 257.178 181.18ZM263.33 181.18C262.663 181.18 262.063 181.053 261.53 180.8C261.01 180.533 260.597 180.173 260.29 179.72C259.983 179.267 259.83 178.76 259.83 178.2C259.83 177.48 260.01 176.913 260.37 176.5C260.743 176.087 261.35 175.793 262.19 175.62C263.043 175.447 264.203 175.36 265.67 175.36H266.57V176.42H265.69C264.877 176.42 264.197 176.447 263.65 176.5C263.103 176.553 262.67 176.647 262.35 176.78C262.03 176.913 261.803 177.087 261.67 177.3C261.537 177.513 261.47 177.78 261.47 178.1C261.47 178.647 261.657 179.093 262.03 179.44C262.417 179.787 262.937 179.96 263.59 179.96C264.123 179.96 264.59 179.833 264.99 179.58C265.403 179.327 265.723 178.98 265.95 178.54C266.19 178.1 266.31 177.593 266.31 177.02V174.74C266.31 173.913 266.143 173.32 265.81 172.96C265.477 172.587 264.93 172.4 264.17 172.4C263.583 172.4 263.017 172.487 262.47 172.66C261.923 172.82 261.363 173.087 260.79 173.46L260.23 172.28C260.577 172.04 260.97 171.833 261.41 171.66C261.85 171.473 262.31 171.333 262.79 171.24C263.27 171.147 263.73 171.1 264.17 171.1C265.01 171.1 265.703 171.24 266.25 171.52C266.797 171.787 267.203 172.2 267.47 172.76C267.737 173.307 267.87 174.013 267.87 174.88V181H266.35V178.74H266.53C266.423 179.247 266.217 179.68 265.91 180.04C265.617 180.4 265.25 180.68 264.81 180.88C264.37 181.08 263.877 181.18 263.33 181.18ZM270.675 168.86V167.04H272.675V168.86H270.675ZM270.875 181V171.28H272.495V181H270.875ZM275.524 181V171.28H277.104V173.44H276.884C277.164 172.667 277.617 172.087 278.244 171.7C278.884 171.3 279.617 171.1 280.444 171.1C281.217 171.1 281.857 171.24 282.364 171.52C282.884 171.787 283.271 172.207 283.524 172.78C283.777 173.353 283.904 174.073 283.904 174.94V181H282.284V175.04C282.284 174.44 282.204 173.947 282.044 173.56C281.897 173.173 281.657 172.887 281.324 172.7C281.004 172.513 280.584 172.42 280.064 172.42C279.477 172.42 278.964 172.547 278.524 172.8C278.084 173.053 277.744 173.407 277.504 173.86C277.264 174.313 277.144 174.847 277.144 175.46V181H275.524ZM295.308 181.18C294.801 181.18 294.308 181.127 293.828 181.02C293.361 180.927 292.921 180.793 292.508 180.62C292.108 180.433 291.761 180.213 291.468 179.96L291.988 178.82C292.308 179.073 292.654 179.287 293.028 179.46C293.401 179.62 293.781 179.74 294.168 179.82C294.554 179.9 294.948 179.94 295.348 179.94C296.108 179.94 296.681 179.8 297.068 179.52C297.454 179.24 297.648 178.86 297.648 178.38C297.648 178.007 297.521 177.713 297.268 177.5C297.014 177.273 296.614 177.1 296.068 176.98L294.248 176.58C293.408 176.407 292.781 176.107 292.368 175.68C291.968 175.253 291.768 174.7 291.768 174.02C291.768 173.42 291.921 172.907 292.228 172.48C292.548 172.04 292.994 171.7 293.568 171.46C294.141 171.22 294.808 171.1 295.568 171.1C296.021 171.1 296.454 171.147 296.868 171.24C297.281 171.333 297.668 171.473 298.028 171.66C298.401 171.833 298.721 172.053 298.988 172.32L298.448 173.46C298.194 173.22 297.908 173.02 297.588 172.86C297.268 172.687 296.934 172.56 296.588 172.48C296.254 172.387 295.914 172.34 295.568 172.34C294.821 172.34 294.254 172.487 293.868 172.78C293.481 173.073 293.288 173.46 293.288 173.94C293.288 174.313 293.408 174.62 293.648 174.86C293.888 175.1 294.261 175.273 294.768 175.38L296.588 175.76C297.454 175.947 298.101 176.247 298.528 176.66C298.968 177.06 299.188 177.607 299.188 178.3C299.188 178.887 299.028 179.4 298.708 179.84C298.388 180.267 297.934 180.6 297.348 180.84C296.774 181.067 296.094 181.18 295.308 181.18ZM305.697 181.18C304.75 181.18 303.93 180.973 303.237 180.56C302.543 180.147 302.003 179.567 301.617 178.82C301.243 178.06 301.057 177.167 301.057 176.14C301.057 175.113 301.243 174.227 301.617 173.48C302.003 172.72 302.543 172.133 303.237 171.72C303.93 171.307 304.75 171.1 305.697 171.1C306.643 171.1 307.463 171.307 308.157 171.72C308.85 172.133 309.383 172.72 309.757 173.48C310.143 174.227 310.337 175.113 310.337 176.14C310.337 177.167 310.143 178.06 309.757 178.82C309.383 179.567 308.85 180.147 308.157 180.56C307.463 180.973 306.643 181.18 305.697 181.18ZM305.697 179.88C306.617 179.88 307.343 179.56 307.877 178.92C308.423 178.267 308.697 177.333 308.697 176.12C308.697 174.92 308.423 174 307.877 173.36C307.343 172.72 306.617 172.4 305.697 172.4C304.79 172.4 304.063 172.72 303.517 173.36C302.97 174 302.697 174.92 302.697 176.12C302.697 177.333 302.97 178.267 303.517 178.92C304.063 179.56 304.79 179.88 305.697 179.88ZM312.57 168.86V167.04H314.57V168.86H312.57ZM312.77 181V171.28H314.39V181H312.77ZM320.398 181.18C319.412 181.18 318.665 180.887 318.158 180.3C317.665 179.713 317.418 178.873 317.418 177.78V166.9H319.038V177.66C319.038 178.127 319.098 178.52 319.218 178.84C319.352 179.16 319.545 179.4 319.798 179.56C320.052 179.72 320.365 179.8 320.738 179.8C320.898 179.8 321.052 179.793 321.198 179.78C321.358 179.753 321.505 179.72 321.638 179.68L321.598 181.04C321.385 181.08 321.178 181.113 320.978 181.14C320.792 181.167 320.598 181.18 320.398 181.18ZM21.56 208V198.28H23.14V200.44H22.92C23.08 199.947 23.3133 199.527 23.62 199.18C23.94 198.82 24.3133 198.553 24.74 198.38C25.18 198.193 25.66 198.1 26.18 198.1C27.0067 198.1 27.6733 198.3 28.18 198.7C28.7 199.087 29.0467 199.693 29.22 200.52H28.92C29.16 199.773 29.5867 199.187 30.2 198.76C30.8267 198.32 31.5533 198.1 32.38 198.1C33.1133 198.1 33.7133 198.24 34.18 198.52C34.66 198.8 35.02 199.227 35.26 199.8C35.5 200.36 35.62 201.073 35.62 201.94V208H34V202.02C34 201.127 33.8467 200.473 33.54 200.06C33.2333 199.633 32.7133 199.42 31.98 199.42C31.46 199.42 31 199.547 30.6 199.8C30.2133 200.053 29.9133 200.413 29.7 200.88C29.5 201.333 29.4 201.873 29.4 202.5V208H27.78V202.02C27.78 201.127 27.62 200.473 27.3 200.06C26.9933 199.633 26.48 199.42 25.76 199.42C25.2267 199.42 24.7667 199.547 24.38 199.8C23.9933 200.053 23.6933 200.413 23.48 200.88C23.28 201.333 23.18 201.873 23.18 202.5V208H21.56ZM42.6889 208.18C41.7422 208.18 40.9222 207.973 40.2289 207.56C39.5356 207.147 38.9956 206.567 38.6089 205.82C38.2356 205.06 38.0489 204.167 38.0489 203.14C38.0489 202.113 38.2356 201.227 38.6089 200.48C38.9956 199.72 39.5356 199.133 40.2289 198.72C40.9222 198.307 41.7422 198.1 42.6889 198.1C43.6356 198.1 44.4556 198.307 45.1489 198.72C45.8422 199.133 46.3756 199.72 46.7489 200.48C47.1356 201.227 47.3289 202.113 47.3289 203.14C47.3289 204.167 47.1356 205.06 46.7489 205.82C46.3756 206.567 45.8422 207.147 45.1489 207.56C44.4556 207.973 43.6356 208.18 42.6889 208.18ZM42.6889 206.88C43.6089 206.88 44.3356 206.56 44.8689 205.92C45.4156 205.267 45.6889 204.333 45.6889 203.12C45.6889 201.92 45.4156 201 44.8689 200.36C44.3356 199.72 43.6089 199.4 42.6889 199.4C41.7822 199.4 41.0556 199.72 40.5089 200.36C39.9622 201 39.6889 201.92 39.6889 203.12C39.6889 204.333 39.9622 205.267 40.5089 205.92C41.0556 206.56 41.7822 206.88 42.6889 206.88ZM49.5622 195.86V194.04H51.5622V195.86H49.5622ZM49.7622 208V198.28H51.3822V208H49.7622ZM57.6906 208.18C57.184 208.18 56.6906 208.127 56.2106 208.02C55.744 207.927 55.304 207.793 54.8906 207.62C54.4906 207.433 54.144 207.213 53.8506 206.96L54.3706 205.82C54.6906 206.073 55.0373 206.287 55.4106 206.46C55.784 206.62 56.164 206.74 56.5506 206.82C56.9373 206.9 57.3306 206.94 57.7306 206.94C58.4906 206.94 59.064 206.8 59.4506 206.52C59.8373 206.24 60.0306 205.86 60.0306 205.38C60.0306 205.007 59.904 204.713 59.6506 204.5C59.3973 204.273 58.9973 204.1 58.4506 203.98L56.6306 203.58C55.7906 203.407 55.164 203.107 54.7506 202.68C54.3506 202.253 54.1506 201.7 54.1506 201.02C54.1506 200.42 54.304 199.907 54.6106 199.48C54.9306 199.04 55.3773 198.7 55.9506 198.46C56.524 198.22 57.1906 198.1 57.9506 198.1C58.404 198.1 58.8373 198.147 59.2506 198.24C59.664 198.333 60.0506 198.473 60.4106 198.66C60.784 198.833 61.104 199.053 61.3706 199.32L60.8306 200.46C60.5773 200.22 60.2906 200.02 59.9706 199.86C59.6506 199.687 59.3173 199.56 58.9706 199.48C58.6373 199.387 58.2973 199.34 57.9506 199.34C57.204 199.34 56.6373 199.487 56.2506 199.78C55.864 200.073 55.6706 200.46 55.6706 200.94C55.6706 201.313 55.7906 201.62 56.0306 201.86C56.2706 202.1 56.644 202.273 57.1506 202.38L58.9706 202.76C59.8373 202.947 60.484 203.247 60.9106 203.66C61.3506 204.06 61.5706 204.607 61.5706 205.3C61.5706 205.887 61.4106 206.4 61.0906 206.84C60.7706 207.267 60.3173 207.6 59.7306 207.84C59.1573 208.067 58.4773 208.18 57.6906 208.18ZM67.8419 208.18C66.6952 208.18 65.8352 207.873 65.2619 207.26C64.6885 206.647 64.4019 205.773 64.4019 204.64V199.54H62.5019V198.28H64.4019V195.3H66.0219V198.28H69.1019V199.54H66.0219V204.48C66.0219 205.24 66.1819 205.82 66.5019 206.22C66.8219 206.607 67.3419 206.8 68.0619 206.8C68.2752 206.8 68.4885 206.773 68.7019 206.72C68.9152 206.667 69.1085 206.613 69.2819 206.56L69.5619 207.8C69.3885 207.893 69.1352 207.98 68.8019 208.06C68.4685 208.14 68.1485 208.18 67.8419 208.18ZM74.3741 208.18C73.5874 208.18 72.9341 208.04 72.4141 207.76C71.9074 207.467 71.5207 207.033 71.2541 206.46C71.0007 205.887 70.8741 205.173 70.8741 204.32V198.28H72.4941V204.3C72.4941 204.873 72.5674 205.353 72.7141 205.74C72.8741 206.113 73.1207 206.393 73.4541 206.58C73.7874 206.753 74.2007 206.84 74.6941 206.84C75.2541 206.84 75.7407 206.713 76.1541 206.46C76.5674 206.207 76.8941 205.853 77.1341 205.4C77.3741 204.947 77.4941 204.413 77.4941 203.8V198.28H79.1141V208H77.5341V205.76H77.7941C77.5274 206.547 77.0874 207.147 76.4741 207.56C75.8741 207.973 75.1741 208.18 74.3741 208.18ZM82.145 208V198.28H83.725V200.58H83.525C83.7517 199.793 84.145 199.2 84.705 198.8C85.265 198.387 86.005 198.147 86.925 198.08L87.505 198.02L87.625 199.42L86.605 199.54C85.6983 199.62 84.9983 199.913 84.505 200.42C84.025 200.913 83.785 201.593 83.785 202.46V208H82.145ZM93.5758 208.18C92.5491 208.18 91.6624 207.98 90.9158 207.58C90.1824 207.167 89.6091 206.587 89.1958 205.84C88.7958 205.093 88.5958 204.2 88.5958 203.16C88.5958 202.147 88.7958 201.267 89.1958 200.52C89.5958 199.76 90.1424 199.167 90.8358 198.74C91.5424 198.313 92.3558 198.1 93.2758 198.1C94.1558 198.1 94.9091 198.293 95.5358 198.68C96.1624 199.067 96.6424 199.613 96.9758 200.32C97.3224 201.027 97.4958 201.873 97.4958 202.86V203.48H89.8358V202.42H96.4158L96.0958 202.68C96.0958 201.613 95.8558 200.787 95.3758 200.2C94.9091 199.6 94.2224 199.3 93.3158 199.3C92.6358 199.3 92.0558 199.46 91.5758 199.78C91.1091 200.087 90.7558 200.52 90.5158 201.08C90.2758 201.627 90.1558 202.267 90.1558 203V203.12C90.1558 203.933 90.2824 204.62 90.5358 205.18C90.8024 205.74 91.1958 206.167 91.7158 206.46C92.2358 206.74 92.8558 206.88 93.5758 206.88C94.1491 206.88 94.7024 206.793 95.2358 206.62C95.7824 206.433 96.2958 206.133 96.7758 205.72L97.3358 206.86C96.8958 207.26 96.3358 207.58 95.6558 207.82C94.9758 208.06 94.2824 208.18 93.5758 208.18ZM108.037 208.18C107.37 208.18 106.77 208.053 106.237 207.8C105.717 207.533 105.304 207.173 104.997 206.72C104.69 206.267 104.537 205.76 104.537 205.2C104.537 204.48 104.717 203.913 105.077 203.5C105.45 203.087 106.057 202.793 106.897 202.62C107.75 202.447 108.91 202.36 110.377 202.36H111.277V203.42H110.397C109.584 203.42 108.904 203.447 108.357 203.5C107.81 203.553 107.377 203.647 107.057 203.78C106.737 203.913 106.51 204.087 106.377 204.3C106.244 204.513 106.177 204.78 106.177 205.1C106.177 205.647 106.364 206.093 106.737 206.44C107.124 206.787 107.644 206.96 108.297 206.96C108.83 206.96 109.297 206.833 109.697 206.58C110.11 206.327 110.43 205.98 110.657 205.54C110.897 205.1 111.017 204.593 111.017 204.02V201.74C111.017 200.913 110.85 200.32 110.517 199.96C110.184 199.587 109.637 199.4 108.877 199.4C108.29 199.4 107.724 199.487 107.177 199.66C106.63 199.82 106.07 200.087 105.497 200.46L104.937 199.28C105.284 199.04 105.677 198.833 106.117 198.66C106.557 198.473 107.017 198.333 107.497 198.24C107.977 198.147 108.437 198.1 108.877 198.1C109.717 198.1 110.41 198.24 110.957 198.52C111.504 198.787 111.91 199.2 112.177 199.76C112.444 200.307 112.577 201.013 112.577 201.88V208H111.057V205.74H111.237C111.13 206.247 110.924 206.68 110.617 207.04C110.324 207.4 109.957 207.68 109.517 207.88C109.077 208.08 108.584 208.18 108.037 208.18ZM115.583 208V198.28H117.163V200.44H116.943C117.223 199.667 117.676 199.087 118.303 198.7C118.943 198.3 119.676 198.1 120.503 198.1C121.276 198.1 121.916 198.24 122.423 198.52C122.943 198.787 123.329 199.207 123.583 199.78C123.836 200.353 123.963 201.073 123.963 201.94V208H122.343V202.04C122.343 201.44 122.263 200.947 122.103 200.56C121.956 200.173 121.716 199.887 121.383 199.7C121.063 199.513 120.643 199.42 120.123 199.42C119.536 199.42 119.023 199.547 118.583 199.8C118.143 200.053 117.803 200.407 117.563 200.86C117.323 201.313 117.203 201.847 117.203 202.46V208H115.583ZM130.65 208.18C129.783 208.18 129.023 207.973 128.37 207.56C127.73 207.147 127.23 206.567 126.87 205.82C126.523 205.06 126.35 204.167 126.35 203.14C126.35 202.1 126.523 201.207 126.87 200.46C127.23 199.7 127.73 199.12 128.37 198.72C129.023 198.307 129.783 198.1 130.65 198.1C131.53 198.1 132.283 198.32 132.91 198.76C133.536 199.2 133.956 199.793 134.17 200.54H133.95V193.9H135.57V208H133.99V205.68H134.19C133.976 206.44 133.55 207.047 132.91 207.5C132.283 207.953 131.53 208.18 130.65 208.18ZM130.99 206.88C131.91 206.88 132.636 206.56 133.17 205.92C133.716 205.267 133.99 204.34 133.99 203.14C133.99 201.927 133.716 201 133.17 200.36C132.636 199.72 131.91 199.4 130.99 199.4C130.083 199.4 129.356 199.72 128.81 200.36C128.263 201 127.99 201.927 127.99 203.14C127.99 204.34 128.263 205.267 128.81 205.92C129.356 206.56 130.083 206.88 130.99 206.88ZM143.747 211.6V198.28H145.327V200.58H145.127C145.34 199.82 145.76 199.22 146.387 198.78C147.027 198.327 147.787 198.1 148.667 198.1C149.533 198.1 150.287 198.307 150.927 198.72C151.58 199.12 152.08 199.7 152.427 200.46C152.787 201.207 152.967 202.1 152.967 203.14C152.967 204.167 152.787 205.06 152.427 205.82C152.08 206.567 151.587 207.147 150.947 207.56C150.307 207.973 149.547 208.18 148.667 208.18C147.787 208.18 147.033 207.96 146.407 207.52C145.78 207.067 145.353 206.467 145.127 205.72H145.367V211.6H143.747ZM148.327 206.88C149.247 206.88 149.973 206.56 150.507 205.92C151.053 205.267 151.327 204.34 151.327 203.14C151.327 201.927 151.053 201 150.507 200.36C149.973 199.72 149.247 199.4 148.327 199.4C147.42 199.4 146.693 199.72 146.147 200.36C145.6 201 145.327 201.927 145.327 203.14C145.327 204.34 145.6 205.267 146.147 205.92C146.693 206.56 147.42 206.88 148.327 206.88ZM155.407 208V198.28H156.987V200.58H156.787C157.013 199.793 157.407 199.2 157.967 198.8C158.527 198.387 159.267 198.147 160.187 198.08L160.767 198.02L160.887 199.42L159.867 199.54C158.96 199.62 158.26 199.913 157.767 200.42C157.287 200.913 157.047 201.593 157.047 202.46V208H155.407ZM166.838 208.18C165.811 208.18 164.924 207.98 164.178 207.58C163.444 207.167 162.871 206.587 162.458 205.84C162.058 205.093 161.858 204.2 161.858 203.16C161.858 202.147 162.058 201.267 162.458 200.52C162.858 199.76 163.404 199.167 164.098 198.74C164.804 198.313 165.618 198.1 166.538 198.1C167.418 198.1 168.171 198.293 168.798 198.68C169.424 199.067 169.904 199.613 170.238 200.32C170.584 201.027 170.758 201.873 170.758 202.86V203.48H163.098V202.42H169.678L169.358 202.68C169.358 201.613 169.118 200.787 168.638 200.2C168.171 199.6 167.484 199.3 166.578 199.3C165.898 199.3 165.318 199.46 164.838 199.78C164.371 200.087 164.018 200.52 163.778 201.08C163.538 201.627 163.418 202.267 163.418 203V203.12C163.418 203.933 163.544 204.62 163.798 205.18C164.064 205.74 164.458 206.167 164.978 206.46C165.498 206.74 166.118 206.88 166.838 206.88C167.411 206.88 167.964 206.793 168.498 206.62C169.044 206.433 169.558 206.133 170.038 205.72L170.598 206.86C170.158 207.26 169.598 207.58 168.918 207.82C168.238 208.06 167.544 208.18 166.838 208.18ZM175.845 208L171.665 198.28H173.425L176.905 206.8H176.365L179.905 198.28H181.565L177.365 208H175.845ZM187.521 208.18C186.494 208.18 185.608 207.98 184.861 207.58C184.128 207.167 183.554 206.587 183.141 205.84C182.741 205.093 182.541 204.2 182.541 203.16C182.541 202.147 182.741 201.267 183.141 200.52C183.541 199.76 184.088 199.167 184.781 198.74C185.488 198.313 186.301 198.1 187.221 198.1C188.101 198.1 188.854 198.293 189.481 198.68C190.108 199.067 190.588 199.613 190.921 200.32C191.268 201.027 191.441 201.873 191.441 202.86V203.48H183.781V202.42H190.361L190.041 202.68C190.041 201.613 189.801 200.787 189.321 200.2C188.854 199.6 188.168 199.3 187.261 199.3C186.581 199.3 186.001 199.46 185.521 199.78C185.054 200.087 184.701 200.52 184.461 201.08C184.221 201.627 184.101 202.267 184.101 203V203.12C184.101 203.933 184.228 204.62 184.481 205.18C184.748 205.74 185.141 206.167 185.661 206.46C186.181 206.74 186.801 206.88 187.521 206.88C188.094 206.88 188.648 206.793 189.181 206.62C189.728 206.433 190.241 206.133 190.721 205.72L191.281 206.86C190.841 207.26 190.281 207.58 189.601 207.82C188.921 208.06 188.228 208.18 187.521 208.18ZM193.786 208V198.28H195.366V200.44H195.146C195.426 199.667 195.879 199.087 196.506 198.7C197.146 198.3 197.879 198.1 198.706 198.1C199.479 198.1 200.119 198.24 200.626 198.52C201.146 198.787 201.532 199.207 201.786 199.78C202.039 200.353 202.166 201.073 202.166 201.94V208H200.546V202.04C200.546 201.44 200.466 200.947 200.306 200.56C200.159 200.173 199.919 199.887 199.586 199.7C199.266 199.513 198.846 199.42 198.326 199.42C197.739 199.42 197.226 199.547 196.786 199.8C196.346 200.053 196.006 200.407 195.766 200.86C195.526 201.313 195.406 201.847 195.406 202.46V208H193.786ZM209.053 208.18C207.906 208.18 207.046 207.873 206.473 207.26C205.899 206.647 205.613 205.773 205.613 204.64V199.54H203.713V198.28H205.613V195.3H207.233V198.28H210.313V199.54H207.233V204.48C207.233 205.24 207.393 205.82 207.713 206.22C208.033 206.607 208.553 206.8 209.273 206.8C209.486 206.8 209.699 206.773 209.913 206.72C210.126 206.667 210.319 206.613 210.493 206.56L210.773 207.8C210.599 207.893 210.346 207.98 210.013 208.06C209.679 208.14 209.359 208.18 209.053 208.18ZM219.862 208L216.242 198.28H217.942L220.922 206.8H220.442L223.522 198.28H224.902L227.922 206.8H227.462L230.482 198.28H232.102L228.462 208H226.922L223.742 199.26H224.602L221.422 208H219.862ZM238.341 208.18C237.315 208.18 236.428 207.98 235.681 207.58C234.948 207.167 234.375 206.587 233.961 205.84C233.561 205.093 233.361 204.2 233.361 203.16C233.361 202.147 233.561 201.267 233.961 200.52C234.361 199.76 234.908 199.167 235.601 198.74C236.308 198.313 237.121 198.1 238.041 198.1C238.921 198.1 239.675 198.293 240.301 198.68C240.928 199.067 241.408 199.613 241.741 200.32C242.088 201.027 242.261 201.873 242.261 202.86V203.48H234.601V202.42H241.181L240.861 202.68C240.861 201.613 240.621 200.787 240.141 200.2C239.675 199.6 238.988 199.3 238.081 199.3C237.401 199.3 236.821 199.46 236.341 199.78C235.875 200.087 235.521 200.52 235.281 201.08C235.041 201.627 234.921 202.267 234.921 203V203.12C234.921 203.933 235.048 204.62 235.301 205.18C235.568 205.74 235.961 206.167 236.481 206.46C237.001 206.74 237.621 206.88 238.341 206.88C238.915 206.88 239.468 206.793 240.001 206.62C240.548 206.433 241.061 206.133 241.541 205.72L242.101 206.86C241.661 207.26 241.101 207.58 240.421 207.82C239.741 208.06 239.048 208.18 238.341 208.18ZM248.986 208.18C247.959 208.18 247.073 207.98 246.326 207.58C245.593 207.167 245.019 206.587 244.606 205.84C244.206 205.093 244.006 204.2 244.006 203.16C244.006 202.147 244.206 201.267 244.606 200.52C245.006 199.76 245.553 199.167 246.246 198.74C246.953 198.313 247.766 198.1 248.686 198.1C249.566 198.1 250.319 198.293 250.946 198.68C251.573 199.067 252.053 199.613 252.386 200.32C252.733 201.027 252.906 201.873 252.906 202.86V203.48H245.246V202.42H251.826L251.506 202.68C251.506 201.613 251.266 200.787 250.786 200.2C250.319 199.6 249.633 199.3 248.726 199.3C248.046 199.3 247.466 199.46 246.986 199.78C246.519 200.087 246.166 200.52 245.926 201.08C245.686 201.627 245.566 202.267 245.566 203V203.12C245.566 203.933 245.693 204.62 245.946 205.18C246.213 205.74 246.606 206.167 247.126 206.46C247.646 206.74 248.266 206.88 248.986 206.88C249.559 206.88 250.113 206.793 250.646 206.62C251.193 206.433 251.706 206.133 252.186 205.72L252.746 206.86C252.306 207.26 251.746 207.58 251.066 207.82C250.386 208.06 249.693 208.18 248.986 208.18ZM258.95 208.18C258.084 208.18 257.324 207.973 256.67 207.56C256.03 207.147 255.53 206.567 255.17 205.82C254.824 205.06 254.65 204.167 254.65 203.14C254.65 202.1 254.824 201.207 255.17 200.46C255.53 199.7 256.03 199.12 256.67 198.72C257.324 198.307 258.084 198.1 258.95 198.1C259.83 198.1 260.584 198.32 261.21 198.76C261.837 199.2 262.257 199.793 262.47 200.54H262.25V193.9H263.87V208H262.29V205.68H262.49C262.277 206.44 261.85 207.047 261.21 207.5C260.584 207.953 259.83 208.18 258.95 208.18ZM259.29 206.88C260.21 206.88 260.937 206.56 261.47 205.92C262.017 205.267 262.29 204.34 262.29 203.14C262.29 201.927 262.017 201 261.47 200.36C260.937 199.72 260.21 199.4 259.29 199.4C258.384 199.4 257.657 199.72 257.11 200.36C256.564 201 256.29 201.927 256.29 203.14C256.29 204.34 256.564 205.267 257.11 205.92C257.657 206.56 258.384 206.88 259.29 206.88ZM270.191 208.18C269.684 208.18 269.191 208.127 268.711 208.02C268.244 207.927 267.804 207.793 267.391 207.62C266.991 207.433 266.644 207.213 266.351 206.96L266.871 205.82C267.191 206.073 267.537 206.287 267.911 206.46C268.284 206.62 268.664 206.74 269.051 206.82C269.437 206.9 269.831 206.94 270.231 206.94C270.991 206.94 271.564 206.8 271.951 206.52C272.337 206.24 272.531 205.86 272.531 205.38C272.531 205.007 272.404 204.713 272.151 204.5C271.897 204.273 271.497 204.1 270.951 203.98L269.131 203.58C268.291 203.407 267.664 203.107 267.251 202.68C266.851 202.253 266.651 201.7 266.651 201.02C266.651 200.42 266.804 199.907 267.111 199.48C267.431 199.04 267.877 198.7 268.451 198.46C269.024 198.22 269.691 198.1 270.451 198.1C270.904 198.1 271.337 198.147 271.751 198.24C272.164 198.333 272.551 198.473 272.911 198.66C273.284 198.833 273.604 199.053 273.871 199.32L273.331 200.46C273.077 200.22 272.791 200.02 272.471 199.86C272.151 199.687 271.817 199.56 271.471 199.48C271.137 199.387 270.797 199.34 270.451 199.34C269.704 199.34 269.137 199.487 268.751 199.78C268.364 200.073 268.171 200.46 268.171 200.94C268.171 201.313 268.291 201.62 268.531 201.86C268.771 202.1 269.144 202.273 269.651 202.38L271.471 202.76C272.337 202.947 272.984 203.247 273.411 203.66C273.851 204.06 274.071 204.607 274.071 205.3C274.071 205.887 273.911 206.4 273.591 206.84C273.271 207.267 272.817 207.6 272.231 207.84C271.657 208.067 270.977 208.18 270.191 208.18ZM276.182 208V205.96H278.222V208H276.182ZM284.609 209.4H304.609V189.4H284.609V209.4Z" fill="#0D0907"/>
<rect x="20" y="128" width="353" height="87" fill="#D9D9D9"/>
<rect y="740" width="393" height="112" fill="#9A9999"/>
<rect x="177" y="760" width="40" height="4" rx="2" fill="#040B07" fill-opacity="0.9"/>
</g>
<defs>
<clipPath id="clip0_5_65">
<rect width="393" height="852" fill="white"/>
</clipPath>
</defs>
</svg>
