<svg width="390" height="844" viewBox="0 0 390 844" fill="none" xmlns="http://www.w3.org/2000/svg">
<g clip-path="url(#clip0_575_1205)">
<rect width="390" height="844" fill="#111111"/>
<rect y="512" width="389" height="256" fill="#CDCDCD"/>
<rect x="20" y="695" width="350" height="63" fill="#CDCDCD"/>
<path d="M25.544 707.824L25.04 711.424H28.016L28.52 707.824H25.544ZM23.144 713.056H20.816V711.424H23.384L23.888 707.824H21.44V706.192H24.104L24.8 701.272H26.456L25.76 706.192H28.736L29.432 701.272H31.088L30.392 706.192H32.528V707.824H30.176L29.672 711.424H31.856V713.056H29.432L28.736 718H27.08L27.776 713.056H24.8L24.104 718H22.448L23.144 713.056ZM41.8799 718H39.8399V705.808H35.4239V704.176C35.9999 704.176 36.5599 704.136 37.1039 704.056C37.6479 703.96 38.1359 703.792 38.5679 703.552C39.0159 703.312 39.3919 702.984 39.6959 702.568C39.9999 702.152 40.2079 701.624 40.3199 700.984H41.8799V718ZM54.8079 712.216V703.888H54.7599L49.0959 712.216H54.8079ZM56.7279 712.216H59.0319V714.016H56.7279V718H54.8079V714.016H47.3439V712.048L55.0959 700.984H56.7279V712.216ZM61.0638 707.008C61.0158 706.144 61.1038 705.344 61.3278 704.608C61.5518 703.872 61.8958 703.24 62.3598 702.712C62.8398 702.168 63.4318 701.744 64.1358 701.44C64.8398 701.136 65.6398 700.984 66.5358 700.984C67.2718 700.984 67.9598 701.096 68.5998 701.32C69.2558 701.528 69.8238 701.84 70.3038 702.256C70.7838 702.656 71.1598 703.16 71.4318 703.768C71.7198 704.376 71.8638 705.08 71.8638 705.88C71.8638 706.632 71.7438 707.296 71.5038 707.872C71.2798 708.448 70.9758 708.968 70.5918 709.432C70.2078 709.88 69.7678 710.288 69.2718 710.656C68.7758 711.024 68.2638 711.376 67.7358 711.712C67.2078 712.032 66.6798 712.352 66.1518 712.672C65.6238 712.976 65.1358 713.304 64.6878 713.656C64.2558 714.008 63.8798 714.392 63.5598 714.808C63.2558 715.208 63.0558 715.672 62.9598 716.2H71.6958V718H60.5838C60.6638 716.992 60.8398 716.136 61.1118 715.432C61.3998 714.712 61.7598 714.088 62.1918 713.56C62.6238 713.032 63.1118 712.568 63.6558 712.168C64.1998 711.768 64.7678 711.392 65.3598 711.04C66.0798 710.592 66.7118 710.184 67.2558 709.816C67.7998 709.432 68.2478 709.048 68.5998 708.664C68.9678 708.28 69.2398 707.864 69.4158 707.416C69.6078 706.968 69.7038 706.448 69.7038 705.856C69.7038 705.392 69.6158 704.976 69.4398 704.608C69.2638 704.224 69.0238 703.896 68.7198 703.624C68.4318 703.352 68.0878 703.144 67.6878 703C67.2878 702.856 66.8638 702.784 66.4158 702.784C65.8238 702.784 65.3118 702.912 64.8798 703.168C64.4638 703.408 64.1198 703.728 63.8478 704.128C63.5758 704.528 63.3758 704.984 63.2478 705.496C63.1358 705.992 63.0878 706.496 63.1038 707.008H61.0638ZM81.2234 710.368H88.1594V712.288H81.2234V710.368ZM97.9033 700.864H109.159V702.784H100.183V708.232H108.055V710.152H100.183V718H97.9033V700.864ZM111.469 700.864H113.509V718H111.469V700.864ZM118.157 711.808C118.157 712.56 118.253 713.232 118.445 713.824C118.653 714.4 118.933 714.888 119.285 715.288C119.637 715.672 120.045 715.968 120.509 716.176C120.989 716.384 121.493 716.488 122.021 716.488C122.549 716.488 123.045 716.384 123.509 716.176C123.989 715.968 124.405 715.672 124.757 715.288C125.109 714.888 125.381 714.4 125.573 713.824C125.781 713.232 125.885 712.56 125.885 711.808C125.885 711.056 125.781 710.392 125.573 709.816C125.381 709.224 125.109 708.728 124.757 708.328C124.405 707.928 123.989 707.624 123.509 707.416C123.045 707.208 122.549 707.104 122.021 707.104C121.493 707.104 120.989 707.208 120.509 707.416C120.045 707.624 119.637 707.928 119.285 708.328C118.933 708.728 118.653 709.224 118.445 709.816C118.253 710.392 118.157 711.056 118.157 711.808ZM115.997 711.808C115.997 710.896 116.125 710.048 116.381 709.264C116.637 708.464 117.021 707.776 117.533 707.2C118.045 706.608 118.677 706.144 119.429 705.808C120.181 705.472 121.045 705.304 122.021 705.304C123.013 705.304 123.877 705.472 124.613 705.808C125.365 706.144 125.997 706.608 126.509 707.2C127.021 707.776 127.405 708.464 127.661 709.264C127.917 710.048 128.045 710.896 128.045 711.808C128.045 712.72 127.917 713.568 127.661 714.352C127.405 715.136 127.021 715.824 126.509 716.416C125.997 716.992 125.365 717.448 124.613 717.784C123.877 718.104 123.013 718.264 122.021 718.264C121.045 718.264 120.181 718.104 119.429 717.784C118.677 717.448 118.045 716.992 117.533 716.416C117.021 715.824 116.637 715.136 116.381 714.352C116.125 713.568 115.997 712.72 115.997 711.808ZM141.442 717.952C141.09 718.16 140.602 718.264 139.978 718.264C139.45 718.264 139.026 718.12 138.706 717.832C138.402 717.528 138.25 717.04 138.25 716.368C137.69 717.04 137.034 717.528 136.282 717.832C135.546 718.12 134.746 718.264 133.882 718.264C133.322 718.264 132.786 718.2 132.274 718.072C131.778 717.944 131.346 717.744 130.978 717.472C130.61 717.2 130.314 716.848 130.09 716.416C129.882 715.968 129.778 715.432 129.778 714.808C129.778 714.104 129.898 713.528 130.138 713.08C130.378 712.632 130.69 712.272 131.074 712C131.474 711.712 131.922 711.496 132.418 711.352C132.93 711.208 133.45 711.088 133.978 710.992C134.538 710.88 135.066 710.8 135.562 710.752C136.074 710.688 136.522 710.608 136.906 710.512C137.29 710.4 137.594 710.248 137.818 710.056C138.042 709.848 138.154 709.552 138.154 709.168C138.154 708.72 138.066 708.36 137.89 708.088C137.73 707.816 137.514 707.608 137.242 707.464C136.986 707.32 136.69 707.224 136.354 707.176C136.034 707.128 135.714 707.104 135.394 707.104C134.53 707.104 133.81 707.272 133.234 707.608C132.658 707.928 132.346 708.544 132.298 709.456H130.258C130.29 708.688 130.45 708.04 130.738 707.512C131.026 706.984 131.41 706.56 131.89 706.24C132.37 705.904 132.914 705.664 133.522 705.52C134.146 705.376 134.81 705.304 135.514 705.304C136.074 705.304 136.626 705.344 137.17 705.424C137.73 705.504 138.234 705.672 138.682 705.928C139.13 706.168 139.49 706.512 139.762 706.96C140.034 707.408 140.17 707.992 140.17 708.712V715.096C140.17 715.576 140.194 715.928 140.242 716.152C140.306 716.376 140.498 716.488 140.818 716.488C140.994 716.488 141.202 716.448 141.442 716.368V717.952ZM138.13 711.592C137.874 711.784 137.538 711.928 137.122 712.024C136.706 712.104 136.266 712.176 135.802 712.24C135.354 712.288 134.898 712.352 134.434 712.432C133.97 712.496 133.554 712.608 133.186 712.768C132.818 712.928 132.514 713.16 132.274 713.464C132.05 713.752 131.938 714.152 131.938 714.664C131.938 715 132.002 715.288 132.13 715.528C132.274 715.752 132.45 715.936 132.658 716.08C132.882 716.224 133.138 716.328 133.426 716.392C133.714 716.456 134.018 716.488 134.338 716.488C135.01 716.488 135.586 716.4 136.066 716.224C136.546 716.032 136.938 715.8 137.242 715.528C137.546 715.24 137.77 714.936 137.914 714.616C138.058 714.28 138.13 713.968 138.13 713.68V711.592ZM146.173 705.592H148.645V707.392H146.173V715.096C146.173 715.336 146.189 715.528 146.221 715.672C146.269 715.816 146.349 715.928 146.461 716.008C146.573 716.088 146.725 716.144 146.917 716.176C147.125 716.192 147.389 716.2 147.709 716.2H148.645V718H147.085C146.557 718 146.101 717.968 145.717 717.904C145.349 717.824 145.045 717.688 144.805 717.496C144.581 717.304 144.413 717.032 144.301 716.68C144.189 716.328 144.133 715.864 144.133 715.288V707.392H142.021V705.592H144.133V701.872H146.173V705.592ZM153.071 703.36H151.031V700.864H153.071V703.36ZM151.031 705.592H153.071V718H151.031V705.592ZM156.231 705.592H158.151V707.56H158.199C159.047 706.056 160.391 705.304 162.231 705.304C163.047 705.304 163.727 705.416 164.271 705.64C164.815 705.864 165.255 706.176 165.591 706.576C165.927 706.976 166.159 707.456 166.287 708.016C166.431 708.56 166.503 709.168 166.503 709.84V718H164.463V709.6C164.463 708.832 164.239 708.224 163.791 707.776C163.343 707.328 162.727 707.104 161.943 707.104C161.319 707.104 160.775 707.2 160.311 707.392C159.863 707.584 159.487 707.856 159.183 708.208C158.879 708.56 158.647 708.976 158.487 709.456C158.343 709.92 158.271 710.432 158.271 710.992V718H156.231V705.592ZM180.271 716.944C180.271 718.976 179.807 720.496 178.879 721.504C177.951 722.512 176.495 723.016 174.511 723.016C173.935 723.016 173.343 722.952 172.735 722.824C172.143 722.696 171.599 722.488 171.103 722.2C170.623 721.912 170.223 721.536 169.903 721.072C169.583 720.608 169.407 720.04 169.375 719.368H171.415C171.431 719.736 171.543 720.048 171.751 720.304C171.975 720.56 172.239 720.768 172.543 720.928C172.863 721.088 173.207 721.2 173.575 721.264C173.943 721.344 174.295 721.384 174.631 721.384C175.303 721.384 175.871 721.264 176.335 721.024C176.799 720.8 177.183 720.48 177.487 720.064C177.791 719.664 178.007 719.176 178.135 718.6C178.279 718.024 178.351 717.392 178.351 716.704V715.888H178.303C177.951 716.656 177.415 717.224 176.695 717.592C175.991 717.944 175.239 718.12 174.439 718.12C173.511 718.12 172.703 717.952 172.015 717.616C171.327 717.28 170.751 716.832 170.287 716.272C169.823 715.696 169.471 715.032 169.231 714.28C169.007 713.512 168.895 712.704 168.895 711.856C168.895 711.12 168.991 710.368 169.183 709.6C169.375 708.816 169.695 708.112 170.143 707.488C170.591 706.848 171.183 706.328 171.919 705.928C172.655 705.512 173.559 705.304 174.631 705.304C175.415 705.304 176.135 705.48 176.791 705.832C177.447 706.168 177.959 706.68 178.327 707.368H178.351V705.592H180.271V716.944ZM174.559 716.344C175.231 716.344 175.799 716.208 176.263 715.936C176.743 715.648 177.127 715.28 177.415 714.832C177.703 714.368 177.911 713.848 178.039 713.272C178.183 712.696 178.255 712.12 178.255 711.544C178.255 711 178.191 710.464 178.063 709.936C177.935 709.408 177.727 708.936 177.439 708.52C177.167 708.088 176.807 707.744 176.359 707.488C175.911 707.232 175.367 707.104 174.727 707.104C174.071 707.104 173.511 707.232 173.047 707.488C172.583 707.728 172.199 708.056 171.895 708.472C171.607 708.888 171.391 709.368 171.247 709.912C171.119 710.456 171.055 711.024 171.055 711.616C171.055 712.176 171.111 712.736 171.223 713.296C171.335 713.856 171.527 714.368 171.799 714.832C172.071 715.28 172.431 715.648 172.879 715.936C173.327 716.208 173.887 716.344 174.559 716.344ZM192.644 709.072H197.108C198.404 709.088 199.348 708.824 199.94 708.28C200.548 707.736 200.852 706.952 200.852 705.928C200.852 704.904 200.548 704.128 199.94 703.6C199.348 703.056 198.404 702.784 197.108 702.784H192.644V709.072ZM190.364 700.864H197.876C199.604 700.864 200.908 701.312 201.788 702.208C202.684 703.088 203.132 704.328 203.132 705.928C203.132 707.528 202.684 708.776 201.788 709.672C200.908 710.568 199.604 711.008 197.876 710.992H192.644V718H190.364V700.864ZM207.079 711.808C207.079 712.56 207.175 713.232 207.367 713.824C207.575 714.4 207.855 714.888 208.207 715.288C208.559 715.672 208.967 715.968 209.431 716.176C209.911 716.384 210.415 716.488 210.943 716.488C211.471 716.488 211.967 716.384 212.431 716.176C212.911 715.968 213.327 715.672 213.679 715.288C214.031 714.888 214.303 714.4 214.495 713.824C214.703 713.232 214.807 712.56 214.807 711.808C214.807 711.056 214.703 710.392 214.495 709.816C214.303 709.224 214.031 708.728 213.679 708.328C213.327 707.928 212.911 707.624 212.431 707.416C211.967 707.208 211.471 707.104 210.943 707.104C210.415 707.104 209.911 707.208 209.431 707.416C208.967 707.624 208.559 707.928 208.207 708.328C207.855 708.728 207.575 709.224 207.367 709.816C207.175 710.392 207.079 711.056 207.079 711.808ZM204.919 711.808C204.919 710.896 205.047 710.048 205.303 709.264C205.559 708.464 205.943 707.776 206.455 707.2C206.967 706.608 207.599 706.144 208.351 705.808C209.103 705.472 209.967 705.304 210.943 705.304C211.935 705.304 212.799 705.472 213.535 705.808C214.287 706.144 214.919 706.608 215.431 707.2C215.943 707.776 216.327 708.464 216.583 709.264C216.839 710.048 216.967 710.896 216.967 711.808C216.967 712.72 216.839 713.568 216.583 714.352C216.327 715.136 215.943 715.824 215.431 716.416C214.919 716.992 214.287 717.448 213.535 717.784C212.799 718.104 211.935 718.264 210.943 718.264C209.967 718.264 209.103 718.104 208.351 717.784C207.599 717.448 206.967 716.992 206.455 716.416C205.943 715.824 205.559 715.136 205.303 714.352C205.047 713.568 204.919 712.72 204.919 711.808ZM221.532 703.36H219.492V700.864H221.532V703.36ZM219.492 705.592H221.532V718H219.492V705.592ZM224.692 705.592H226.612V707.56H226.66C227.508 706.056 228.852 705.304 230.692 705.304C231.508 705.304 232.188 705.416 232.732 705.64C233.276 705.864 233.716 706.176 234.052 706.576C234.388 706.976 234.62 707.456 234.748 708.016C234.892 708.56 234.964 709.168 234.964 709.84V718H232.924V709.6C232.924 708.832 232.7 708.224 232.252 707.776C231.804 707.328 231.188 707.104 230.404 707.104C229.78 707.104 229.236 707.2 228.772 707.392C228.324 707.584 227.948 707.856 227.644 708.208C227.34 708.56 227.108 708.976 226.948 709.456C226.804 709.92 226.732 710.432 226.732 710.992V718H224.692V705.592ZM240.86 705.592H243.332V707.392H240.86V715.096C240.86 715.336 240.876 715.528 240.908 715.672C240.956 715.816 241.036 715.928 241.148 716.008C241.26 716.088 241.412 716.144 241.604 716.176C241.812 716.192 242.076 716.2 242.396 716.2H243.332V718H241.772C241.244 718 240.788 717.968 240.404 717.904C240.036 717.824 239.732 717.688 239.492 717.496C239.268 717.304 239.1 717.032 238.988 716.68C238.876 716.328 238.82 715.864 238.82 715.288V707.392H236.708V705.592H238.82V701.872H240.86V705.592ZM246.847 714.088C246.863 714.536 246.967 714.92 247.159 715.24C247.351 715.544 247.599 715.792 247.903 715.984C248.223 716.16 248.575 716.288 248.959 716.368C249.359 716.448 249.767 716.488 250.183 716.488C250.503 716.488 250.839 716.464 251.191 716.416C251.543 716.368 251.863 716.28 252.151 716.152C252.455 716.024 252.703 715.84 252.895 715.6C253.087 715.344 253.183 715.024 253.183 714.64C253.183 714.112 252.983 713.712 252.583 713.44C252.183 713.168 251.679 712.952 251.071 712.792C250.479 712.616 249.831 712.464 249.127 712.336C248.423 712.192 247.767 712 247.159 711.76C246.567 711.504 246.071 711.152 245.671 710.704C245.271 710.256 245.071 709.632 245.071 708.832C245.071 708.208 245.207 707.672 245.479 707.224C245.767 706.776 246.127 706.416 246.559 706.144C247.007 705.856 247.503 705.648 248.047 705.52C248.607 705.376 249.159 705.304 249.703 705.304C250.407 705.304 251.055 705.368 251.647 705.496C252.239 705.608 252.759 705.816 253.207 706.12C253.671 706.408 254.039 706.808 254.311 707.32C254.583 707.816 254.743 708.44 254.791 709.192H252.751C252.719 708.792 252.615 708.464 252.439 708.208C252.263 707.936 252.039 707.72 251.767 707.56C251.495 707.4 251.191 707.288 250.855 707.224C250.535 707.144 250.207 707.104 249.871 707.104C249.567 707.104 249.255 707.128 248.935 707.176C248.631 707.224 248.351 707.312 248.095 707.44C247.839 707.552 247.631 707.712 247.471 707.92C247.311 708.112 247.23 708.368 247.23 708.688C247.23 709.04 247.35 709.336 247.59 709.576C247.847 709.8 248.167 709.992 248.551 710.152C248.935 710.296 249.367 710.424 249.847 710.536C250.327 710.632 250.807 710.736 251.287 710.848C251.799 710.96 252.295 711.096 252.775 711.256C253.271 711.416 253.703 711.632 254.071 711.904C254.455 712.16 254.759 712.488 254.983 712.888C255.223 713.288 255.343 713.784 255.343 714.376C255.343 715.128 255.183 715.752 254.863 716.248C254.559 716.744 254.151 717.144 253.639 717.448C253.143 717.752 252.575 717.96 251.935 718.072C251.311 718.2 250.687 718.264 250.062 718.264C249.375 718.264 248.719 718.192 248.095 718.048C247.471 717.904 246.919 717.672 246.439 717.352C245.959 717.016 245.575 716.584 245.287 716.056C244.999 715.512 244.839 714.856 244.807 714.088H246.847Z" fill="#CDCDCD"/>
<path d="M24.928 738.088H22.736V743H21.776V732.04H24.432C27.0347 732.04 28.336 733.032 28.336 735.016C28.336 735.805 28.128 736.435 27.712 736.904C27.296 737.373 26.688 737.709 25.888 737.912L28.896 743H27.76L24.928 738.088ZM24.56 737.304C26.3947 737.304 27.312 736.541 27.312 735.016C27.312 734.269 27.0827 733.72 26.624 733.368C26.1653 733.005 25.424 732.824 24.4 732.824H22.736V737.304H24.56ZM36.1773 741.144C36.1773 741.581 36.2306 741.896 36.3373 742.088C36.4546 742.28 36.6359 742.424 36.8813 742.52L36.6733 743.176C36.2893 743.101 35.9906 742.957 35.7773 742.744C35.5746 742.531 35.4413 742.205 35.3773 741.768C34.8013 742.707 33.9319 743.176 32.7693 743.176C31.9693 743.176 31.3346 742.952 30.8653 742.504C30.4066 742.045 30.1773 741.437 30.1773 740.68C30.1773 739.816 30.4813 739.149 31.0893 738.68C31.7079 738.211 32.5613 737.976 33.6493 737.976H35.2493V737.16C35.2493 736.488 35.0999 736.003 34.8013 735.704C34.5026 735.395 34.0066 735.24 33.3133 735.24C32.6733 735.24 31.9159 735.4 31.0413 735.72L30.8013 735.016C31.7399 734.643 32.6199 734.456 33.4413 734.456C35.2653 734.456 36.1773 735.341 36.1773 737.112V741.144ZM32.9293 742.424C33.9319 742.424 34.7053 741.933 35.2493 740.952V738.648H33.7933C32.9399 738.648 32.2893 738.813 31.8413 739.144C31.3933 739.475 31.1693 739.971 31.1693 740.632C31.1693 741.208 31.3239 741.651 31.6332 741.96C31.9426 742.269 32.3746 742.424 32.9293 742.424ZM40.4834 734.632V743H39.5554V734.632H40.4834ZM40.0034 730.952C40.2167 730.952 40.3874 731.016 40.5154 731.144C40.6434 731.272 40.7074 731.432 40.7074 731.624C40.7074 731.816 40.6434 731.976 40.5154 732.104C40.3874 732.232 40.2167 732.296 40.0034 732.296C39.8007 732.296 39.6354 732.232 39.5074 732.104C39.3794 731.976 39.3154 731.816 39.3154 731.624C39.3154 731.432 39.3794 731.272 39.5074 731.144C39.6354 731.016 39.8007 730.952 40.0034 730.952ZM45.9159 734.456C46.4385 734.456 46.9132 734.536 47.3399 734.696C47.7665 734.845 48.1825 735.075 48.5879 735.384L48.1559 735.992C47.7719 735.725 47.4092 735.533 47.0679 735.416C46.7265 735.288 46.3532 735.224 45.9479 735.224C45.3932 735.224 44.9452 735.352 44.6039 735.608C44.2625 735.864 44.0919 736.205 44.0919 736.632C44.0919 737.037 44.2359 737.352 44.5239 737.576C44.8225 737.8 45.3559 738.013 46.1239 738.216C47.0732 738.461 47.7559 738.771 48.1719 739.144C48.5985 739.517 48.8119 740.051 48.8119 740.744C48.8119 741.491 48.5239 742.083 47.9479 742.52C47.3719 742.957 46.6519 743.176 45.7879 743.176C45.1479 743.176 44.5879 743.085 44.1079 742.904C43.6279 742.712 43.1905 742.445 42.7959 742.104L43.3079 741.512C43.6812 741.811 44.0599 742.035 44.4439 742.184C44.8385 742.323 45.2812 742.392 45.7719 742.392C46.3905 742.392 46.8865 742.253 47.2599 741.976C47.6439 741.688 47.8359 741.293 47.8359 740.792C47.8359 740.451 47.7719 740.173 47.6439 739.96C47.5159 739.747 47.2972 739.565 46.9879 739.416C46.6785 739.256 46.2252 739.096 45.6279 738.936C44.7425 738.701 44.1025 738.408 43.7079 738.056C43.3239 737.704 43.1319 737.235 43.1319 736.648C43.1319 736.232 43.2545 735.859 43.4999 735.528C43.7452 735.187 44.0759 734.925 44.4919 734.744C44.9185 734.552 45.3932 734.456 45.9159 734.456ZM57.2258 738.504C57.2258 738.739 57.2151 738.963 57.1938 739.176H51.6098C51.6631 740.264 51.9191 741.075 52.3778 741.608C52.8471 742.131 53.4604 742.392 54.2178 742.392C54.6551 742.392 55.0391 742.328 55.3698 742.2C55.7111 742.061 56.0791 741.848 56.4738 741.56L56.9058 742.152C56.4898 742.493 56.0631 742.749 55.6258 742.92C55.1884 743.091 54.7031 743.176 54.1698 743.176C53.0604 743.176 52.1911 742.797 51.5618 742.04C50.9324 741.283 50.6178 740.232 50.6178 738.888C50.6178 738.003 50.7511 737.229 51.0178 736.568C51.2951 735.896 51.6844 735.379 52.1858 735.016C52.6978 734.643 53.2898 734.456 53.9618 734.456C55.0284 734.456 55.8391 734.819 56.3938 735.544C56.9484 736.259 57.2258 737.245 57.2258 738.504ZM56.3138 738.216C56.3138 737.277 56.1164 736.547 55.7218 736.024C55.3378 735.491 54.7618 735.224 53.9938 735.224C53.3004 735.224 52.7404 735.491 52.3138 736.024C51.8871 736.557 51.6524 737.368 51.6098 738.456H56.3138V738.216ZM65.8359 731.224V743H65.0359L64.9239 741.72C64.3479 742.691 63.5105 743.176 62.4119 743.176C61.4412 743.176 60.6732 742.792 60.1079 742.024C59.5532 741.245 59.2759 740.189 59.2759 738.856C59.2759 737.992 59.4039 737.229 59.6599 736.568C59.9265 735.907 60.3052 735.389 60.7959 735.016C61.2972 734.643 61.8839 734.456 62.5559 734.456C63.5052 734.456 64.2892 734.835 64.9079 735.592V731.112L65.8359 731.224ZM62.5559 742.408C63.0892 742.408 63.5372 742.28 63.8999 742.024C64.2732 741.768 64.6092 741.379 64.9079 740.856V736.488C64.3105 735.645 63.5799 735.224 62.7159 735.224C61.9585 735.224 61.3559 735.539 60.9079 736.168C60.4705 736.797 60.2572 737.688 60.2679 738.84C60.2679 739.992 60.4705 740.877 60.8759 741.496C61.2812 742.104 61.8412 742.408 62.5559 742.408ZM74.624 734.632V743H73.696V734.632H74.624ZM74.144 730.952C74.3573 730.952 74.528 731.016 74.656 731.144C74.784 731.272 74.848 731.432 74.848 731.624C74.848 731.816 74.784 731.976 74.656 732.104C74.528 732.232 74.3573 732.296 74.144 732.296C73.9413 732.296 73.776 732.232 73.648 732.104C73.52 731.976 73.456 731.816 73.456 731.624C73.456 731.432 73.52 731.272 73.648 731.144C73.776 731.016 73.9413 730.952 74.144 730.952ZM81.7045 734.456C82.4618 734.456 83.0378 734.68 83.4325 735.128C83.8378 735.576 84.0405 736.205 84.0405 737.016V743H83.1125V737.144C83.1125 736.472 82.9792 735.981 82.7125 735.672C82.4458 735.363 82.0512 735.208 81.5285 735.208C80.9952 735.208 80.5205 735.357 80.1045 735.656C79.6992 735.944 79.3098 736.371 78.9365 736.936V743H78.0085V734.632H78.8085L78.9045 736.056C79.2458 735.555 79.6512 735.165 80.1205 734.888C80.5898 734.6 81.1178 734.456 81.7045 734.456ZM101.341 743H100.413L99.917 737.752C99.7143 735.715 99.5757 734.125 99.501 732.984L96.749 741.704H95.837L92.989 732.984C92.9357 734.019 92.829 735.389 92.669 737.096L92.621 737.72L92.141 743H91.229L92.269 732.04H93.597L96.317 740.568L98.941 732.04H100.285L101.341 743ZM109.334 741.144C109.334 741.581 109.387 741.896 109.494 742.088C109.611 742.28 109.792 742.424 110.038 742.52L109.83 743.176C109.446 743.101 109.147 742.957 108.934 742.744C108.731 742.531 108.598 742.205 108.534 741.768C107.958 742.707 107.088 743.176 105.926 743.176C105.126 743.176 104.491 742.952 104.022 742.504C103.563 742.045 103.334 741.437 103.334 740.68C103.334 739.816 103.638 739.149 104.246 738.68C104.864 738.211 105.718 737.976 106.806 737.976H108.406V737.16C108.406 736.488 108.256 736.003 107.958 735.704C107.659 735.395 107.163 735.24 106.47 735.24C105.83 735.24 105.072 735.4 104.198 735.72L103.958 735.016C104.896 734.643 105.776 734.456 106.598 734.456C108.422 734.456 109.334 735.341 109.334 737.112V741.144ZM106.086 742.424C107.088 742.424 107.862 741.933 108.406 740.952V738.648H106.95C106.096 738.648 105.446 738.813 104.998 739.144C104.55 739.475 104.326 739.971 104.326 740.632C104.326 741.208 104.48 741.651 104.789 741.96C105.099 742.269 105.531 742.424 106.086 742.424ZM116.408 734.456C117.165 734.456 117.741 734.68 118.136 735.128C118.541 735.576 118.744 736.205 118.744 737.016V743H117.816V737.144C117.816 736.472 117.682 735.981 117.416 735.672C117.149 735.363 116.754 735.208 116.232 735.208C115.698 735.208 115.224 735.357 114.808 735.656C114.402 735.944 114.013 736.371 113.64 736.936V743H112.712V734.632H113.512L113.608 736.056C113.949 735.555 114.354 735.165 114.824 734.888C115.293 734.6 115.821 734.456 116.408 734.456ZM124.919 734.456C125.399 734.456 125.826 734.525 126.199 734.664C126.573 734.792 126.935 735.005 127.287 735.304L126.823 735.912C126.546 735.688 126.258 735.523 125.959 735.416C125.671 735.309 125.341 735.256 124.967 735.256C124.178 735.256 123.549 735.565 123.079 736.184C122.61 736.792 122.375 737.683 122.375 738.856C122.375 740.019 122.605 740.893 123.063 741.48C123.533 742.067 124.162 742.36 124.951 742.36C125.325 742.36 125.661 742.301 125.959 742.184C126.269 742.067 126.578 741.891 126.887 741.656L127.335 742.28C126.631 742.877 125.831 743.176 124.935 743.176C124.221 743.176 123.597 743.005 123.063 742.664C122.53 742.323 122.114 741.832 121.815 741.192C121.527 740.541 121.383 739.768 121.383 738.872C121.383 737.987 121.527 737.213 121.815 736.552C122.114 735.88 122.53 735.363 123.063 735C123.597 734.637 124.215 734.456 124.919 734.456ZM133.251 734.456C133.998 734.456 134.574 734.685 134.979 735.144C135.385 735.592 135.587 736.216 135.587 737.016V743H134.659V737.144C134.659 735.853 134.131 735.208 133.075 735.208C132.542 735.208 132.067 735.357 131.651 735.656C131.246 735.944 130.857 736.371 130.483 736.936V743H129.555V731.224L130.483 731.112V736.024C131.23 734.979 132.153 734.456 133.251 734.456ZM144.835 738.504C144.835 738.739 144.824 738.963 144.803 739.176H139.219C139.272 740.264 139.528 741.075 139.987 741.608C140.456 742.131 141.07 742.392 141.827 742.392C142.264 742.392 142.648 742.328 142.979 742.2C143.32 742.061 143.688 741.848 144.083 741.56L144.515 742.152C144.099 742.493 143.672 742.749 143.235 742.92C142.798 743.091 142.312 743.176 141.779 743.176C140.67 743.176 139.8 742.797 139.171 742.04C138.542 741.283 138.227 740.232 138.227 738.888C138.227 738.003 138.36 737.229 138.627 736.568C138.904 735.896 139.294 735.379 139.795 735.016C140.307 734.643 140.899 734.456 141.571 734.456C142.638 734.456 143.448 734.819 144.003 735.544C144.558 736.259 144.835 737.245 144.835 738.504ZM143.923 738.216C143.923 737.277 143.726 736.547 143.331 736.024C142.947 735.491 142.371 735.224 141.603 735.224C140.91 735.224 140.35 735.491 139.923 736.024C139.496 736.557 139.262 737.368 139.219 738.456H143.923V738.216ZM149.525 734.456C150.048 734.456 150.523 734.536 150.949 734.696C151.376 734.845 151.792 735.075 152.197 735.384L151.765 735.992C151.381 735.725 151.019 735.533 150.677 735.416C150.336 735.288 149.963 735.224 149.557 735.224C149.003 735.224 148.555 735.352 148.213 735.608C147.872 735.864 147.701 736.205 147.701 736.632C147.701 737.037 147.845 737.352 148.133 737.576C148.432 737.8 148.965 738.013 149.733 738.216C150.683 738.461 151.365 738.771 151.781 739.144C152.208 739.517 152.421 740.051 152.421 740.744C152.421 741.491 152.133 742.083 151.557 742.52C150.981 742.957 150.261 743.176 149.397 743.176C148.757 743.176 148.197 743.085 147.717 742.904C147.237 742.712 146.8 742.445 146.405 742.104L146.917 741.512C147.291 741.811 147.669 742.035 148.053 742.184C148.448 742.323 148.891 742.392 149.381 742.392C150 742.392 150.496 742.253 150.869 741.976C151.253 741.688 151.445 741.293 151.445 740.792C151.445 740.451 151.381 740.173 151.253 739.96C151.125 739.747 150.907 739.565 150.597 739.416C150.288 739.256 149.835 739.096 149.237 738.936C148.352 738.701 147.712 738.408 147.317 738.056C146.933 737.704 146.741 737.235 146.741 736.648C146.741 736.232 146.864 735.859 147.109 735.528C147.355 735.187 147.685 734.925 148.101 734.744C148.528 734.552 149.003 734.456 149.525 734.456ZM158.707 742.648C158.174 743 157.587 743.176 156.947 743.176C156.307 743.176 155.806 742.989 155.443 742.616C155.08 742.232 154.899 741.683 154.899 740.968V735.384H153.491V734.632H154.899V732.632L155.827 732.52V734.632H157.987L157.875 735.384H155.827V740.92C155.827 741.411 155.928 741.779 156.131 742.024C156.334 742.259 156.643 742.376 157.059 742.376C157.486 742.376 157.912 742.253 158.339 742.008L158.707 742.648ZM166.101 738.504C166.101 738.739 166.09 738.963 166.069 739.176H160.485C160.538 740.264 160.794 741.075 161.253 741.608C161.722 742.131 162.335 742.392 163.093 742.392C163.53 742.392 163.914 742.328 164.245 742.2C164.586 742.061 164.954 741.848 165.349 741.56L165.781 742.152C165.365 742.493 164.938 742.749 164.501 742.92C164.063 743.091 163.578 743.176 163.045 743.176C161.935 743.176 161.066 742.797 160.437 742.04C159.807 741.283 159.493 740.232 159.493 738.888C159.493 738.003 159.626 737.229 159.893 736.568C160.17 735.896 160.559 735.379 161.061 735.016C161.573 734.643 162.165 734.456 162.837 734.456C163.903 734.456 164.714 734.819 165.269 735.544C165.823 736.259 166.101 737.245 166.101 738.504ZM165.189 738.216C165.189 737.277 164.991 736.547 164.597 736.024C164.213 735.491 163.637 735.224 162.869 735.224C162.175 735.224 161.615 735.491 161.189 736.024C160.762 736.557 160.527 737.368 160.485 738.456H165.189V738.216ZM171.991 734.456C172.322 734.456 172.599 734.488 172.823 734.552L172.647 735.432C172.412 735.368 172.167 735.336 171.911 735.336C171.346 735.336 170.887 735.544 170.535 735.96C170.194 736.365 169.906 737.005 169.671 737.88V743H168.743V734.632H169.543L169.623 736.504C169.847 735.811 170.151 735.299 170.535 734.968C170.93 734.627 171.415 734.456 171.991 734.456ZM173.382 741.656C173.606 741.656 173.788 741.731 173.926 741.88C174.076 742.019 174.15 742.195 174.15 742.408C174.15 742.643 174.07 742.936 173.91 743.288L173.014 745.416H172.342L172.982 743.064C172.865 743 172.774 742.909 172.71 742.792C172.646 742.675 172.614 742.547 172.614 742.408C172.614 742.195 172.689 742.019 172.838 741.88C172.988 741.731 173.169 741.656 173.382 741.656ZM186.86 732.04L186.748 732.84H182.252V736.92H186.14V737.72H182.252V742.2H186.972V743H181.292V732.04H186.86ZM192.939 734.456C193.696 734.456 194.272 734.68 194.667 735.128C195.072 735.576 195.275 736.205 195.275 737.016V743H194.347V737.144C194.347 736.472 194.214 735.981 193.947 735.672C193.68 735.363 193.286 735.208 192.763 735.208C192.23 735.208 191.755 735.357 191.339 735.656C190.934 735.944 190.544 736.371 190.171 736.936V743H189.243V734.632H190.043L190.139 736.056C190.48 735.555 190.886 735.165 191.355 734.888C191.824 734.6 192.352 734.456 192.939 734.456ZM204.811 734.808C204.299 734.947 203.525 735.027 202.491 735.048C203.44 735.496 203.915 736.253 203.915 737.32C203.915 738.141 203.643 738.808 203.099 739.32C202.555 739.821 201.819 740.072 200.891 740.072C200.475 740.072 200.112 740.019 199.803 739.912C199.6 740.029 199.44 740.173 199.323 740.344C199.216 740.504 199.163 740.68 199.163 740.872C199.163 741.448 199.605 741.736 200.491 741.736H201.851C202.672 741.736 203.323 741.939 203.803 742.344C204.293 742.739 204.539 743.251 204.539 743.88C204.539 744.648 204.235 745.24 203.627 745.656C203.019 746.072 202.112 746.28 200.907 746.28C199.659 746.28 198.763 746.088 198.219 745.704C197.685 745.331 197.419 744.723 197.419 743.88H198.283C198.293 744.285 198.379 744.605 198.539 744.84C198.699 745.075 198.965 745.245 199.339 745.352C199.712 745.459 200.235 745.512 200.907 745.512C201.845 745.512 202.528 745.373 202.955 745.096C203.381 744.829 203.595 744.44 203.595 743.928C203.595 743.48 203.429 743.139 203.099 742.904C202.768 742.659 202.304 742.536 201.707 742.536H200.347C199.685 742.536 199.173 742.397 198.811 742.12C198.459 741.843 198.283 741.491 198.283 741.064C198.283 740.787 198.363 740.525 198.523 740.28C198.683 740.035 198.907 739.821 199.195 739.64C198.715 739.395 198.357 739.08 198.123 738.696C197.899 738.312 197.787 737.843 197.787 737.288C197.787 736.445 198.069 735.763 198.635 735.24C199.2 734.717 199.941 734.456 200.859 734.456C201.872 734.467 202.608 734.429 203.067 734.344C203.536 734.259 204.021 734.115 204.523 733.912L204.811 734.808ZM200.859 735.176C200.165 735.176 199.637 735.368 199.275 735.752C198.923 736.136 198.747 736.648 198.747 737.288C198.747 737.949 198.933 738.467 199.307 738.84C199.691 739.213 200.208 739.4 200.859 739.4C201.541 739.4 202.064 739.219 202.427 738.856C202.789 738.483 202.971 737.965 202.971 737.304C202.971 736.632 202.789 736.109 202.427 735.736C202.075 735.363 201.552 735.176 200.859 735.176ZM208.026 743.176C207.567 743.176 207.204 743.043 206.938 742.776C206.682 742.509 206.554 742.115 206.554 741.592V731.224L207.482 731.112V741.56C207.482 742.104 207.706 742.376 208.154 742.376C208.378 742.376 208.57 742.339 208.73 742.264L208.986 742.952C208.687 743.101 208.367 743.176 208.026 743.176ZM216.302 741.144C216.302 741.581 216.356 741.896 216.462 742.088C216.58 742.28 216.761 742.424 217.006 742.52L216.798 743.176C216.414 743.101 216.116 742.957 215.902 742.744C215.7 742.531 215.566 742.205 215.502 741.768C214.926 742.707 214.057 743.176 212.894 743.176C212.094 743.176 211.46 742.952 210.99 742.504C210.532 742.045 210.302 741.437 210.302 740.68C210.302 739.816 210.606 739.149 211.214 738.68C211.833 738.211 212.686 737.976 213.774 737.976H215.374V737.16C215.374 736.488 215.225 736.003 214.926 735.704C214.628 735.395 214.132 735.24 213.438 735.24C212.798 735.24 212.041 735.4 211.166 735.72L210.926 735.016C211.865 734.643 212.745 734.456 213.566 734.456C215.39 734.456 216.302 735.341 216.302 737.112V741.144ZM213.054 742.424C214.057 742.424 214.83 741.933 215.374 740.952V738.648H213.918C213.065 738.648 212.414 738.813 211.966 739.144C211.518 739.475 211.294 739.971 211.294 740.632C211.294 741.208 211.449 741.651 211.758 741.96C212.068 742.269 212.5 742.424 213.054 742.424ZM223.376 734.456C224.134 734.456 224.71 734.68 225.104 735.128C225.51 735.576 225.712 736.205 225.712 737.016V743H224.784V737.144C224.784 736.472 224.651 735.981 224.384 735.672C224.118 735.363 223.723 735.208 223.2 735.208C222.667 735.208 222.192 735.357 221.776 735.656C221.371 735.944 220.982 736.371 220.608 736.936V743H219.68V734.632H220.48L220.576 736.056C220.918 735.555 221.323 735.165 221.792 734.888C222.262 734.6 222.79 734.456 223.376 734.456ZM234.992 731.224V743H234.192L234.08 741.72C233.504 742.691 232.667 743.176 231.568 743.176C230.597 743.176 229.829 742.792 229.264 742.024C228.709 741.245 228.432 740.189 228.432 738.856C228.432 737.992 228.56 737.229 228.816 736.568C229.083 735.907 229.461 735.389 229.952 735.016C230.453 734.643 231.04 734.456 231.712 734.456C232.661 734.456 233.445 734.835 234.064 735.592V731.112L234.992 731.224ZM231.712 742.408C232.245 742.408 232.693 742.28 233.056 742.024C233.429 741.768 233.765 741.379 234.064 740.856V736.488C233.467 735.645 232.736 735.224 231.872 735.224C231.115 735.224 230.512 735.539 230.064 736.168C229.627 736.797 229.413 737.688 229.424 738.84C229.424 739.992 229.627 740.877 230.032 741.496C230.437 742.104 230.997 742.408 231.712 742.408ZM238.336 741.656C238.56 741.656 238.741 741.731 238.88 741.88C239.029 742.019 239.104 742.195 239.104 742.408C239.104 742.643 239.024 742.936 238.864 743.288L237.968 745.416H237.296L237.936 743.064C237.818 743 237.728 742.909 237.664 742.792C237.6 742.675 237.568 742.547 237.568 742.408C237.568 742.195 237.642 742.019 237.792 741.88C237.941 741.731 238.122 741.656 238.336 741.656ZM248.741 731.864C249.413 731.864 249.989 731.965 250.469 732.168C250.959 732.36 251.434 732.664 251.893 733.08L251.333 733.688C250.917 733.336 250.511 733.08 250.117 732.92C249.722 732.76 249.274 732.68 248.773 732.68C248.09 732.68 247.541 732.851 247.125 733.192C246.709 733.523 246.501 733.971 246.501 734.536C246.501 734.92 246.575 735.24 246.725 735.496C246.885 735.741 247.146 735.965 247.509 736.168C247.871 736.36 248.389 736.557 249.061 736.76C249.786 736.984 250.373 737.224 250.821 737.48C251.269 737.736 251.615 738.067 251.861 738.472C252.106 738.877 252.229 739.389 252.229 740.008C252.229 740.627 252.079 741.176 251.781 741.656C251.482 742.136 251.055 742.509 250.501 742.776C249.957 743.043 249.322 743.176 248.597 743.176C247.231 743.176 246.063 742.717 245.093 741.8L245.637 741.192C246.085 741.576 246.538 741.869 246.997 742.072C247.455 742.264 247.983 742.36 248.581 742.36C249.37 742.36 250.01 742.152 250.501 741.736C251.002 741.32 251.253 740.755 251.253 740.04C251.253 739.592 251.167 739.224 250.997 738.936C250.837 738.648 250.57 738.403 250.197 738.2C249.834 737.987 249.317 737.773 248.645 737.56C247.525 737.219 246.725 736.824 246.245 736.376C245.765 735.928 245.525 735.32 245.525 734.552C245.525 734.04 245.658 733.581 245.925 733.176C246.202 732.76 246.581 732.44 247.061 732.216C247.551 731.981 248.111 731.864 248.741 731.864ZM258.486 734.456C259.232 734.456 259.808 734.685 260.214 735.144C260.619 735.592 260.822 736.216 260.822 737.016V743H259.894V737.144C259.894 735.853 259.366 735.208 258.31 735.208C257.776 735.208 257.302 735.357 256.886 735.656C256.48 735.944 256.091 736.371 255.718 736.936V743H254.79V731.224L255.718 731.112V736.024C256.464 734.979 257.387 734.456 258.486 734.456ZM270.07 738.504C270.07 738.739 270.059 738.963 270.038 739.176H264.454C264.507 740.264 264.763 741.075 265.222 741.608C265.691 742.131 266.304 742.392 267.062 742.392C267.499 742.392 267.883 742.328 268.214 742.2C268.555 742.061 268.923 741.848 269.318 741.56L269.75 742.152C269.334 742.493 268.907 742.749 268.47 742.92C268.032 743.091 267.547 743.176 267.014 743.176C265.904 743.176 265.035 742.797 264.406 742.04C263.776 741.283 263.462 740.232 263.462 738.888C263.462 738.003 263.595 737.229 263.862 736.568C264.139 735.896 264.528 735.379 265.03 735.016C265.542 734.643 266.134 734.456 266.806 734.456C267.872 734.456 268.683 734.819 269.238 735.544C269.792 736.259 270.07 737.245 270.07 738.504ZM269.158 738.216C269.158 737.277 268.96 736.547 268.566 736.024C268.182 735.491 267.606 735.224 266.838 735.224C266.144 735.224 265.584 735.491 265.158 736.024C264.731 736.557 264.496 737.368 264.454 738.456H269.158V738.216ZM276.168 734.456C277.181 734.456 277.938 734.835 278.44 735.592C278.952 736.339 279.208 737.4 279.208 738.776C279.208 740.12 278.93 741.192 278.376 741.992C277.832 742.781 277.048 743.176 276.024 743.176C275.522 743.176 275.069 743.075 274.664 742.872C274.258 742.659 273.917 742.376 273.64 742.024V746.152L272.712 746.28V734.632H273.512L273.592 735.848C273.901 735.411 274.274 735.069 274.712 734.824C275.16 734.579 275.645 734.456 276.168 734.456ZM275.848 742.392C276.616 742.392 277.202 742.088 277.608 741.48C278.013 740.872 278.216 739.971 278.216 738.776C278.216 736.408 277.474 735.224 275.992 735.224C275.49 735.224 275.053 735.352 274.68 735.608C274.317 735.864 273.97 736.216 273.64 736.664V741.112C274.194 741.965 274.93 742.392 275.848 742.392ZM285.705 734.456C286.451 734.456 287.027 734.685 287.433 735.144C287.838 735.592 288.041 736.216 288.041 737.016V743H287.113V737.144C287.113 735.853 286.585 735.208 285.529 735.208C284.995 735.208 284.521 735.357 284.105 735.656C283.699 735.944 283.31 736.371 282.937 736.936V743H282.009V731.224L282.937 731.112V736.024C283.683 734.979 284.606 734.456 285.705 734.456ZM297.288 738.504C297.288 738.739 297.278 738.963 297.256 739.176H291.672C291.726 740.264 291.982 741.075 292.44 741.608C292.91 742.131 293.523 742.392 294.28 742.392C294.718 742.392 295.102 742.328 295.432 742.2C295.774 742.061 296.142 741.848 296.536 741.56L296.968 742.152C296.552 742.493 296.126 742.749 295.688 742.92C295.251 743.091 294.766 743.176 294.232 743.176C293.123 743.176 292.254 742.797 291.624 742.04C290.995 741.283 290.68 740.232 290.68 738.888C290.68 738.003 290.814 737.229 291.08 736.568C291.358 735.896 291.747 735.379 292.248 735.016C292.76 734.643 293.352 734.456 294.024 734.456C295.091 734.456 295.902 734.819 296.456 735.544C297.011 736.259 297.288 737.245 297.288 738.504ZM296.376 738.216C296.376 737.277 296.179 736.547 295.784 736.024C295.4 735.491 294.824 735.224 294.056 735.224C293.363 735.224 292.803 735.491 292.376 736.024C291.95 736.557 291.715 737.368 291.672 738.456H296.376V738.216ZM303.178 734.456C303.509 734.456 303.786 734.488 304.01 734.552L303.834 735.432C303.6 735.368 303.354 735.336 303.098 735.336C302.533 735.336 302.074 735.544 301.722 735.96C301.381 736.365 301.093 737.005 300.858 737.88V743H299.93V734.632H300.73L300.81 736.504C301.034 735.811 301.338 735.299 301.722 734.968C302.117 734.627 302.602 734.456 303.178 734.456ZM311.383 731.224V743H310.583L310.471 741.72C309.895 742.691 309.057 743.176 307.959 743.176C306.988 743.176 306.22 742.792 305.655 742.024C305.1 741.245 304.823 740.189 304.823 738.856C304.823 737.992 304.951 737.229 305.207 736.568C305.473 735.907 305.852 735.389 306.343 735.016C306.844 734.643 307.431 734.456 308.103 734.456C309.052 734.456 309.836 734.835 310.455 735.592V731.112L311.383 731.224ZM308.103 742.408C308.636 742.408 309.084 742.28 309.447 742.024C309.82 741.768 310.156 741.379 310.455 740.856V736.488C309.857 735.645 309.127 735.224 308.263 735.224C307.505 735.224 306.903 735.539 306.455 736.168C306.017 736.797 305.804 737.688 305.815 738.84C305.815 739.992 306.017 740.877 306.423 741.496C306.828 742.104 307.388 742.408 308.103 742.408ZM321.291 734.456C321.814 734.456 322.288 734.536 322.715 734.696C323.142 734.845 323.558 735.075 323.963 735.384L323.531 735.992C323.147 735.725 322.784 735.533 322.443 735.416C322.102 735.288 321.728 735.224 321.323 735.224C320.768 735.224 320.32 735.352 319.979 735.608C319.638 735.864 319.467 736.205 319.467 736.632C319.467 737.037 319.611 737.352 319.899 737.576C320.198 737.8 320.731 738.013 321.499 738.216C322.448 738.461 323.131 738.771 323.547 739.144C323.974 739.517 324.187 740.051 324.187 740.744C324.187 741.491 323.899 742.083 323.323 742.52C322.747 742.957 322.027 743.176 321.163 743.176C320.523 743.176 319.963 743.085 319.483 742.904C319.003 742.712 318.566 742.445 318.171 742.104L318.683 741.512C319.056 741.811 319.435 742.035 319.819 742.184C320.214 742.323 320.656 742.392 321.147 742.392C321.766 742.392 322.262 742.253 322.635 741.976C323.019 741.688 323.211 741.293 323.211 740.792C323.211 740.451 323.147 740.173 323.019 739.96C322.891 739.747 322.672 739.565 322.363 739.416C322.054 739.256 321.6 739.096 321.003 738.936C320.118 738.701 319.478 738.408 319.083 738.056C318.699 737.704 318.507 737.235 318.507 736.648C318.507 736.232 318.63 735.859 318.875 735.528C319.12 735.187 319.451 734.925 319.867 734.744C320.294 734.552 320.768 734.456 321.291 734.456ZM330.473 742.648C329.939 743 329.353 743.176 328.713 743.176C328.073 743.176 327.571 742.989 327.209 742.616C326.846 742.232 326.665 741.683 326.665 740.968V735.384H325.257V734.632H326.665V732.632L327.593 732.52V734.632H329.753L329.641 735.384H327.593V740.92C327.593 741.411 327.694 741.779 327.897 742.024C328.099 742.259 328.409 742.376 328.825 742.376C329.251 742.376 329.678 742.253 330.105 742.008L330.473 742.648ZM337.99 743H337.19L337.142 741.512C336.481 742.621 335.569 743.176 334.406 743.176C333.649 743.176 333.062 742.957 332.646 742.52C332.241 742.072 332.038 741.437 332.038 740.616V734.632H332.966V740.52C332.966 741.171 333.099 741.651 333.366 741.96C333.643 742.259 334.059 742.408 334.614 742.408C335.585 742.408 336.401 741.837 337.062 740.696V734.632H337.99V743ZM347.352 731.224V743H346.552L346.44 741.72C345.864 742.691 345.026 743.176 343.928 743.176C342.957 743.176 342.189 742.792 341.624 742.024C341.069 741.245 340.792 740.189 340.792 738.856C340.792 737.992 340.92 737.229 341.176 736.568C341.442 735.907 341.821 735.389 342.312 735.016C342.813 734.643 343.4 734.456 344.072 734.456C345.021 734.456 345.805 734.835 346.424 735.592V731.112L347.352 731.224ZM344.072 742.408C344.605 742.408 345.053 742.28 345.416 742.024C345.789 741.768 346.125 741.379 346.424 740.856V736.488C345.826 735.645 345.096 735.224 344.232 735.224C343.474 735.224 342.872 735.539 342.424 736.168C341.986 736.797 341.773 737.688 341.784 738.84C341.784 739.992 341.986 740.877 342.392 741.496C342.797 742.104 343.357 742.408 344.072 742.408ZM351.671 734.632V743H350.743V734.632H351.671ZM351.191 730.952C351.404 730.952 351.575 731.016 351.703 731.144C351.831 731.272 351.895 731.432 351.895 731.624C351.895 731.816 351.831 731.976 351.703 732.104C351.575 732.232 351.404 732.296 351.191 732.296C350.988 732.296 350.823 732.232 350.695 732.104C350.567 731.976 350.503 731.816 350.503 731.624C350.503 731.432 350.567 731.272 350.695 731.144C350.823 731.016 350.988 730.952 351.191 730.952ZM358.383 741.656C358.607 741.656 358.789 741.731 358.927 741.88C359.077 742.019 359.151 742.195 359.151 742.408C359.151 742.632 359.077 742.819 358.927 742.968C358.789 743.107 358.607 743.176 358.383 743.176C358.17 743.176 357.989 743.101 357.839 742.952C357.69 742.803 357.615 742.621 357.615 742.408C357.615 742.195 357.69 742.019 357.839 741.88C357.989 741.731 358.17 741.656 358.383 741.656ZM361.743 741.672C361.967 741.672 362.149 741.747 362.287 741.896C362.437 742.035 362.511 742.211 362.511 742.424C362.511 742.648 362.437 742.835 362.287 742.984C362.149 743.123 361.967 743.192 361.743 743.192C361.53 743.192 361.349 743.117 361.199 742.968C361.05 742.819 360.975 742.637 360.975 742.424C360.975 742.211 361.05 742.035 361.199 741.896C361.349 741.747 361.53 741.672 361.743 741.672ZM355.007 741.656C355.231 741.656 355.413 741.731 355.551 741.88C355.701 742.019 355.775 742.195 355.775 742.408C355.775 742.632 355.701 742.819 355.551 742.968C355.413 743.107 355.231 743.176 355.007 743.176C354.794 743.176 354.613 743.101 354.463 742.952C354.314 742.803 354.239 742.621 354.239 742.408C354.239 742.195 354.314 742.019 354.463 741.88C354.613 741.731 354.794 741.656 355.007 741.656Z" fill="#CDCDCD"/>
<rect width="350" height="29" transform="translate(20 475)" fill="#EDF2F3"/>
<rect width="350" height="29" transform="translate(20 300)" fill="#EDF2F3"/>
<rect x="20.25" y="337.25" width="166.5" height="40.5" fill="#CDCDCD"/>
<rect x="20.25" y="337.25" width="166.5" height="40.5" stroke="#AEAEAE" stroke-width="0.5"/>
<rect x="203.25" y="337.25" width="166.5" height="40.5" fill="#CDCDCD"/>
<rect x="203.25" y="337.25" width="166.5" height="40.5" stroke="#AEAEAE" stroke-width="0.5"/>
<rect x="20.25" y="394.25" width="166.5" height="40.5" fill="#CDCDCD"/>
<rect x="20.25" y="394.25" width="166.5" height="40.5" stroke="#AEAEAE" stroke-width="0.5"/>
<rect x="203.25" y="394.25" width="166.5" height="40.5" fill="#CDCDCD"/>
<rect x="203.25" y="394.25" width="166.5" height="40.5" stroke="#AEAEAE" stroke-width="0.5"/>
<rect x="20" y="264" width="76" height="4" fill="#CDCDCD"/>
<rect x="112" y="264" width="75" height="4" fill="#CDCDCD"/>
<rect x="203" y="264" width="76" height="4" fill="#CDCDCD"/>
<rect x="295" y="264" width="75" height="4" fill="#CDCDCD"/>
<rect width="389" height="256" fill="#CDCDCD"/>
<rect width="389" height="256" fill="#CDCDCD"/>
<path d="M43.584 205.728C43.584 206.304 43.496 206.872 43.32 207.432C43.16 207.992 42.88 208.496 42.48 208.944C42.096 209.376 41.576 209.728 40.92 210C40.28 210.256 39.48 210.384 38.52 210.384C36.92 210.384 35.688 209.968 34.824 209.136C33.96 208.288 33.528 207.048 33.528 205.416V204.36H35.808V205.08C35.808 205.576 35.848 206.032 35.928 206.448C36.008 206.864 36.144 207.224 36.336 207.528C36.544 207.832 36.824 208.072 37.176 208.248C37.544 208.408 38.008 208.488 38.568 208.488C39.608 208.488 40.32 208.208 40.704 207.648C41.104 207.088 41.304 206.336 41.304 205.392V192.864H43.584V205.728ZM57.9733 209.952C57.6213 210.16 57.1333 210.264 56.5093 210.264C55.9813 210.264 55.5573 210.12 55.2373 209.832C54.9333 209.528 54.7813 209.04 54.7813 208.368C54.2213 209.04 53.5653 209.528 52.8133 209.832C52.0773 210.12 51.2773 210.264 50.4133 210.264C49.8533 210.264 49.3173 210.2 48.8053 210.072C48.3093 209.944 47.8773 209.744 47.5093 209.472C47.1413 209.2 46.8453 208.848 46.6213 208.416C46.4133 207.968 46.3093 207.432 46.3093 206.808C46.3093 206.104 46.4293 205.528 46.6693 205.08C46.9093 204.632 47.2213 204.272 47.6053 204C48.0053 203.712 48.4533 203.496 48.9493 203.352C49.4613 203.208 49.9813 203.088 50.5093 202.992C51.0693 202.88 51.5973 202.8 52.0933 202.752C52.6053 202.688 53.0533 202.608 53.4373 202.512C53.8213 202.4 54.1253 202.248 54.3493 202.056C54.5733 201.848 54.6853 201.552 54.6853 201.168C54.6853 200.72 54.5973 200.36 54.4213 200.088C54.2613 199.816 54.0453 199.608 53.7733 199.464C53.5173 199.32 53.2213 199.224 52.8853 199.176C52.5653 199.128 52.2453 199.104 51.9253 199.104C51.0613 199.104 50.3413 199.272 49.7653 199.608C49.1893 199.928 48.8773 200.544 48.8293 201.456H46.7893C46.8213 200.688 46.9813 200.04 47.2693 199.512C47.5573 198.984 47.9413 198.56 48.4213 198.24C48.9013 197.904 49.4453 197.664 50.0533 197.52C50.6773 197.376 51.3413 197.304 52.0453 197.304C52.6053 197.304 53.1573 197.344 53.7013 197.424C54.2613 197.504 54.7653 197.672 55.2133 197.928C55.6613 198.168 56.0213 198.512 56.2933 198.96C56.5653 199.408 56.7013 199.992 56.7013 200.712V207.096C56.7013 207.576 56.7253 207.928 56.7733 208.152C56.8373 208.376 57.0293 208.488 57.3493 208.488C57.5253 208.488 57.7333 208.448 57.9733 208.368V209.952ZM54.6613 203.592C54.4053 203.784 54.0693 203.928 53.6533 204.024C53.2373 204.104 52.7973 204.176 52.3333 204.24C51.8853 204.288 51.4293 204.352 50.9653 204.432C50.5013 204.496 50.0853 204.608 49.7173 204.768C49.3493 204.928 49.0453 205.16 48.8053 205.464C48.5813 205.752 48.4693 206.152 48.4693 206.664C48.4693 207 48.5333 207.288 48.6613 207.528C48.8053 207.752 48.9813 207.936 49.1893 208.08C49.4133 208.224 49.6693 208.328 49.9573 208.392C50.2453 208.456 50.5493 208.488 50.8693 208.488C51.5413 208.488 52.1173 208.4 52.5973 208.224C53.0773 208.032 53.4693 207.8 53.7733 207.528C54.0773 207.24 54.3013 206.936 54.4453 206.616C54.5893 206.28 54.6613 205.968 54.6613 205.68V203.592ZM59.9439 197.592H61.9839V199.272H62.0319C62.3679 198.584 62.8959 198.088 63.6159 197.784C64.3359 197.464 65.1279 197.304 65.9919 197.304C66.9519 197.304 67.7839 197.48 68.4879 197.832C69.2079 198.184 69.7999 198.664 70.2639 199.272C70.7439 199.864 71.1039 200.552 71.3439 201.336C71.5839 202.12 71.7039 202.952 71.7039 203.832C71.7039 204.712 71.5839 205.544 71.3439 206.328C71.1199 207.112 70.7679 207.8 70.2879 208.392C69.8239 208.968 69.2319 209.424 68.5119 209.76C67.8079 210.096 66.9839 210.264 66.0399 210.264C65.7359 210.264 65.3919 210.232 65.0079 210.168C64.6399 210.104 64.2719 210 63.9039 209.856C63.5359 209.712 63.1839 209.52 62.8479 209.28C62.5279 209.024 62.2559 208.712 62.0319 208.344H61.9839V214.728H59.9439V197.592ZM69.5439 203.688C69.5439 203.112 69.4639 202.552 69.3039 202.008C69.1599 201.448 68.9279 200.952 68.6079 200.52C68.3039 200.088 67.9039 199.744 67.4079 199.488C66.9279 199.232 66.3599 199.104 65.7039 199.104C65.0159 199.104 64.4319 199.24 63.9519 199.512C63.4719 199.784 63.0799 200.144 62.7759 200.592C62.4719 201.024 62.2479 201.52 62.1039 202.08C61.9759 202.64 61.9119 203.208 61.9119 203.784C61.9119 204.392 61.9839 204.984 62.1279 205.56C62.2719 206.12 62.4959 206.616 62.7999 207.048C63.1199 207.48 63.5279 207.832 64.0239 208.104C64.5199 208.36 65.1199 208.488 65.8239 208.488C66.5279 208.488 67.1119 208.352 67.5759 208.08C68.0559 207.808 68.4399 207.448 68.7279 207C69.0159 206.552 69.2239 206.04 69.3519 205.464C69.4799 204.888 69.5439 204.296 69.5439 203.688ZM85.0905 209.952C84.7385 210.16 84.2505 210.264 83.6265 210.264C83.0985 210.264 82.6745 210.12 82.3545 209.832C82.0505 209.528 81.8985 209.04 81.8985 208.368C81.3385 209.04 80.6825 209.528 79.9305 209.832C79.1945 210.12 78.3945 210.264 77.5305 210.264C76.9705 210.264 76.4345 210.2 75.9225 210.072C75.4265 209.944 74.9945 209.744 74.6265 209.472C74.2585 209.2 73.9625 208.848 73.7385 208.416C73.5305 207.968 73.4265 207.432 73.4265 206.808C73.4265 206.104 73.5465 205.528 73.7865 205.08C74.0265 204.632 74.3385 204.272 74.7225 204C75.1225 203.712 75.5705 203.496 76.0665 203.352C76.5785 203.208 77.0985 203.088 77.6265 202.992C78.1865 202.88 78.7145 202.8 79.2105 202.752C79.7225 202.688 80.1705 202.608 80.5545 202.512C80.9385 202.4 81.2425 202.248 81.4665 202.056C81.6905 201.848 81.8025 201.552 81.8025 201.168C81.8025 200.72 81.7145 200.36 81.5385 200.088C81.3785 199.816 81.1625 199.608 80.8905 199.464C80.6345 199.32 80.3385 199.224 80.0025 199.176C79.6825 199.128 79.3625 199.104 79.0425 199.104C78.1785 199.104 77.4585 199.272 76.8825 199.608C76.3065 199.928 75.9945 200.544 75.9465 201.456H73.9065C73.9385 200.688 74.0985 200.04 74.3865 199.512C74.6745 198.984 75.0585 198.56 75.5385 198.24C76.0185 197.904 76.5625 197.664 77.1705 197.52C77.7945 197.376 78.4585 197.304 79.1625 197.304C79.7225 197.304 80.2745 197.344 80.8185 197.424C81.3785 197.504 81.8825 197.672 82.3305 197.928C82.7785 198.168 83.1385 198.512 83.4105 198.96C83.6825 199.408 83.8185 199.992 83.8185 200.712V207.096C83.8185 207.576 83.8425 207.928 83.8905 208.152C83.9545 208.376 84.1465 208.488 84.4665 208.488C84.6425 208.488 84.8505 208.448 85.0905 208.368V209.952ZM81.7785 203.592C81.5225 203.784 81.1865 203.928 80.7705 204.024C80.3545 204.104 79.9145 204.176 79.4505 204.24C79.0025 204.288 78.5465 204.352 78.0825 204.432C77.6185 204.496 77.2025 204.608 76.8345 204.768C76.4665 204.928 76.1625 205.16 75.9225 205.464C75.6985 205.752 75.5865 206.152 75.5865 206.664C75.5865 207 75.6505 207.288 75.7785 207.528C75.9225 207.752 76.0985 207.936 76.3065 208.08C76.5305 208.224 76.7865 208.328 77.0745 208.392C77.3625 208.456 77.6665 208.488 77.9865 208.488C78.6585 208.488 79.2345 208.4 79.7145 208.224C80.1945 208.032 80.5865 207.8 80.8905 207.528C81.1945 207.24 81.4185 206.936 81.5625 206.616C81.7065 206.28 81.7785 205.968 81.7785 205.68V203.592ZM86.9891 197.592H88.9091V199.56H88.9571C89.8051 198.056 91.1491 197.304 92.9891 197.304C93.8051 197.304 94.4851 197.416 95.0291 197.64C95.5731 197.864 96.0131 198.176 96.3491 198.576C96.6851 198.976 96.9171 199.456 97.0451 200.016C97.1891 200.56 97.2611 201.168 97.2611 201.84V210H95.2211V201.6C95.2211 200.832 94.9971 200.224 94.5491 199.776C94.1011 199.328 93.4851 199.104 92.7011 199.104C92.0771 199.104 91.5331 199.2 91.0691 199.392C90.6211 199.584 90.2451 199.856 89.9411 200.208C89.6371 200.56 89.4051 200.976 89.2451 201.456C89.1011 201.92 89.0291 202.432 89.0291 202.992V210H86.9891V197.592ZM108.941 202.608C108.909 202.128 108.797 201.672 108.605 201.24C108.429 200.808 108.181 200.44 107.861 200.136C107.557 199.816 107.189 199.568 106.757 199.392C106.341 199.2 105.877 199.104 105.365 199.104C104.837 199.104 104.357 199.2 103.925 199.392C103.509 199.568 103.149 199.816 102.845 200.136C102.541 200.456 102.301 200.832 102.125 201.264C101.949 201.68 101.845 202.128 101.813 202.608H108.941ZM110.909 206.064C110.637 207.456 110.037 208.504 109.109 209.208C108.181 209.912 107.013 210.264 105.605 210.264C104.613 210.264 103.749 210.104 103.013 209.784C102.293 209.464 101.685 209.016 101.189 208.44C100.693 207.864 100.317 207.176 100.061 206.376C99.8211 205.576 99.6851 204.704 99.6531 203.76C99.6531 202.816 99.7971 201.952 100.085 201.168C100.373 200.384 100.773 199.704 101.285 199.128C101.813 198.552 102.429 198.104 103.133 197.784C103.853 197.464 104.637 197.304 105.485 197.304C106.589 197.304 107.501 197.536 108.221 198C108.957 198.448 109.541 199.024 109.973 199.728C110.421 200.432 110.725 201.2 110.885 202.032C111.061 202.864 111.133 203.656 111.101 204.408H101.813C101.797 204.952 101.861 205.472 102.005 205.968C102.149 206.448 102.381 206.88 102.701 207.264C103.021 207.632 103.429 207.928 103.925 208.152C104.421 208.376 105.005 208.488 105.677 208.488C106.541 208.488 107.245 208.288 107.789 207.888C108.349 207.488 108.717 206.88 108.893 206.064H110.909ZM114.464 206.088C114.48 206.536 114.584 206.92 114.776 207.24C114.968 207.544 115.216 207.792 115.52 207.984C115.84 208.16 116.192 208.288 116.576 208.368C116.976 208.448 117.384 208.488 117.8 208.488C118.12 208.488 118.456 208.464 118.808 208.416C119.16 208.368 119.48 208.28 119.768 208.152C120.072 208.024 120.32 207.84 120.512 207.6C120.704 207.344 120.8 207.024 120.8 206.64C120.8 206.112 120.6 205.712 120.2 205.44C119.8 205.168 119.296 204.952 118.688 204.792C118.096 204.616 117.448 204.464 116.744 204.336C116.04 204.192 115.384 204 114.776 203.76C114.184 203.504 113.688 203.152 113.288 202.704C112.888 202.256 112.688 201.632 112.688 200.832C112.688 200.208 112.824 199.672 113.096 199.224C113.384 198.776 113.744 198.416 114.176 198.144C114.624 197.856 115.12 197.648 115.664 197.52C116.224 197.376 116.776 197.304 117.32 197.304C118.024 197.304 118.672 197.368 119.264 197.496C119.856 197.608 120.376 197.816 120.824 198.12C121.288 198.408 121.656 198.808 121.928 199.32C122.2 199.816 122.36 200.44 122.408 201.192H120.368C120.336 200.792 120.232 200.464 120.056 200.208C119.88 199.936 119.656 199.72 119.384 199.56C119.112 199.4 118.808 199.288 118.472 199.224C118.152 199.144 117.824 199.104 117.488 199.104C117.184 199.104 116.872 199.128 116.552 199.176C116.248 199.224 115.968 199.312 115.712 199.44C115.456 199.552 115.248 199.712 115.088 199.92C114.928 200.112 114.848 200.368 114.848 200.688C114.848 201.04 114.968 201.336 115.208 201.576C115.464 201.8 115.784 201.992 116.168 202.152C116.552 202.296 116.984 202.424 117.464 202.536C117.944 202.632 118.424 202.736 118.904 202.848C119.416 202.96 119.912 203.096 120.392 203.256C120.888 203.416 121.32 203.632 121.688 203.904C122.072 204.16 122.376 204.488 122.6 204.888C122.84 205.288 122.96 205.784 122.96 206.376C122.96 207.128 122.8 207.752 122.48 208.248C122.176 208.744 121.768 209.144 121.256 209.448C120.76 209.752 120.192 209.96 119.552 210.072C118.928 210.2 118.304 210.264 117.68 210.264C116.992 210.264 116.336 210.192 115.712 210.048C115.088 209.904 114.536 209.672 114.056 209.352C113.576 209.016 113.192 208.584 112.904 208.056C112.616 207.512 112.456 206.856 112.424 206.088H114.464ZM133.832 202.608C133.8 202.128 133.688 201.672 133.496 201.24C133.32 200.808 133.072 200.44 132.752 200.136C132.448 199.816 132.08 199.568 131.648 199.392C131.232 199.2 130.768 199.104 130.256 199.104C129.728 199.104 129.248 199.2 128.816 199.392C128.4 199.568 128.04 199.816 127.736 200.136C127.432 200.456 127.192 200.832 127.016 201.264C126.84 201.68 126.736 202.128 126.704 202.608H133.832ZM135.8 206.064C135.528 207.456 134.928 208.504 134 209.208C133.072 209.912 131.904 210.264 130.496 210.264C129.504 210.264 128.64 210.104 127.904 209.784C127.184 209.464 126.576 209.016 126.08 208.44C125.584 207.864 125.208 207.176 124.952 206.376C124.712 205.576 124.576 204.704 124.544 203.76C124.544 202.816 124.688 201.952 124.976 201.168C125.264 200.384 125.664 199.704 126.176 199.128C126.704 198.552 127.32 198.104 128.024 197.784C128.744 197.464 129.528 197.304 130.376 197.304C131.48 197.304 132.392 197.536 133.112 198C133.848 198.448 134.432 199.024 134.864 199.728C135.312 200.432 135.616 201.2 135.776 202.032C135.952 202.864 136.024 203.656 135.992 204.408H126.704C126.688 204.952 126.752 205.472 126.896 205.968C127.04 206.448 127.272 206.88 127.592 207.264C127.912 207.632 128.32 207.928 128.816 208.152C129.312 208.376 129.896 208.488 130.568 208.488C131.432 208.488 132.136 208.288 132.68 207.888C133.24 207.488 133.608 206.88 133.784 206.064H135.8ZM153.21 201.576C153.05 200.792 152.714 200.184 152.202 199.752C151.69 199.32 151.002 199.104 150.138 199.104C149.402 199.104 148.786 199.24 148.29 199.512C147.794 199.784 147.394 200.144 147.09 200.592C146.802 201.04 146.594 201.56 146.466 202.152C146.338 202.728 146.274 203.328 146.274 203.952C146.274 204.528 146.338 205.088 146.466 205.632C146.61 206.176 146.826 206.664 147.114 207.096C147.402 207.512 147.778 207.848 148.242 208.104C148.706 208.36 149.258 208.488 149.898 208.488C150.906 208.488 151.69 208.224 152.25 207.696C152.826 207.168 153.178 206.424 153.306 205.464H155.394C155.17 207 154.594 208.184 153.666 209.016C152.754 209.848 151.506 210.264 149.922 210.264C148.978 210.264 148.138 210.112 147.402 209.808C146.682 209.504 146.074 209.072 145.578 208.512C145.098 207.952 144.73 207.288 144.474 206.52C144.234 205.736 144.114 204.88 144.114 203.952C144.114 203.024 144.234 202.16 144.474 201.36C144.714 200.544 145.074 199.84 145.554 199.248C146.05 198.64 146.666 198.168 147.402 197.832C148.138 197.48 148.994 197.304 149.97 197.304C150.674 197.304 151.33 197.392 151.938 197.568C152.562 197.728 153.106 197.984 153.57 198.336C154.05 198.688 154.442 199.136 154.746 199.68C155.05 200.208 155.242 200.84 155.322 201.576H153.21ZM159.837 195.36H157.797V192.864H159.837V195.36ZM157.797 197.592H159.837V210H157.797V197.592ZM165.829 197.592H168.301V199.392H165.829V207.096C165.829 207.336 165.845 207.528 165.877 207.672C165.925 207.816 166.005 207.928 166.117 208.008C166.229 208.088 166.381 208.144 166.573 208.176C166.781 208.192 167.045 208.2 167.365 208.2H168.301V210H166.741C166.213 210 165.757 209.968 165.373 209.904C165.005 209.824 164.701 209.688 164.461 209.496C164.237 209.304 164.069 209.032 163.957 208.68C163.845 208.328 163.789 207.864 163.789 207.288V199.392H161.677V197.592H163.789V193.872H165.829V197.592ZM175.439 211.656C175.199 212.264 174.959 212.776 174.719 213.192C174.495 213.608 174.239 213.944 173.951 214.2C173.679 214.472 173.367 214.664 173.015 214.776C172.679 214.904 172.287 214.968 171.839 214.968C171.599 214.968 171.359 214.952 171.119 214.92C170.879 214.888 170.647 214.832 170.423 214.752V212.88C170.599 212.96 170.799 213.024 171.023 213.072C171.263 213.136 171.463 213.168 171.623 213.168C172.039 213.168 172.383 213.064 172.655 212.856C172.943 212.664 173.159 212.384 173.303 212.016L174.143 209.928L169.223 197.592H171.527L175.151 207.744H175.199L178.679 197.592H180.839L175.439 211.656ZM189.319 197.592H191.359V199.272H191.407C191.743 198.584 192.271 198.088 192.991 197.784C193.711 197.464 194.503 197.304 195.367 197.304C196.327 197.304 197.159 197.48 197.863 197.832C198.583 198.184 199.175 198.664 199.639 199.272C200.119 199.864 200.479 200.552 200.719 201.336C200.959 202.12 201.079 202.952 201.079 203.832C201.079 204.712 200.959 205.544 200.719 206.328C200.495 207.112 200.143 207.8 199.663 208.392C199.199 208.968 198.607 209.424 197.887 209.76C197.183 210.096 196.359 210.264 195.415 210.264C195.111 210.264 194.767 210.232 194.383 210.168C194.015 210.104 193.647 210 193.279 209.856C192.911 209.712 192.559 209.52 192.223 209.28C191.903 209.024 191.631 208.712 191.407 208.344H191.359V214.728H189.319V197.592ZM198.919 203.688C198.919 203.112 198.839 202.552 198.679 202.008C198.535 201.448 198.303 200.952 197.983 200.52C197.679 200.088 197.279 199.744 196.783 199.488C196.303 199.232 195.735 199.104 195.079 199.104C194.391 199.104 193.807 199.24 193.327 199.512C192.847 199.784 192.455 200.144 192.151 200.592C191.847 201.024 191.623 201.52 191.479 202.08C191.351 202.64 191.287 203.208 191.287 203.784C191.287 204.392 191.359 204.984 191.503 205.56C191.647 206.12 191.871 206.616 192.175 207.048C192.495 207.48 192.903 207.832 193.399 208.104C193.895 208.36 194.495 208.488 195.199 208.488C195.903 208.488 196.487 208.352 196.951 208.08C197.431 207.808 197.815 207.448 198.103 207C198.391 206.552 198.599 206.04 198.727 205.464C198.855 204.888 198.919 204.296 198.919 203.688ZM204.962 203.808C204.962 204.56 205.058 205.232 205.25 205.824C205.458 206.4 205.738 206.888 206.09 207.288C206.442 207.672 206.85 207.968 207.314 208.176C207.794 208.384 208.298 208.488 208.826 208.488C209.354 208.488 209.85 208.384 210.314 208.176C210.794 207.968 211.21 207.672 211.562 207.288C211.914 206.888 212.186 206.4 212.378 205.824C212.586 205.232 212.69 204.56 212.69 203.808C212.69 203.056 212.586 202.392 212.378 201.816C212.186 201.224 211.914 200.728 211.562 200.328C211.21 199.928 210.794 199.624 210.314 199.416C209.85 199.208 209.354 199.104 208.826 199.104C208.298 199.104 207.794 199.208 207.314 199.416C206.85 199.624 206.442 199.928 206.09 200.328C205.738 200.728 205.458 201.224 205.25 201.816C205.058 202.392 204.962 203.056 204.962 203.808ZM202.802 203.808C202.802 202.896 202.93 202.048 203.186 201.264C203.442 200.464 203.826 199.776 204.338 199.2C204.85 198.608 205.482 198.144 206.234 197.808C206.986 197.472 207.85 197.304 208.826 197.304C209.818 197.304 210.682 197.472 211.418 197.808C212.17 198.144 212.802 198.608 213.314 199.2C213.826 199.776 214.21 200.464 214.466 201.264C214.722 202.048 214.85 202.896 214.85 203.808C214.85 204.72 214.722 205.568 214.466 206.352C214.21 207.136 213.826 207.824 213.314 208.416C212.802 208.992 212.17 209.448 211.418 209.784C210.682 210.104 209.818 210.264 208.826 210.264C207.85 210.264 206.986 210.104 206.234 209.784C205.482 209.448 204.85 208.992 204.338 208.416C203.826 207.824 203.442 207.136 203.186 206.352C202.93 205.568 202.802 204.72 202.802 203.808ZM217.327 197.592H219.367V199.272H219.415C219.751 198.584 220.279 198.088 220.999 197.784C221.719 197.464 222.511 197.304 223.375 197.304C224.335 197.304 225.167 197.48 225.871 197.832C226.591 198.184 227.183 198.664 227.647 199.272C228.127 199.864 228.487 200.552 228.727 201.336C228.967 202.12 229.087 202.952 229.087 203.832C229.087 204.712 228.967 205.544 228.727 206.328C228.503 207.112 228.151 207.8 227.671 208.392C227.207 208.968 226.615 209.424 225.895 209.76C225.191 210.096 224.367 210.264 223.423 210.264C223.119 210.264 222.775 210.232 222.391 210.168C222.023 210.104 221.655 210 221.287 209.856C220.919 209.712 220.567 209.52 220.231 209.28C219.911 209.024 219.639 208.712 219.415 208.344H219.367V214.728H217.327V197.592ZM226.927 203.688C226.927 203.112 226.847 202.552 226.687 202.008C226.543 201.448 226.311 200.952 225.991 200.52C225.687 200.088 225.287 199.744 224.791 199.488C224.311 199.232 223.743 199.104 223.087 199.104C222.399 199.104 221.815 199.24 221.335 199.512C220.855 199.784 220.463 200.144 220.159 200.592C219.855 201.024 219.631 201.52 219.487 202.08C219.359 202.64 219.295 203.208 219.295 203.784C219.295 204.392 219.367 204.984 219.511 205.56C219.655 206.12 219.879 206.616 220.183 207.048C220.503 207.48 220.911 207.832 221.407 208.104C221.903 208.36 222.503 208.488 223.207 208.488C223.911 208.488 224.495 208.352 224.959 208.08C225.439 207.808 225.823 207.448 226.111 207C226.399 206.552 226.607 206.04 226.735 205.464C226.863 204.888 226.927 204.296 226.927 203.688Z" fill="#CDCDCD"/>
<path d="M38.392 230.368C39.2133 230.699 39.8107 231.088 40.184 231.536C40.568 231.973 40.76 232.539 40.76 233.232C40.76 233.819 40.6107 234.336 40.312 234.784C40.024 235.221 39.6133 235.563 39.08 235.808C38.5573 236.053 37.9547 236.176 37.272 236.176C36.5893 236.176 35.9867 236.053 35.464 235.808C34.952 235.563 34.552 235.221 34.264 234.784C33.9867 234.336 33.848 233.824 33.848 233.248C33.848 231.883 34.6107 230.896 36.136 230.288C35.5067 230 35.0427 229.669 34.744 229.296C34.456 228.912 34.312 228.427 34.312 227.84C34.312 227.296 34.4507 226.821 34.728 226.416C35.0053 226.011 35.3733 225.707 35.832 225.504C36.2907 225.291 36.7813 225.184 37.304 225.184C37.8267 225.184 38.3173 225.285 38.776 225.488C39.2347 225.691 39.6027 225.989 39.88 226.384C40.168 226.779 40.312 227.259 40.312 227.824C40.312 228.379 40.1573 228.859 39.848 229.264C39.5387 229.659 39.0533 230.027 38.392 230.368ZM35.24 227.856C35.24 228.368 35.384 228.773 35.672 229.072C35.9707 229.371 36.4827 229.653 37.208 229.92L37.704 230.096C38.3013 229.776 38.728 229.445 38.984 229.104C39.2507 228.763 39.384 228.347 39.384 227.856C39.384 227.248 39.192 226.773 38.808 226.432C38.4347 226.091 37.9333 225.92 37.304 225.92C36.696 225.92 36.2 226.091 35.816 226.432C35.432 226.773 35.24 227.248 35.24 227.856ZM37.288 235.392C38.0453 235.392 38.648 235.205 39.096 234.832C39.5547 234.448 39.784 233.915 39.784 233.232C39.784 232.805 39.704 232.453 39.544 232.176C39.384 231.888 39.1387 231.643 38.808 231.44C38.4773 231.227 38.0133 231.008 37.416 230.784L36.872 230.576C36.1573 230.853 35.6347 231.211 35.304 231.648C34.984 232.075 34.824 232.608 34.824 233.248C34.824 233.931 35.048 234.459 35.496 234.832C35.944 235.205 36.5413 235.392 37.288 235.392ZM46.0094 225.184C47.108 225.184 47.94 225.653 48.5054 226.592C49.0707 227.52 49.3534 228.885 49.3534 230.688C49.3534 232.48 49.0654 233.845 48.4894 234.784C47.924 235.712 47.0974 236.176 46.0094 236.176C44.9107 236.176 44.0787 235.712 43.5134 234.784C42.948 233.845 42.6654 232.475 42.6654 230.672C42.6654 228.869 42.948 227.504 43.5134 226.576C44.0787 225.648 44.9107 225.184 46.0094 225.184ZM46.0094 225.952C44.42 225.952 43.6254 227.525 43.6254 230.672C43.6254 233.829 44.42 235.408 46.0094 235.408C46.788 235.408 47.3747 235.024 47.7694 234.256C48.1747 233.488 48.3774 232.299 48.3774 230.688C48.3774 229.077 48.1747 227.888 47.7694 227.12C47.3747 226.341 46.788 225.952 46.0094 225.952ZM54.1503 227.456C54.6729 227.456 55.1476 227.536 55.5743 227.696C56.0009 227.845 56.4169 228.075 56.8223 228.384L56.3903 228.992C56.0063 228.725 55.6436 228.533 55.3023 228.416C54.9609 228.288 54.5876 228.224 54.1823 228.224C53.6276 228.224 53.1796 228.352 52.8383 228.608C52.4969 228.864 52.3263 229.205 52.3263 229.632C52.3263 230.037 52.4703 230.352 52.7582 230.576C53.0569 230.8 53.5903 231.013 54.3583 231.216C55.3076 231.461 55.9903 231.771 56.4063 232.144C56.8329 232.517 57.0463 233.051 57.0463 233.744C57.0463 234.491 56.7583 235.083 56.1823 235.52C55.6063 235.957 54.8863 236.176 54.0223 236.176C53.3823 236.176 52.8223 236.085 52.3423 235.904C51.8623 235.712 51.4249 235.445 51.0303 235.104L51.5423 234.512C51.9156 234.811 52.2943 235.035 52.6783 235.184C53.0729 235.323 53.5156 235.392 54.0063 235.392C54.6249 235.392 55.1209 235.253 55.4943 234.976C55.8783 234.688 56.0703 234.293 56.0703 233.792C56.0703 233.451 56.0063 233.173 55.8783 232.96C55.7503 232.747 55.5316 232.565 55.2223 232.416C54.9129 232.256 54.4596 232.096 53.8623 231.936C52.9769 231.701 52.3369 231.408 51.9423 231.056C51.5583 230.704 51.3663 230.235 51.3663 229.648C51.3663 229.232 51.4889 228.859 51.7343 228.528C51.9796 228.187 52.3103 227.925 52.7263 227.744C53.1529 227.552 53.6276 227.456 54.1503 227.456ZM58.7599 231.392V230.592H62.9999V231.392H58.7599ZM67.8378 227.456C68.3604 227.456 68.8351 227.536 69.2618 227.696C69.6884 227.845 70.1044 228.075 70.5098 228.384L70.0778 228.992C69.6938 228.725 69.3311 228.533 68.9898 228.416C68.6484 228.288 68.2751 228.224 67.8698 228.224C67.3151 228.224 66.8671 228.352 66.5258 228.608C66.1844 228.864 66.0138 229.205 66.0138 229.632C66.0138 230.037 66.1578 230.352 66.4457 230.576C66.7444 230.8 67.2778 231.013 68.0458 231.216C68.9951 231.461 69.6778 231.771 70.0938 232.144C70.5204 232.517 70.7338 233.051 70.7338 233.744C70.7338 234.491 70.4458 235.083 69.8698 235.52C69.2938 235.957 68.5738 236.176 67.7098 236.176C67.0698 236.176 66.5098 236.085 66.0298 235.904C65.5498 235.712 65.1124 235.445 64.7178 235.104L65.2298 234.512C65.6031 234.811 65.9818 235.035 66.3658 235.184C66.7604 235.323 67.2031 235.392 67.6938 235.392C68.3124 235.392 68.8084 235.253 69.1818 234.976C69.5658 234.688 69.7578 234.293 69.7578 233.792C69.7578 233.451 69.6938 233.173 69.5658 232.96C69.4378 232.747 69.2191 232.565 68.9098 232.416C68.6004 232.256 68.1471 232.096 67.5498 231.936C66.6644 231.701 66.0244 231.408 65.6298 231.056C65.2458 230.704 65.0538 230.235 65.0538 229.648C65.0538 229.232 65.1764 228.859 65.4218 228.528C65.6671 228.187 65.9978 227.925 66.4138 227.744C66.8404 227.552 67.3151 227.456 67.8378 227.456ZM77.0196 235.648C76.4863 236 75.8996 236.176 75.2596 236.176C74.6196 236.176 74.1183 235.989 73.7556 235.616C73.393 235.232 73.2116 234.683 73.2116 233.968V228.384H71.8036V227.632H73.2116V225.632L74.1396 225.52V227.632H76.2996L76.1876 228.384H74.1396V233.92C74.1396 234.411 74.241 234.779 74.4436 235.024C74.6463 235.259 74.9556 235.376 75.3716 235.376C75.7983 235.376 76.225 235.253 76.6516 235.008L77.0196 235.648ZM81.2586 236.032C81.0346 236.683 80.7893 237.216 80.5226 237.632C80.256 238.048 79.9093 238.389 79.4826 238.656C79.056 238.933 78.5066 239.136 77.8346 239.264L77.7386 238.544C78.2933 238.405 78.7253 238.235 79.0346 238.032C79.3546 237.829 79.6053 237.573 79.7866 237.264C79.9786 236.965 80.1706 236.544 80.3626 236H80.0426L77.1306 227.632H78.1386L80.6666 235.312L83.1466 227.632H84.1226L81.2586 236.032ZM87.463 236.176C87.0043 236.176 86.6417 236.043 86.375 235.776C86.119 235.509 85.991 235.115 85.991 234.592V224.224L86.919 224.112V234.56C86.919 235.104 87.143 235.376 87.591 235.376C87.815 235.376 88.007 235.339 88.167 235.264L88.423 235.952C88.1243 236.101 87.8043 236.176 87.463 236.176ZM96.4758 231.504C96.4758 231.739 96.4651 231.963 96.4438 232.176H90.8598C90.9131 233.264 91.1691 234.075 91.6278 234.608C92.0971 235.131 92.7104 235.392 93.4678 235.392C93.9051 235.392 94.2891 235.328 94.6198 235.2C94.9611 235.061 95.3291 234.848 95.7238 234.56L96.1558 235.152C95.7398 235.493 95.3131 235.749 94.8758 235.92C94.4384 236.091 93.9531 236.176 93.4198 236.176C92.3104 236.176 91.4411 235.797 90.8118 235.04C90.1824 234.283 89.8678 233.232 89.8678 231.888C89.8678 231.003 90.0011 230.229 90.2678 229.568C90.5451 228.896 90.9344 228.379 91.4358 228.016C91.9478 227.643 92.5398 227.456 93.2118 227.456C94.2784 227.456 95.0891 227.819 95.6438 228.544C96.1984 229.259 96.4758 230.245 96.4758 231.504ZM95.5638 231.216C95.5638 230.277 95.3664 229.547 94.9718 229.024C94.5878 228.491 94.0118 228.224 93.2438 228.224C92.5504 228.224 91.9904 228.491 91.5638 229.024C91.1371 229.557 90.9024 230.368 90.8598 231.456H95.5638V231.216ZM111.747 227.456C112.419 227.456 112.947 227.685 113.331 228.144C113.725 228.603 113.923 229.227 113.923 230.016V236H112.995V230.144C112.995 229.483 112.867 228.997 112.611 228.688C112.365 228.368 112.019 228.208 111.571 228.208C111.101 228.208 110.68 228.357 110.307 228.656C109.933 228.955 109.571 229.381 109.219 229.936V236H108.291V230.144C108.291 229.483 108.163 228.997 107.907 228.688C107.661 228.368 107.315 228.208 106.867 228.208C106.387 228.208 105.96 228.357 105.587 228.656C105.213 228.955 104.856 229.381 104.515 229.936V236H103.587V227.632H104.387L104.467 229.056C104.787 228.555 105.165 228.165 105.603 227.888C106.04 227.6 106.52 227.456 107.043 227.456C107.576 227.456 108.024 227.605 108.387 227.904C108.749 228.192 108.995 228.597 109.123 229.12C109.453 228.597 109.837 228.192 110.275 227.904C110.723 227.605 111.213 227.456 111.747 227.456ZM123.099 236H122.299L122.251 234.512C121.59 235.621 120.678 236.176 119.515 236.176C118.758 236.176 118.171 235.957 117.755 235.52C117.35 235.072 117.147 234.437 117.147 233.616V227.632H118.075V233.52C118.075 234.171 118.209 234.651 118.475 234.96C118.753 235.259 119.169 235.408 119.723 235.408C120.694 235.408 121.51 234.837 122.171 233.696V227.632H123.099V236ZM128.541 227.456C129.064 227.456 129.538 227.536 129.965 227.696C130.392 227.845 130.808 228.075 131.213 228.384L130.781 228.992C130.397 228.725 130.034 228.533 129.693 228.416C129.352 228.288 128.978 228.224 128.573 228.224C128.018 228.224 127.57 228.352 127.229 228.608C126.888 228.864 126.717 229.205 126.717 229.632C126.717 230.037 126.861 230.352 127.149 230.576C127.448 230.8 127.981 231.013 128.749 231.216C129.698 231.461 130.381 231.771 130.797 232.144C131.224 232.517 131.437 233.051 131.437 233.744C131.437 234.491 131.149 235.083 130.573 235.52C129.997 235.957 129.277 236.176 128.413 236.176C127.773 236.176 127.213 236.085 126.733 235.904C126.253 235.712 125.816 235.445 125.421 235.104L125.933 234.512C126.306 234.811 126.685 235.035 127.069 235.184C127.464 235.323 127.906 235.392 128.397 235.392C129.016 235.392 129.512 235.253 129.885 234.976C130.269 234.688 130.461 234.293 130.461 233.792C130.461 233.451 130.397 233.173 130.269 232.96C130.141 232.747 129.922 232.565 129.613 232.416C129.304 232.256 128.85 232.096 128.253 231.936C127.368 231.701 126.728 231.408 126.333 231.056C125.949 230.704 125.757 230.235 125.757 229.648C125.757 229.232 125.88 228.859 126.125 228.528C126.37 228.187 126.701 227.925 127.117 227.744C127.544 227.552 128.018 227.456 128.541 227.456ZM134.843 227.632V236H133.915V227.632H134.843ZM134.363 223.952C134.576 223.952 134.747 224.016 134.875 224.144C135.003 224.272 135.067 224.432 135.067 224.624C135.067 224.816 135.003 224.976 134.875 225.104C134.747 225.232 134.576 225.296 134.363 225.296C134.16 225.296 133.995 225.232 133.867 225.104C133.739 224.976 133.675 224.816 133.675 224.624C133.675 224.432 133.739 224.272 133.867 224.144C133.995 224.016 134.16 223.952 134.363 223.952ZM141.091 227.456C141.571 227.456 141.998 227.525 142.371 227.664C142.745 227.792 143.107 228.005 143.459 228.304L142.995 228.912C142.718 228.688 142.43 228.523 142.131 228.416C141.843 228.309 141.513 228.256 141.139 228.256C140.35 228.256 139.721 228.565 139.251 229.184C138.782 229.792 138.547 230.683 138.547 231.856C138.547 233.019 138.777 233.893 139.235 234.48C139.705 235.067 140.334 235.36 141.123 235.36C141.497 235.36 141.833 235.301 142.131 235.184C142.441 235.067 142.75 234.891 143.059 234.656L143.507 235.28C142.803 235.877 142.003 236.176 141.107 236.176C140.393 236.176 139.769 236.005 139.235 235.664C138.702 235.323 138.286 234.832 137.987 234.192C137.699 233.541 137.555 232.768 137.555 231.872C137.555 230.987 137.699 230.213 137.987 229.552C138.286 228.88 138.702 228.363 139.235 228C139.769 227.637 140.387 227.456 141.091 227.456ZM153.636 227.456C154.607 227.456 155.359 227.829 155.892 228.576C156.425 229.323 156.692 230.389 156.692 231.776C156.692 233.131 156.409 234.203 155.844 234.992C155.289 235.781 154.511 236.176 153.508 236.176C153.007 236.176 152.548 236.064 152.132 235.84C151.727 235.616 151.385 235.317 151.108 234.944L151.012 236H150.196V224.224L151.124 224.112V228.8C151.785 227.904 152.623 227.456 153.636 227.456ZM153.332 235.408C154.089 235.408 154.671 235.104 155.076 234.496C155.492 233.877 155.7 232.971 155.7 231.776C155.7 229.408 154.948 228.224 153.444 228.224C152.943 228.224 152.511 228.352 152.148 228.608C151.785 228.853 151.444 229.205 151.124 229.664V234.064C151.391 234.48 151.711 234.811 152.084 235.056C152.457 235.291 152.873 235.408 153.332 235.408ZM160.885 236.176C160.426 236.176 160.064 236.043 159.797 235.776C159.541 235.509 159.413 235.115 159.413 234.592V224.224L160.341 224.112V234.56C160.341 235.104 160.565 235.376 161.013 235.376C161.237 235.376 161.429 235.339 161.589 235.264L161.845 235.952C161.546 236.101 161.226 236.176 160.885 236.176ZM169.898 231.504C169.898 231.739 169.887 231.963 169.866 232.176H164.282C164.335 233.264 164.591 234.075 165.05 234.608C165.519 235.131 166.132 235.392 166.89 235.392C167.327 235.392 167.711 235.328 168.042 235.2C168.383 235.061 168.751 234.848 169.146 234.56L169.578 235.152C169.162 235.493 168.735 235.749 168.298 235.92C167.86 236.091 167.375 236.176 166.842 236.176C165.732 236.176 164.863 235.797 164.234 235.04C163.604 234.283 163.29 233.232 163.29 231.888C163.29 231.003 163.423 230.229 163.69 229.568C163.967 228.896 164.356 228.379 164.858 228.016C165.37 227.643 165.962 227.456 166.634 227.456C167.7 227.456 168.511 227.819 169.066 228.544C169.62 229.259 169.898 230.245 169.898 231.504ZM168.986 231.216C168.986 230.277 168.788 229.547 168.394 229.024C168.01 228.491 167.434 228.224 166.666 228.224C165.972 228.224 165.412 228.491 164.986 229.024C164.559 229.557 164.324 230.368 164.282 231.456H168.986V231.216ZM176.236 227.456C176.993 227.456 177.569 227.68 177.964 228.128C178.369 228.576 178.572 229.205 178.572 230.016V236H177.644V230.144C177.644 229.472 177.51 228.981 177.244 228.672C176.977 228.363 176.582 228.208 176.06 228.208C175.526 228.208 175.052 228.357 174.636 228.656C174.23 228.944 173.841 229.371 173.468 229.936V236H172.54V227.632H173.34L173.436 229.056C173.777 228.555 174.182 228.165 174.652 227.888C175.121 227.6 175.649 227.456 176.236 227.456ZM187.852 224.224V236H187.052L186.94 234.72C186.364 235.691 185.526 236.176 184.428 236.176C183.457 236.176 182.689 235.792 182.124 235.024C181.569 234.245 181.292 233.189 181.292 231.856C181.292 230.992 181.42 230.229 181.676 229.568C181.942 228.907 182.321 228.389 182.812 228.016C183.313 227.643 183.9 227.456 184.572 227.456C185.521 227.456 186.305 227.835 186.924 228.592V224.112L187.852 224.224ZM184.572 235.408C185.105 235.408 185.553 235.28 185.916 235.024C186.289 234.768 186.625 234.379 186.924 233.856V229.488C186.326 228.645 185.596 228.224 184.732 228.224C183.974 228.224 183.372 228.539 182.924 229.168C182.486 229.797 182.273 230.688 182.284 231.84C182.284 232.992 182.486 233.877 182.892 234.496C183.297 235.104 183.857 235.408 184.572 235.408ZM192.171 227.632V236H191.243V227.632H192.171ZM191.691 223.952C191.904 223.952 192.075 224.016 192.203 224.144C192.331 224.272 192.395 224.432 192.395 224.624C192.395 224.816 192.331 224.976 192.203 225.104C192.075 225.232 191.904 225.296 191.691 225.296C191.488 225.296 191.323 225.232 191.195 225.104C191.067 224.976 191.003 224.816 191.003 224.624C191.003 224.432 191.067 224.272 191.195 224.144C191.323 224.016 191.488 223.952 191.691 223.952ZM199.251 227.456C200.009 227.456 200.585 227.68 200.979 228.128C201.385 228.576 201.587 229.205 201.587 230.016V236H200.659V230.144C200.659 229.472 200.526 228.981 200.259 228.672C199.993 228.363 199.598 228.208 199.075 228.208C198.542 228.208 198.067 228.357 197.651 228.656C197.246 228.944 196.857 229.371 196.483 229.936V236H195.555V227.632H196.355L196.451 229.056C196.793 228.555 197.198 228.165 197.667 227.888C198.137 227.6 198.665 227.456 199.251 227.456ZM211.123 227.808C210.611 227.947 209.838 228.027 208.803 228.048C209.752 228.496 210.227 229.253 210.227 230.32C210.227 231.141 209.955 231.808 209.411 232.32C208.867 232.821 208.131 233.072 207.203 233.072C206.787 233.072 206.424 233.019 206.115 232.912C205.912 233.029 205.752 233.173 205.635 233.344C205.528 233.504 205.475 233.68 205.475 233.872C205.475 234.448 205.918 234.736 206.803 234.736H208.163C208.984 234.736 209.635 234.939 210.115 235.344C210.606 235.739 210.851 236.251 210.851 236.88C210.851 237.648 210.547 238.24 209.939 238.656C209.331 239.072 208.424 239.28 207.219 239.28C205.971 239.28 205.075 239.088 204.531 238.704C203.998 238.331 203.731 237.723 203.731 236.88H204.595C204.606 237.285 204.691 237.605 204.851 237.84C205.011 238.075 205.278 238.245 205.651 238.352C206.024 238.459 206.547 238.512 207.219 238.512C208.158 238.512 208.84 238.373 209.267 238.096C209.694 237.829 209.907 237.44 209.907 236.928C209.907 236.48 209.742 236.139 209.411 235.904C209.08 235.659 208.616 235.536 208.019 235.536H206.659C205.998 235.536 205.486 235.397 205.123 235.12C204.771 234.843 204.595 234.491 204.595 234.064C204.595 233.787 204.675 233.525 204.835 233.28C204.995 233.035 205.219 232.821 205.507 232.64C205.027 232.395 204.67 232.08 204.435 231.696C204.211 231.312 204.099 230.843 204.099 230.288C204.099 229.445 204.382 228.763 204.947 228.24C205.512 227.717 206.254 227.456 207.171 227.456C208.184 227.467 208.92 227.429 209.379 227.344C209.848 227.259 210.334 227.115 210.835 226.912L211.123 227.808ZM207.171 228.176C206.478 228.176 205.95 228.368 205.587 228.752C205.235 229.136 205.059 229.648 205.059 230.288C205.059 230.949 205.246 231.467 205.619 231.84C206.003 232.213 206.52 232.4 207.171 232.4C207.854 232.4 208.376 232.219 208.739 231.856C209.102 231.483 209.283 230.965 209.283 230.304C209.283 229.632 209.102 229.109 208.739 228.736C208.387 228.363 207.864 228.176 207.171 228.176ZM219.879 224.88C219.399 224.88 219.036 224.992 218.791 225.216C218.556 225.44 218.439 225.797 218.439 226.288V227.632H220.647L220.519 228.384H218.439V236H217.511V228.384H216.055V227.632H217.511V226.256C217.511 225.595 217.713 225.072 218.119 224.688C218.535 224.304 219.105 224.112 219.831 224.112C220.481 224.112 221.132 224.261 221.783 224.56L221.463 225.248C220.908 225.003 220.38 224.88 219.879 224.88ZM228.427 236H227.627L227.579 234.512C226.918 235.621 226.006 236.176 224.843 236.176C224.086 236.176 223.499 235.957 223.083 235.52C222.678 235.072 222.475 234.437 222.475 233.616V227.632H223.403V233.52C223.403 234.171 223.537 234.651 223.803 234.96C224.081 235.259 224.497 235.408 225.051 235.408C226.022 235.408 226.838 234.837 227.499 233.696V227.632H228.427V236ZM235.517 227.456C236.274 227.456 236.85 227.68 237.245 228.128C237.65 228.576 237.853 229.205 237.853 230.016V236H236.925V230.144C236.925 229.472 236.792 228.981 236.525 228.672C236.258 228.363 235.864 228.208 235.341 228.208C234.808 228.208 234.333 228.357 233.917 228.656C233.512 228.944 233.122 229.371 232.749 229.936V236H231.821V227.632H232.621L232.717 229.056C233.058 228.555 233.464 228.165 233.933 227.888C234.402 227.6 234.93 227.456 235.517 227.456ZM242.093 224.112V236H241.165V224.224L242.093 224.112ZM246.781 227.632L243.261 231.376L247.149 236H246.029L242.189 231.424L245.709 227.632H246.781ZM248.961 234.656C249.185 234.656 249.366 234.731 249.505 234.88C249.654 235.019 249.729 235.195 249.729 235.408C249.729 235.643 249.649 235.936 249.489 236.288L248.593 238.416H247.921L248.561 236.064C248.443 236 248.353 235.909 248.289 235.792C248.225 235.675 248.193 235.547 248.193 235.408C248.193 235.195 248.267 235.019 248.417 234.88C248.566 234.731 248.747 234.656 248.961 234.656ZM257.718 235.696C257.718 236.421 257.638 236.997 257.478 237.424C257.318 237.861 257.083 238.208 256.774 238.464C256.464 238.731 256.027 238.992 255.462 239.248L255.19 238.576C255.595 238.373 255.904 238.171 256.118 237.968C256.342 237.776 256.507 237.504 256.614 237.152C256.731 236.811 256.79 236.336 256.79 235.728V227.632H257.718V235.696ZM257.238 223.952C257.451 223.952 257.622 224.016 257.75 224.144C257.878 224.272 257.942 224.432 257.942 224.624C257.942 224.816 257.878 224.976 257.75 225.104C257.622 225.232 257.451 225.296 257.238 225.296C257.035 225.296 256.87 225.232 256.742 225.104C256.614 224.976 256.55 224.816 256.55 224.624C256.55 224.432 256.614 224.272 256.742 224.144C256.87 224.016 257.035 223.952 257.238 223.952ZM266.302 234.144C266.302 234.581 266.356 234.896 266.462 235.088C266.58 235.28 266.761 235.424 267.006 235.52L266.798 236.176C266.414 236.101 266.116 235.957 265.902 235.744C265.7 235.531 265.566 235.205 265.502 234.768C264.926 235.707 264.057 236.176 262.894 236.176C262.094 236.176 261.46 235.952 260.99 235.504C260.532 235.045 260.302 234.437 260.302 233.68C260.302 232.816 260.606 232.149 261.214 231.68C261.833 231.211 262.686 230.976 263.774 230.976H265.374V230.16C265.374 229.488 265.225 229.003 264.926 228.704C264.628 228.395 264.132 228.24 263.438 228.24C262.798 228.24 262.041 228.4 261.166 228.72L260.926 228.016C261.865 227.643 262.745 227.456 263.566 227.456C265.39 227.456 266.302 228.341 266.302 230.112V234.144ZM263.054 235.424C264.057 235.424 264.83 234.933 265.374 233.952V231.648H263.918C263.065 231.648 262.414 231.813 261.966 232.144C261.518 232.475 261.294 232.971 261.294 233.632C261.294 234.208 261.449 234.651 261.758 234.96C262.068 235.269 262.5 235.424 263.054 235.424ZM274.192 227.632V228.352L269.52 235.2H274.16L274.064 236H268.432V235.28L273.104 228.432H268.816V227.632H274.192ZM280.942 227.632V228.352L276.27 235.2H280.91L280.814 236H275.182V235.28L279.854 228.432H275.566V227.632H280.942ZM286.508 234.656C286.732 234.656 286.914 234.731 287.052 234.88C287.202 235.019 287.276 235.195 287.276 235.408C287.276 235.632 287.202 235.819 287.052 235.968C286.914 236.107 286.732 236.176 286.508 236.176C286.295 236.176 286.114 236.101 285.964 235.952C285.815 235.803 285.74 235.621 285.74 235.408C285.74 235.195 285.815 235.019 285.964 234.88C286.114 234.731 286.295 234.656 286.508 234.656ZM289.868 234.672C290.092 234.672 290.274 234.747 290.412 234.896C290.562 235.035 290.636 235.211 290.636 235.424C290.636 235.648 290.562 235.835 290.412 235.984C290.274 236.123 290.092 236.192 289.868 236.192C289.655 236.192 289.474 236.117 289.324 235.968C289.175 235.819 289.1 235.637 289.1 235.424C289.1 235.211 289.175 235.035 289.324 234.896C289.474 234.747 289.655 234.672 289.868 234.672ZM283.132 234.656C283.356 234.656 283.538 234.731 283.676 234.88C283.826 235.019 283.9 235.195 283.9 235.408C283.9 235.632 283.826 235.819 283.676 235.968C283.538 236.107 283.356 236.176 283.132 236.176C282.919 236.176 282.738 236.101 282.588 235.952C282.439 235.803 282.364 235.621 282.364 235.408C282.364 235.195 282.439 235.019 282.588 234.88C282.738 234.731 282.919 234.656 283.132 234.656Z" fill="#CDCDCD"/>
<rect width="40" height="40" transform="translate(313 196)" fill="#111111"/>
<path d="M315.5 235.125L352.155 216L315.5 196.875V235.125Z" fill="#111111"/>
<rect width="390" height="56" transform="translate(0 724)" fill="#EDF2F3"/>
<rect y="724" width="96" height="56" fill="#111111"/>
<rect width="16" height="16" transform="translate(322 744)" fill="#111111"/>
<path d="M328 759V745H326V759H328ZM334 759V745H332V759H334Z" fill="#111111"/>
<rect width="390" height="64" transform="translate(0 780)" fill="#CDCDCD"/>
<rect width="16" height="16" transform="translate(50.5 804)" fill="#111111"/>
<path d="M50.5 812C50.5 809.878 51.3429 807.843 52.8431 806.343C54.3434 804.843 56.3783 804 58.5 804C60.6217 804 62.6566 804.843 64.1569 806.343C65.6571 807.843 66.5 809.878 66.5 812V820H62.5C61.9696 820 61.4609 819.789 61.0858 819.414C60.7107 819.039 60.5 818.53 60.5 818V814C60.5 813.47 60.7107 812.961 61.0858 812.586C61.4609 812.211 61.9696 812 62.5 812H64.5C64.5 810.409 63.8679 808.883 62.7426 807.757C61.6174 806.632 60.0913 806 58.5 806C56.9087 806 55.3826 806.632 54.2574 807.757C53.1321 808.883 52.5 810.409 52.5 812H54.5C55.0304 812 55.5391 812.211 55.9142 812.586C56.2893 812.961 56.5 813.47 56.5 814V818C56.5 818.53 56.2893 819.039 55.9142 819.414C55.5391 819.789 55.0304 820 54.5 820H50.5V812ZM52.5 814V818H54.5V814H52.5ZM64.5 814H62.5V818H64.5V814Z" fill="#111111"/>
<rect width="16" height="16" transform="translate(141.5 804)" fill="#111111"/>
<path d="M141.5 812C141.5 809.878 142.343 807.843 143.843 806.343C145.343 804.843 147.378 804 149.5 804C151.622 804 153.657 804.843 155.157 806.343C156.657 807.843 157.5 809.878 157.5 812C157.5 814.122 156.657 816.157 155.157 817.657C153.657 819.157 151.622 820 149.5 820C147.378 820 145.343 819.157 143.843 817.657C142.343 816.157 141.5 814.122 141.5 812ZM145.67 811C145.743 809.758 145.952 808.527 146.294 807.33L146.434 806.842C145.686 807.287 145.043 807.889 144.551 808.607C144.058 809.325 143.728 810.142 143.583 811H145.67ZM145.67 813H143.583C143.728 813.859 144.058 814.675 144.55 815.393C145.042 816.112 145.685 816.714 146.433 817.159L146.294 816.67C145.952 815.473 145.743 814.242 145.67 813ZM148.74 817.952C149.245 818.016 149.755 818.016 150.26 817.952L150.783 816.121C151.075 815.098 151.256 814.051 151.326 813H147.674C147.744 814.052 147.925 815.098 148.217 816.12L148.741 817.952H148.74ZM147.675 811H151.327C151.257 809.944 151.075 808.898 150.784 807.88L150.26 806.048C149.756 805.984 149.246 805.984 148.742 806.048L148.218 807.879C147.927 808.897 147.745 809.943 147.674 811H147.675ZM152.707 816.67L152.567 817.159C153.315 816.714 153.958 816.112 154.45 815.393C154.942 814.675 155.272 813.859 155.417 813H153.33C153.257 814.242 153.049 815.473 152.707 816.67ZM152.707 807.33C153.05 808.532 153.258 809.763 153.331 811H155.418C155.273 810.142 154.943 809.325 154.451 808.607C153.959 807.889 153.316 807.287 152.568 806.842L152.707 807.33Z" fill="#111111"/>
<rect width="16" height="16" transform="translate(232.5 804)" fill="#111111"/>
<path d="M239.5 806C238.174 806 236.902 806.527 235.964 807.464C235.027 808.402 234.5 809.674 234.5 811C234.5 812.326 235.027 813.598 235.964 814.536C236.902 815.473 238.174 816 239.5 816C240.826 816 242.098 815.473 243.036 814.536C243.973 813.598 244.5 812.326 244.5 811C244.5 809.674 243.973 808.402 243.036 807.464C242.098 806.527 240.826 806 239.5 806ZM232.5 811C232.5 809.891 232.763 808.798 233.268 807.811C233.773 806.824 234.506 805.971 235.405 805.323C236.304 804.674 237.345 804.248 238.441 804.081C239.537 803.913 240.657 804.008 241.709 804.358C242.761 804.708 243.715 805.302 244.492 806.093C245.269 806.884 245.848 807.848 246.179 808.906C246.511 809.964 246.587 811.085 246.4 812.178C246.214 813.271 245.77 814.304 245.106 815.192L248.207 818.292L246.793 819.707L243.693 816.607C242.653 817.385 241.416 817.859 240.122 817.974C238.827 818.089 237.527 817.842 236.365 817.26C235.203 816.678 234.226 815.785 233.544 814.679C232.861 813.573 232.5 812.299 232.5 811Z" fill="#111111"/>
<rect width="16" height="16" transform="translate(323.5 804)" fill="#111111"/>
<path d="M331.5 804C330.439 804 329.422 804.421 328.672 805.172C327.921 805.922 327.5 806.939 327.5 808C327.5 809.061 327.921 810.078 328.672 810.828C329.422 811.579 330.439 812 331.5 812C332.561 812 333.578 811.579 334.328 810.828C335.079 810.078 335.5 809.061 335.5 808C335.5 806.939 335.079 805.922 334.328 805.172C333.578 804.421 332.561 804 331.5 804ZM329.5 808C329.5 807.47 329.711 806.961 330.086 806.586C330.461 806.211 330.97 806 331.5 806C332.03 806 332.539 806.211 332.914 806.586C333.289 806.961 333.5 807.47 333.5 808C333.5 808.53 333.289 809.039 332.914 809.414C332.539 809.789 332.03 810 331.5 810C330.97 810 330.461 809.789 330.086 809.414C329.711 809.039 329.5 808.53 329.5 808ZM329.5 813C328.704 813 327.941 813.316 327.379 813.879C326.816 814.441 326.5 815.204 326.5 816V820H336.5V816C336.5 815.204 336.184 814.441 335.621 813.879C335.059 813.316 334.296 813 333.5 813H329.5ZM328.5 816C328.5 815.735 328.605 815.48 328.793 815.293C328.98 815.105 329.235 815 329.5 815H333.5C333.765 815 334.02 815.105 334.207 815.293C334.395 815.48 334.5 815.735 334.5 816V818H328.5V816Z" fill="#111111"/>
</g>
<defs>
<clipPath id="clip0_575_1205">
<rect width="390" height="844" fill="white"/>
</clipPath>
</defs>
</svg>
