<svg width="390" height="844" viewBox="0 0 390 844" fill="none" xmlns="http://www.w3.org/2000/svg">
<g clip-path="url(#clip0_575_1205)">
<rect width="390" height="844" fill="#111111"/>
<rect y="512" width="390" height="256" fill="#CDCDCD"/>
<rect x="20.0513" y="695" width="350.9" height="63" fill="#CDCDCD"/>
<path d="M25.5953 707.824L25.0913 711.424H28.0673L28.5713 707.824H25.5953ZM23.1953 713.056H20.8673V711.424H23.4353L23.9393 707.824H21.4913V706.192H24.1553L24.8513 701.272H26.5073L25.8113 706.192H28.7873L29.4833 701.272H31.1393L30.4433 706.192H32.5793V707.824H30.2273L29.7233 711.424H31.9073V713.056H29.4833L28.7873 718H27.1313L27.8273 713.056H24.8513L24.1553 718H22.4993L23.1953 713.056ZM41.9312 718H39.8912V705.808H35.4752V704.176C36.0512 704.176 36.6112 704.136 37.1552 704.056C37.6992 703.96 38.1872 703.792 38.6192 703.552C39.0672 703.312 39.4432 702.984 39.7472 702.568C40.0512 702.152 40.2592 701.624 40.3712 700.984H41.9312V718ZM54.8591 712.216V703.888H54.8111L49.1471 712.216H54.8591ZM56.7791 712.216H59.0831V714.016H56.7791V718H54.8591V714.016H47.3951V712.048L55.1471 700.984H56.7791V712.216ZM61.1151 707.008C61.0671 706.144 61.1551 705.344 61.3791 704.608C61.6031 703.872 61.9471 703.24 62.4111 702.712C62.8911 702.168 63.4831 701.744 64.1871 701.44C64.8911 701.136 65.6911 700.984 66.5871 700.984C67.3231 700.984 68.0111 701.096 68.6511 701.32C69.3071 701.528 69.8751 701.84 70.3551 702.256C70.8351 702.656 71.2111 703.16 71.4831 703.768C71.7711 704.376 71.9151 705.08 71.9151 705.88C71.9151 706.632 71.7951 707.296 71.5551 707.872C71.3311 708.448 71.0271 708.968 70.6431 709.432C70.2591 709.88 69.8191 710.288 69.3231 710.656C68.8271 711.024 68.3151 711.376 67.7871 711.712C67.2591 712.032 66.7311 712.352 66.2031 712.672C65.6751 712.976 65.1871 713.304 64.7391 713.656C64.3071 714.008 63.9311 714.392 63.6111 714.808C63.3071 715.208 63.1071 715.672 63.0111 716.2H71.7471V718H60.6351C60.7151 716.992 60.8911 716.136 61.1631 715.432C61.4511 714.712 61.8111 714.088 62.2431 713.56C62.6751 713.032 63.1631 712.568 63.7071 712.168C64.2511 711.768 64.8191 711.392 65.4111 711.04C66.1311 710.592 66.7631 710.184 67.3071 709.816C67.8511 709.432 68.2991 709.048 68.6511 708.664C69.0191 708.28 69.2911 707.864 69.4671 707.416C69.6591 706.968 69.7551 706.448 69.7551 705.856C69.7551 705.392 69.6671 704.976 69.4911 704.608C69.3151 704.224 69.0751 703.896 68.7711 703.624C68.4831 703.352 68.1391 703.144 67.7391 703C67.3391 702.856 66.9151 702.784 66.4671 702.784C65.8751 702.784 65.3631 702.912 64.9311 703.168C64.5151 703.408 64.1711 703.728 63.8991 704.128C63.6271 704.528 63.4271 704.984 63.2991 705.496C63.1871 705.992 63.1391 706.496 63.1551 707.008H61.1151ZM81.2747 710.368H88.2107V712.288H81.2747V710.368ZM97.9545 700.864H109.211V702.784H100.235V708.232H108.107V710.152H100.235V718H97.9545V700.864ZM111.52 700.864H113.56V718H111.52V700.864ZM118.208 711.808C118.208 712.56 118.304 713.232 118.496 713.824C118.704 714.4 118.984 714.888 119.336 715.288C119.688 715.672 120.096 715.968 120.56 716.176C121.04 716.384 121.544 716.488 122.072 716.488C122.6 716.488 123.096 716.384 123.56 716.176C124.04 715.968 124.456 715.672 124.808 715.288C125.16 714.888 125.432 714.4 125.624 713.824C125.832 713.232 125.936 712.56 125.936 711.808C125.936 711.056 125.832 710.392 125.624 709.816C125.432 709.224 125.16 708.728 124.808 708.328C124.456 707.928 124.04 707.624 123.56 707.416C123.096 707.208 122.6 707.104 122.072 707.104C121.544 707.104 121.04 707.208 120.56 707.416C120.096 707.624 119.688 707.928 119.336 708.328C118.984 708.728 118.704 709.224 118.496 709.816C118.304 710.392 118.208 711.056 118.208 711.808ZM116.048 711.808C116.048 710.896 116.176 710.048 116.432 709.264C116.688 708.464 117.072 707.776 117.584 707.2C118.096 706.608 118.728 706.144 119.48 705.808C120.232 705.472 121.096 705.304 122.072 705.304C123.064 705.304 123.928 705.472 124.664 705.808C125.416 706.144 126.048 706.608 126.56 707.2C127.072 707.776 127.456 708.464 127.712 709.264C127.968 710.048 128.096 710.896 128.096 711.808C128.096 712.72 127.968 713.568 127.712 714.352C127.456 715.136 127.072 715.824 126.56 716.416C126.048 716.992 125.416 717.448 124.664 717.784C123.928 718.104 123.064 718.264 122.072 718.264C121.096 718.264 120.232 718.104 119.48 717.784C118.728 717.448 118.096 716.992 117.584 716.416C117.072 715.824 116.688 715.136 116.432 714.352C116.176 713.568 116.048 712.72 116.048 711.808ZM141.493 717.952C141.141 718.16 140.653 718.264 140.029 718.264C139.501 718.264 139.077 718.12 138.757 717.832C138.453 717.528 138.301 717.04 138.301 716.368C137.741 717.04 137.085 717.528 136.333 717.832C135.597 718.12 134.797 718.264 133.933 718.264C133.373 718.264 132.837 718.2 132.325 718.072C131.829 717.944 131.397 717.744 131.029 717.472C130.661 717.2 130.365 716.848 130.141 716.416C129.933 715.968 129.829 715.432 129.829 714.808C129.829 714.104 129.949 713.528 130.189 713.08C130.429 712.632 130.741 712.272 131.125 712C131.525 711.712 131.973 711.496 132.469 711.352C132.981 711.208 133.501 711.088 134.029 710.992C134.589 710.88 135.117 710.8 135.613 710.752C136.125 710.688 136.573 710.608 136.957 710.512C137.341 710.4 137.645 710.248 137.869 710.056C138.093 709.848 138.205 709.552 138.205 709.168C138.205 708.72 138.117 708.36 137.941 708.088C137.781 707.816 137.565 707.608 137.293 707.464C137.037 707.32 136.741 707.224 136.405 707.176C136.085 707.128 135.765 707.104 135.445 707.104C134.581 707.104 133.861 707.272 133.285 707.608C132.709 707.928 132.397 708.544 132.349 709.456H130.309C130.341 708.688 130.501 708.04 130.789 707.512C131.077 706.984 131.461 706.56 131.941 706.24C132.421 705.904 132.965 705.664 133.573 705.52C134.197 705.376 134.861 705.304 135.565 705.304C136.125 705.304 136.677 705.344 137.221 705.424C137.781 705.504 138.285 705.672 138.733 705.928C139.181 706.168 139.541 706.512 139.813 706.96C140.085 707.408 140.221 707.992 140.221 708.712V715.096C140.221 715.576 140.245 715.928 140.293 716.152C140.357 716.376 140.549 716.488 140.869 716.488C141.045 716.488 141.253 716.448 141.493 716.368V717.952ZM138.181 711.592C137.925 711.784 137.589 711.928 137.173 712.024C136.757 712.104 136.317 712.176 135.853 712.24C135.405 712.288 134.949 712.352 134.485 712.432C134.021 712.496 133.605 712.608 133.237 712.768C132.869 712.928 132.565 713.16 132.325 713.464C132.101 713.752 131.989 714.152 131.989 714.664C131.989 715 132.053 715.288 132.181 715.528C132.325 715.752 132.501 715.936 132.709 716.08C132.933 716.224 133.189 716.328 133.477 716.392C133.765 716.456 134.069 716.488 134.389 716.488C135.061 716.488 135.637 716.4 136.117 716.224C136.597 716.032 136.989 715.8 137.293 715.528C137.597 715.24 137.821 714.936 137.965 714.616C138.109 714.28 138.181 713.968 138.181 713.68V711.592ZM146.224 705.592H148.696V707.392H146.224V715.096C146.224 715.336 146.24 715.528 146.272 715.672C146.32 715.816 146.4 715.928 146.512 716.008C146.624 716.088 146.776 716.144 146.968 716.176C147.176 716.192 147.44 716.2 147.76 716.2H148.696V718H147.136C146.608 718 146.152 717.968 145.768 717.904C145.4 717.824 145.096 717.688 144.856 717.496C144.632 717.304 144.464 717.032 144.352 716.68C144.24 716.328 144.184 715.864 144.184 715.288V707.392H142.072V705.592H144.184V701.872H146.224V705.592ZM153.122 703.36H151.082V700.864H153.122V703.36ZM151.082 705.592H153.122V718H151.082V705.592ZM156.283 705.592H158.203V707.56H158.251C159.099 706.056 160.443 705.304 162.283 705.304C163.099 705.304 163.779 705.416 164.323 705.64C164.867 705.864 165.307 706.176 165.643 706.576C165.979 706.976 166.211 707.456 166.339 708.016C166.483 708.56 166.555 709.168 166.555 709.84V718H164.515V709.6C164.515 708.832 164.291 708.224 163.843 707.776C163.395 707.328 162.779 707.104 161.995 707.104C161.371 707.104 160.827 707.2 160.363 707.392C159.915 707.584 159.539 707.856 159.235 708.208C158.931 708.56 158.699 708.976 158.539 709.456C158.395 709.92 158.323 710.432 158.323 710.992V718H156.283V705.592ZM180.323 716.944C180.323 718.976 179.859 720.496 178.931 721.504C178.003 722.512 176.547 723.016 174.563 723.016C173.987 723.016 173.395 722.952 172.787 722.824C172.195 722.696 171.651 722.488 171.155 722.2C170.675 721.912 170.275 721.536 169.955 721.072C169.635 720.608 169.459 720.04 169.427 719.368H171.467C171.483 719.736 171.595 720.048 171.803 720.304C172.027 720.56 172.291 720.768 172.595 720.928C172.915 721.088 173.259 721.2 173.627 721.264C173.995 721.344 174.347 721.384 174.683 721.384C175.355 721.384 175.923 721.264 176.387 721.024C176.851 720.8 177.235 720.48 177.539 720.064C177.843 719.664 178.059 719.176 178.187 718.6C178.331 718.024 178.403 717.392 178.403 716.704V715.888H178.355C178.003 716.656 177.467 717.224 176.747 717.592C176.043 717.944 175.291 718.12 174.491 718.12C173.563 718.12 172.755 717.952 172.067 717.616C171.379 717.28 170.803 716.832 170.339 716.272C169.875 715.696 169.523 715.032 169.283 714.28C169.059 713.512 168.947 712.704 168.947 711.856C168.947 711.12 169.043 710.368 169.235 709.6C169.427 708.816 169.747 708.112 170.195 707.488C170.643 706.848 171.235 706.328 171.971 705.928C172.707 705.512 173.611 705.304 174.683 705.304C175.467 705.304 176.187 705.48 176.843 705.832C177.499 706.168 178.011 706.68 178.379 707.368H178.403V705.592H180.323V716.944ZM174.611 716.344C175.283 716.344 175.851 716.208 176.315 715.936C176.795 715.648 177.179 715.28 177.467 714.832C177.755 714.368 177.963 713.848 178.091 713.272C178.235 712.696 178.307 712.12 178.307 711.544C178.307 711 178.243 710.464 178.115 709.936C177.987 709.408 177.779 708.936 177.491 708.52C177.219 708.088 176.859 707.744 176.411 707.488C175.963 707.232 175.419 707.104 174.779 707.104C174.123 707.104 173.563 707.232 173.099 707.488C172.635 707.728 172.251 708.056 171.947 708.472C171.659 708.888 171.443 709.368 171.299 709.912C171.171 710.456 171.107 711.024 171.107 711.616C171.107 712.176 171.163 712.736 171.275 713.296C171.387 713.856 171.579 714.368 171.851 714.832C172.123 715.28 172.483 715.648 172.931 715.936C173.379 716.208 173.939 716.344 174.611 716.344ZM192.695 709.072H197.159C198.455 709.088 199.399 708.824 199.991 708.28C200.599 707.736 200.903 706.952 200.903 705.928C200.903 704.904 200.599 704.128 199.991 703.6C199.399 703.056 198.455 702.784 197.159 702.784H192.695V709.072ZM190.415 700.864H197.927C199.655 700.864 200.959 701.312 201.839 702.208C202.735 703.088 203.183 704.328 203.183 705.928C203.183 707.528 202.735 708.776 201.839 709.672C200.959 710.568 199.655 711.008 197.927 710.992H192.695V718H190.415V700.864ZM207.13 711.808C207.13 712.56 207.226 713.232 207.418 713.824C207.626 714.4 207.906 714.888 208.258 715.288C208.61 715.672 209.018 715.968 209.482 716.176C209.962 716.384 210.466 716.488 210.994 716.488C211.522 716.488 212.018 716.384 212.482 716.176C212.962 715.968 213.378 715.672 213.73 715.288C214.082 714.888 214.354 714.4 214.546 713.824C214.754 713.232 214.858 712.56 214.858 711.808C214.858 711.056 214.754 710.392 214.546 709.816C214.354 709.224 214.082 708.728 213.73 708.328C213.378 707.928 212.962 707.624 212.482 707.416C212.018 707.208 211.522 707.104 210.994 707.104C210.466 707.104 209.962 707.208 209.482 707.416C209.018 707.624 208.61 707.928 208.258 708.328C207.906 708.728 207.626 709.224 207.418 709.816C207.226 710.392 207.13 711.056 207.13 711.808ZM204.97 711.808C204.97 710.896 205.098 710.048 205.354 709.264C205.61 708.464 205.994 707.776 206.506 707.2C207.018 706.608 207.65 706.144 208.402 705.808C209.154 705.472 210.018 705.304 210.994 705.304C211.986 705.304 212.85 705.472 213.586 705.808C214.338 706.144 214.97 706.608 215.482 707.2C215.994 707.776 216.378 708.464 216.634 709.264C216.89 710.048 217.018 710.896 217.018 711.808C217.018 712.72 216.89 713.568 216.634 714.352C216.378 715.136 215.994 715.824 215.482 716.416C214.97 716.992 214.338 717.448 213.586 717.784C212.85 718.104 211.986 718.264 210.994 718.264C210.018 718.264 209.154 718.104 208.402 717.784C207.65 717.448 207.018 716.992 206.506 716.416C205.994 715.824 205.61 715.136 205.354 714.352C205.098 713.568 204.97 712.72 204.97 711.808ZM221.583 703.36H219.543V700.864H221.583V703.36ZM219.543 705.592H221.583V718H219.543V705.592ZM224.744 705.592H226.664V707.56H226.712C227.56 706.056 228.904 705.304 230.744 705.304C231.56 705.304 232.24 705.416 232.784 705.64C233.328 705.864 233.768 706.176 234.104 706.576C234.44 706.976 234.672 707.456 234.8 708.016C234.944 708.56 235.016 709.168 235.016 709.84V718H232.976V709.6C232.976 708.832 232.752 708.224 232.304 707.776C231.856 707.328 231.24 707.104 230.456 707.104C229.832 707.104 229.288 707.2 228.824 707.392C228.376 707.584 228 707.856 227.696 708.208C227.392 708.56 227.16 708.976 227 709.456C226.856 709.92 226.784 710.432 226.784 710.992V718H224.744V705.592ZM240.911 705.592H243.383V707.392H240.911V715.096C240.911 715.336 240.927 715.528 240.959 715.672C241.007 715.816 241.087 715.928 241.199 716.008C241.311 716.088 241.463 716.144 241.655 716.176C241.863 716.192 242.127 716.2 242.447 716.2H243.383V718H241.823C241.295 718 240.839 717.968 240.455 717.904C240.087 717.824 239.783 717.688 239.543 717.496C239.319 717.304 239.151 717.032 239.039 716.68C238.927 716.328 238.871 715.864 238.871 715.288V707.392H236.759V705.592H238.871V701.872H240.911V705.592ZM246.898 714.088C246.914 714.536 247.018 714.92 247.21 715.24C247.402 715.544 247.65 715.792 247.954 715.984C248.274 716.16 248.626 716.288 249.01 716.368C249.41 716.448 249.818 716.488 250.234 716.488C250.554 716.488 250.89 716.464 251.242 716.416C251.594 716.368 251.914 716.28 252.202 716.152C252.506 716.024 252.754 715.84 252.946 715.6C253.138 715.344 253.234 715.024 253.234 714.64C253.234 714.112 253.034 713.712 252.634 713.44C252.234 713.168 251.73 712.952 251.122 712.792C250.53 712.616 249.882 712.464 249.178 712.336C248.474 712.192 247.818 712 247.21 711.76C246.618 711.504 246.122 711.152 245.722 710.704C245.322 710.256 245.122 709.632 245.122 708.832C245.122 708.208 245.258 707.672 245.53 707.224C245.818 706.776 246.178 706.416 246.61 706.144C247.058 705.856 247.554 705.648 248.098 705.52C248.658 705.376 249.21 705.304 249.754 705.304C250.458 705.304 251.106 705.368 251.698 705.496C252.29 705.608 252.81 705.816 253.258 706.12C253.722 706.408 254.09 706.808 254.362 707.32C254.634 707.816 254.794 708.44 254.842 709.192H252.802C252.77 708.792 252.666 708.464 252.49 708.208C252.314 707.936 252.09 707.72 251.818 707.56C251.546 707.4 251.242 707.288 250.906 707.224C250.586 707.144 250.258 707.104 249.922 707.104C249.618 707.104 249.306 707.128 248.986 707.176C248.682 707.224 248.402 707.312 248.146 707.44C247.89 707.552 247.682 707.712 247.522 707.92C247.362 708.112 247.282 708.368 247.282 708.688C247.282 709.04 247.402 709.336 247.642 709.576C247.898 709.8 248.218 709.992 248.602 710.152C248.986 710.296 249.418 710.424 249.898 710.536C250.378 710.632 250.858 710.736 251.338 710.848C251.85 710.96 252.346 711.096 252.826 711.256C253.322 711.416 253.754 711.632 254.122 711.904C254.506 712.16 254.81 712.488 255.034 712.888C255.274 713.288 255.394 713.784 255.394 714.376C255.394 715.128 255.234 715.752 254.914 716.248C254.61 716.744 254.202 717.144 253.69 717.448C253.194 717.752 252.626 717.96 251.986 718.072C251.362 718.2 250.738 718.264 250.114 718.264C249.426 718.264 248.77 718.192 248.146 718.048C247.522 717.904 246.97 717.672 246.49 717.352C246.01 717.016 245.626 716.584 245.338 716.056C245.05 715.512 244.89 714.856 244.858 714.088H246.898Z" fill="#CDCDCD"/>
<path d="M24.9793 738.088H22.7873V743H21.8273V732.04H24.4833C27.0859 732.04 28.3873 733.032 28.3873 735.016C28.3873 735.805 28.1793 736.435 27.7633 736.904C27.3473 737.373 26.7393 737.709 25.9393 737.912L28.9473 743H27.8113L24.9793 738.088ZM24.6113 737.304C26.4459 737.304 27.3633 736.541 27.3633 735.016C27.3633 734.269 27.1339 733.72 26.6753 733.368C26.2166 733.005 25.4753 732.824 24.4513 732.824H22.7873V737.304H24.6113ZM36.2285 741.144C36.2285 741.581 36.2819 741.896 36.3885 742.088C36.5059 742.28 36.6872 742.424 36.9325 742.52L36.7245 743.176C36.3405 743.101 36.0419 742.957 35.8285 742.744C35.6259 742.531 35.4925 742.205 35.4285 741.768C34.8525 742.707 33.9832 743.176 32.8205 743.176C32.0205 743.176 31.3859 742.952 30.9165 742.504C30.4579 742.045 30.2285 741.437 30.2285 740.68C30.2285 739.816 30.5325 739.149 31.1405 738.68C31.7592 738.211 32.6125 737.976 33.7005 737.976H35.3005V737.16C35.3005 736.488 35.1512 736.003 34.8525 735.704C34.5539 735.395 34.0579 735.24 33.3645 735.24C32.7245 735.24 31.9672 735.4 31.0925 735.72L30.8525 735.016C31.7912 734.643 32.6712 734.456 33.4925 734.456C35.3165 734.456 36.2285 735.341 36.2285 737.112V741.144ZM32.9805 742.424C33.9832 742.424 34.7565 741.933 35.3005 740.952V738.648H33.8445C32.9912 738.648 32.3405 738.813 31.8925 739.144C31.4445 739.475 31.2205 739.971 31.2205 740.632C31.2205 741.208 31.3752 741.651 31.6845 741.96C31.9939 742.269 32.4259 742.424 32.9805 742.424ZM40.5346 734.632V743H39.6066V734.632H40.5346ZM40.0546 730.952C40.268 730.952 40.4386 731.016 40.5666 731.144C40.6946 731.272 40.7586 731.432 40.7586 731.624C40.7586 731.816 40.6946 731.976 40.5666 732.104C40.4386 732.232 40.268 732.296 40.0546 732.296C39.852 732.296 39.6866 732.232 39.5586 732.104C39.4306 731.976 39.3666 731.816 39.3666 731.624C39.3666 731.432 39.4306 731.272 39.5586 731.144C39.6866 731.016 39.852 730.952 40.0546 730.952ZM45.9671 734.456C46.4898 734.456 46.9645 734.536 47.3911 734.696C47.8178 734.845 48.2338 735.075 48.6391 735.384L48.2071 735.992C47.8231 735.725 47.4605 735.533 47.1191 735.416C46.7778 735.288 46.4045 735.224 45.9991 735.224C45.4445 735.224 44.9965 735.352 44.6551 735.608C44.3138 735.864 44.1431 736.205 44.1431 736.632C44.1431 737.037 44.2871 737.352 44.5751 737.576C44.8738 737.8 45.4071 738.013 46.1751 738.216C47.1245 738.461 47.8071 738.771 48.2231 739.144C48.6498 739.517 48.8631 740.051 48.8631 740.744C48.8631 741.491 48.5751 742.083 47.9991 742.52C47.4231 742.957 46.7031 743.176 45.8391 743.176C45.1991 743.176 44.6391 743.085 44.1591 742.904C43.6791 742.712 43.2418 742.445 42.8471 742.104L43.3591 741.512C43.7325 741.811 44.1111 742.035 44.4951 742.184C44.8898 742.323 45.3325 742.392 45.8231 742.392C46.4418 742.392 46.9378 742.253 47.3111 741.976C47.6951 741.688 47.8871 741.293 47.8871 740.792C47.8871 740.451 47.8231 740.173 47.6951 739.96C47.5671 739.747 47.3485 739.565 47.0391 739.416C46.7298 739.256 46.2765 739.096 45.6791 738.936C44.7938 738.701 44.1538 738.408 43.7591 738.056C43.3751 737.704 43.1831 737.235 43.1831 736.648C43.1831 736.232 43.3058 735.859 43.5511 735.528C43.7965 735.187 44.1271 734.925 44.5431 734.744C44.9698 734.552 45.4445 734.456 45.9671 734.456ZM57.277 738.504C57.277 738.739 57.2664 738.963 57.245 739.176H51.661C51.7144 740.264 51.9704 741.075 52.429 741.608C52.8984 742.131 53.5117 742.392 54.269 742.392C54.7064 742.392 55.0904 742.328 55.421 742.2C55.7624 742.061 56.1304 741.848 56.525 741.56L56.957 742.152C56.541 742.493 56.1144 742.749 55.677 742.92C55.2397 743.091 54.7544 743.176 54.221 743.176C53.1117 743.176 52.2424 742.797 51.613 742.04C50.9837 741.283 50.669 740.232 50.669 738.888C50.669 738.003 50.8024 737.229 51.069 736.568C51.3464 735.896 51.7357 735.379 52.237 735.016C52.749 734.643 53.341 734.456 54.013 734.456C55.0797 734.456 55.8904 734.819 56.445 735.544C56.9997 736.259 57.277 737.245 57.277 738.504ZM56.365 738.216C56.365 737.277 56.1677 736.547 55.773 736.024C55.389 735.491 54.813 735.224 54.045 735.224C53.3517 735.224 52.7917 735.491 52.365 736.024C51.9384 736.557 51.7037 737.368 51.661 738.456H56.365V738.216ZM65.8871 731.224V743H65.0871L64.9751 741.72C64.3991 742.691 63.5618 743.176 62.4631 743.176C61.4925 743.176 60.7245 742.792 60.1591 742.024C59.6045 741.245 59.3271 740.189 59.3271 738.856C59.3271 737.992 59.4551 737.229 59.7111 736.568C59.9778 735.907 60.3565 735.389 60.8471 735.016C61.3485 734.643 61.9351 734.456 62.6071 734.456C63.5565 734.456 64.3405 734.835 64.9591 735.592V731.112L65.8871 731.224ZM62.6071 742.408C63.1405 742.408 63.5885 742.28 63.9511 742.024C64.3245 741.768 64.6605 741.379 64.9591 740.856V736.488C64.3618 735.645 63.6311 735.224 62.7671 735.224C62.0098 735.224 61.4071 735.539 60.9591 736.168C60.5218 736.797 60.3085 737.688 60.3191 738.84C60.3191 739.992 60.5218 740.877 60.9271 741.496C61.3325 742.104 61.8925 742.408 62.6071 742.408ZM74.6753 734.632V743H73.7473V734.632H74.6753ZM74.1953 730.952C74.4086 730.952 74.5793 731.016 74.7073 731.144C74.8353 731.272 74.8993 731.432 74.8993 731.624C74.8993 731.816 74.8353 731.976 74.7073 732.104C74.5793 732.232 74.4086 732.296 74.1953 732.296C73.9926 732.296 73.8273 732.232 73.6993 732.104C73.5713 731.976 73.5073 731.816 73.5073 731.624C73.5073 731.432 73.5713 731.272 73.6993 731.144C73.8273 731.016 73.9926 730.952 74.1953 730.952ZM81.7558 734.456C82.5131 734.456 83.0891 734.68 83.4838 735.128C83.8891 735.576 84.0918 736.205 84.0918 737.016V743H83.1638V737.144C83.1638 736.472 83.0304 735.981 82.7638 735.672C82.4971 735.363 82.1024 735.208 81.5798 735.208C81.0464 735.208 80.5718 735.357 80.1558 735.656C79.7504 735.944 79.3611 736.371 78.9878 736.936V743H78.0598V734.632H78.8598L78.9558 736.056C79.2971 735.555 79.7024 735.165 80.1718 734.888C80.6411 734.6 81.1691 734.456 81.7558 734.456ZM101.392 743H100.464L99.9683 737.752C99.7656 735.715 99.6269 734.125 99.5523 732.984L96.8003 741.704H95.8883L93.0403 732.984C92.9869 734.019 92.8803 735.389 92.7203 737.096L92.6723 737.72L92.1923 743H91.2803L92.3203 732.04H93.6483L96.3683 740.568L98.9923 732.04H100.336L101.392 743ZM109.385 741.144C109.385 741.581 109.438 741.896 109.545 742.088C109.662 742.28 109.843 742.424 110.089 742.52L109.881 743.176C109.497 743.101 109.198 742.957 108.985 742.744C108.782 742.531 108.649 742.205 108.585 741.768C108.009 742.707 107.139 743.176 105.977 743.176C105.177 743.176 104.542 742.952 104.073 742.504C103.614 742.045 103.385 741.437 103.385 740.68C103.385 739.816 103.689 739.149 104.297 738.68C104.915 738.211 105.769 737.976 106.857 737.976H108.457V737.16C108.457 736.488 108.307 736.003 108.009 735.704C107.71 735.395 107.214 735.24 106.521 735.24C105.881 735.24 105.123 735.4 104.249 735.72L104.009 735.016C104.947 734.643 105.827 734.456 106.649 734.456C108.473 734.456 109.385 735.341 109.385 737.112V741.144ZM106.137 742.424C107.139 742.424 107.913 741.933 108.457 740.952V738.648H107.001C106.147 738.648 105.497 738.813 105.049 739.144C104.601 739.475 104.377 739.971 104.377 740.632C104.377 741.208 104.531 741.651 104.841 741.96C105.15 742.269 105.582 742.424 106.137 742.424ZM116.459 734.456C117.216 734.456 117.792 734.68 118.187 735.128C118.592 735.576 118.795 736.205 118.795 737.016V743H117.867V737.144C117.867 736.472 117.734 735.981 117.467 735.672C117.2 735.363 116.806 735.208 116.283 735.208C115.75 735.208 115.275 735.357 114.859 735.656C114.454 735.944 114.064 736.371 113.691 736.936V743H112.763V734.632H113.563L113.659 736.056C114 735.555 114.406 735.165 114.875 734.888C115.344 734.6 115.872 734.456 116.459 734.456ZM124.971 734.456C125.451 734.456 125.877 734.525 126.251 734.664C126.624 734.792 126.987 735.005 127.339 735.304L126.875 735.912C126.597 735.688 126.309 735.523 126.011 735.416C125.723 735.309 125.392 735.256 125.019 735.256C124.229 735.256 123.6 735.565 123.131 736.184C122.661 736.792 122.427 737.683 122.427 738.856C122.427 740.019 122.656 740.893 123.115 741.48C123.584 742.067 124.213 742.36 125.003 742.36C125.376 742.36 125.712 742.301 126.011 742.184C126.32 742.067 126.629 741.891 126.939 741.656L127.387 742.28C126.683 742.877 125.883 743.176 124.987 743.176C124.272 743.176 123.648 743.005 123.115 742.664C122.581 742.323 122.165 741.832 121.867 741.192C121.579 740.541 121.435 739.768 121.435 738.872C121.435 737.987 121.579 737.213 121.867 736.552C122.165 735.88 122.581 735.363 123.115 735C123.648 734.637 124.267 734.456 124.971 734.456ZM133.303 734.456C134.049 734.456 134.625 734.685 135.031 735.144C135.436 735.592 135.639 736.216 135.639 737.016V743H134.711V737.144C134.711 735.853 134.183 735.208 133.127 735.208C132.593 735.208 132.119 735.357 131.703 735.656C131.297 735.944 130.908 736.371 130.535 736.936V743H129.607V731.224L130.535 731.112V736.024C131.281 734.979 132.204 734.456 133.303 734.456ZM144.886 738.504C144.886 738.739 144.876 738.963 144.854 739.176H139.27C139.324 740.264 139.58 741.075 140.038 741.608C140.508 742.131 141.121 742.392 141.878 742.392C142.316 742.392 142.7 742.328 143.03 742.2C143.372 742.061 143.74 741.848 144.134 741.56L144.566 742.152C144.15 742.493 143.724 742.749 143.286 742.92C142.849 743.091 142.364 743.176 141.83 743.176C140.721 743.176 139.852 742.797 139.222 742.04C138.593 741.283 138.278 740.232 138.278 738.888C138.278 738.003 138.412 737.229 138.678 736.568C138.956 735.896 139.345 735.379 139.846 735.016C140.358 734.643 140.95 734.456 141.622 734.456C142.689 734.456 143.5 734.819 144.054 735.544C144.609 736.259 144.886 737.245 144.886 738.504ZM143.974 738.216C143.974 737.277 143.777 736.547 143.382 736.024C142.998 735.491 142.422 735.224 141.654 735.224C140.961 735.224 140.401 735.491 139.974 736.024C139.548 736.557 139.313 737.368 139.27 738.456H143.974V738.216ZM149.577 734.456C150.099 734.456 150.574 734.536 151.001 734.696C151.427 734.845 151.843 735.075 152.249 735.384L151.817 735.992C151.433 735.725 151.07 735.533 150.729 735.416C150.387 735.288 150.014 735.224 149.609 735.224C149.054 735.224 148.606 735.352 148.265 735.608C147.923 735.864 147.753 736.205 147.753 736.632C147.753 737.037 147.897 737.352 148.185 737.576C148.483 737.8 149.017 738.013 149.785 738.216C150.734 738.461 151.417 738.771 151.833 739.144C152.259 739.517 152.473 740.051 152.473 740.744C152.473 741.491 152.185 742.083 151.609 742.52C151.033 742.957 150.313 743.176 149.449 743.176C148.809 743.176 148.249 743.085 147.769 742.904C147.289 742.712 146.851 742.445 146.457 742.104L146.969 741.512C147.342 741.811 147.721 742.035 148.105 742.184C148.499 742.323 148.942 742.392 149.433 742.392C150.051 742.392 150.547 742.253 150.921 741.976C151.305 741.688 151.497 741.293 151.497 740.792C151.497 740.451 151.433 740.173 151.305 739.96C151.177 739.747 150.958 739.565 150.649 739.416C150.339 739.256 149.886 739.096 149.289 738.936C148.403 738.701 147.763 738.408 147.369 738.056C146.985 737.704 146.793 737.235 146.793 736.648C146.793 736.232 146.915 735.859 147.161 735.528C147.406 735.187 147.737 734.925 148.153 734.744C148.579 734.552 149.054 734.456 149.577 734.456ZM158.758 742.648C158.225 743 157.638 743.176 156.998 743.176C156.358 743.176 155.857 742.989 155.494 742.616C155.132 742.232 154.95 741.683 154.95 740.968V735.384H153.542V734.632H154.95V732.632L155.878 732.52V734.632H158.038L157.926 735.384H155.878V740.92C155.878 741.411 155.98 741.779 156.182 742.024C156.385 742.259 156.694 742.376 157.11 742.376C157.537 742.376 157.964 742.253 158.39 742.008L158.758 742.648ZM166.152 738.504C166.152 738.739 166.141 738.963 166.12 739.176H160.536C160.589 740.264 160.845 741.075 161.304 741.608C161.773 742.131 162.387 742.392 163.144 742.392C163.581 742.392 163.965 742.328 164.296 742.2C164.637 742.061 165.005 741.848 165.4 741.56L165.832 742.152C165.416 742.493 164.989 742.749 164.552 742.92C164.115 743.091 163.629 743.176 163.096 743.176C161.987 743.176 161.117 742.797 160.488 742.04C159.859 741.283 159.544 740.232 159.544 738.888C159.544 738.003 159.677 737.229 159.944 736.568C160.221 735.896 160.611 735.379 161.112 735.016C161.624 734.643 162.216 734.456 162.888 734.456C163.955 734.456 164.765 734.819 165.32 735.544C165.875 736.259 166.152 737.245 166.152 738.504ZM165.24 738.216C165.24 737.277 165.043 736.547 164.648 736.024C164.264 735.491 163.688 735.224 162.92 735.224C162.227 735.224 161.667 735.491 161.24 736.024C160.813 736.557 160.579 737.368 160.536 738.456H165.24V738.216ZM172.042 734.456C172.373 734.456 172.65 734.488 172.874 734.552L172.698 735.432C172.463 735.368 172.218 735.336 171.962 735.336C171.397 735.336 170.938 735.544 170.586 735.96C170.245 736.365 169.957 737.005 169.722 737.88V743H168.794V734.632H169.594L169.674 736.504C169.898 735.811 170.202 735.299 170.586 734.968C170.981 734.627 171.466 734.456 172.042 734.456ZM173.434 741.656C173.658 741.656 173.839 741.731 173.978 741.88C174.127 742.019 174.202 742.195 174.202 742.408C174.202 742.643 174.122 742.936 173.962 743.288L173.066 745.416H172.394L173.034 743.064C172.916 743 172.826 742.909 172.762 742.792C172.698 742.675 172.666 742.547 172.666 742.408C172.666 742.195 172.74 742.019 172.89 741.88C173.039 741.731 173.22 741.656 173.434 741.656ZM186.911 732.04L186.799 732.84H182.303V736.92H186.191V737.72H182.303V742.2H187.023V743H181.343V732.04H186.911ZM192.99 734.456C193.747 734.456 194.323 734.68 194.718 735.128C195.123 735.576 195.326 736.205 195.326 737.016V743H194.398V737.144C194.398 736.472 194.265 735.981 193.998 735.672C193.731 735.363 193.337 735.208 192.814 735.208C192.281 735.208 191.806 735.357 191.39 735.656C190.985 735.944 190.595 736.371 190.222 736.936V743H189.294V734.632H190.094L190.19 736.056C190.531 735.555 190.937 735.165 191.406 734.888C191.875 734.6 192.403 734.456 192.99 734.456ZM204.862 734.808C204.35 734.947 203.577 735.027 202.542 735.048C203.491 735.496 203.966 736.253 203.966 737.32C203.966 738.141 203.694 738.808 203.15 739.32C202.606 739.821 201.87 740.072 200.942 740.072C200.526 740.072 200.163 740.019 199.854 739.912C199.651 740.029 199.491 740.173 199.374 740.344C199.267 740.504 199.214 740.68 199.214 740.872C199.214 741.448 199.657 741.736 200.542 741.736H201.902C202.723 741.736 203.374 741.939 203.854 742.344C204.345 742.739 204.59 743.251 204.59 743.88C204.59 744.648 204.286 745.24 203.678 745.656C203.07 746.072 202.163 746.28 200.958 746.28C199.71 746.28 198.814 746.088 198.27 745.704C197.737 745.331 197.47 744.723 197.47 743.88H198.334C198.345 744.285 198.43 744.605 198.59 744.84C198.75 745.075 199.017 745.245 199.39 745.352C199.763 745.459 200.286 745.512 200.958 745.512C201.897 745.512 202.579 745.373 203.006 745.096C203.433 744.829 203.646 744.44 203.646 743.928C203.646 743.48 203.481 743.139 203.15 742.904C202.819 742.659 202.355 742.536 201.758 742.536H200.398C199.737 742.536 199.225 742.397 198.862 742.12C198.51 741.843 198.334 741.491 198.334 741.064C198.334 740.787 198.414 740.525 198.574 740.28C198.734 740.035 198.958 739.821 199.246 739.64C198.766 739.395 198.409 739.08 198.174 738.696C197.95 738.312 197.838 737.843 197.838 737.288C197.838 736.445 198.121 735.763 198.686 735.24C199.251 734.717 199.993 734.456 200.91 734.456C201.923 734.467 202.659 734.429 203.118 734.344C203.587 734.259 204.073 734.115 204.574 733.912L204.862 734.808ZM200.91 735.176C200.217 735.176 199.689 735.368 199.326 735.752C198.974 736.136 198.798 736.648 198.798 737.288C198.798 737.949 198.985 738.467 199.358 738.84C199.742 739.213 200.259 739.4 200.91 739.4C201.593 739.4 202.115 739.219 202.478 738.856C202.841 738.483 203.022 737.965 203.022 737.304C203.022 736.632 202.841 736.109 202.478 735.736C202.126 735.363 201.603 735.176 200.91 735.176ZM208.077 743.176C207.618 743.176 207.255 743.043 206.989 742.776C206.733 742.509 206.605 742.115 206.605 741.592V731.224L207.533 731.112V741.56C207.533 742.104 207.757 742.376 208.205 742.376C208.429 742.376 208.621 742.339 208.781 742.264L209.037 742.952C208.738 743.101 208.418 743.176 208.077 743.176ZM216.354 741.144C216.354 741.581 216.407 741.896 216.514 742.088C216.631 742.28 216.812 742.424 217.058 742.52L216.85 743.176C216.466 743.101 216.167 742.957 215.954 742.744C215.751 742.531 215.618 742.205 215.554 741.768C214.978 742.707 214.108 743.176 212.946 743.176C212.146 743.176 211.511 742.952 211.042 742.504C210.583 742.045 210.354 741.437 210.354 740.68C210.354 739.816 210.658 739.149 211.266 738.68C211.884 738.211 212.738 737.976 213.826 737.976H215.426V737.16C215.426 736.488 215.276 736.003 214.978 735.704C214.679 735.395 214.183 735.24 213.49 735.24C212.85 735.24 212.092 735.4 211.218 735.72L210.978 735.016C211.916 734.643 212.796 734.456 213.618 734.456C215.442 734.456 216.354 735.341 216.354 737.112V741.144ZM213.106 742.424C214.108 742.424 214.882 741.933 215.426 740.952V738.648H213.97C213.116 738.648 212.466 738.813 212.018 739.144C211.57 739.475 211.346 739.971 211.346 740.632C211.346 741.208 211.5 741.651 211.81 741.96C212.119 742.269 212.551 742.424 213.106 742.424ZM223.428 734.456C224.185 734.456 224.761 734.68 225.156 735.128C225.561 735.576 225.764 736.205 225.764 737.016V743H224.836V737.144C224.836 736.472 224.702 735.981 224.436 735.672C224.169 735.363 223.774 735.208 223.252 735.208C222.718 735.208 222.244 735.357 221.828 735.656C221.422 735.944 221.033 736.371 220.66 736.936V743H219.732V734.632H220.532L220.628 736.056C220.969 735.555 221.374 735.165 221.844 734.888C222.313 734.6 222.841 734.456 223.428 734.456ZM235.043 731.224V743H234.243L234.131 741.72C233.555 742.691 232.718 743.176 231.619 743.176C230.649 743.176 229.881 742.792 229.315 742.024C228.761 741.245 228.483 740.189 228.483 738.856C228.483 737.992 228.611 737.229 228.867 736.568C229.134 735.907 229.513 735.389 230.003 735.016C230.505 734.643 231.091 734.456 231.763 734.456C232.713 734.456 233.497 734.835 234.115 735.592V731.112L235.043 731.224ZM231.763 742.408C232.297 742.408 232.745 742.28 233.107 742.024C233.481 741.768 233.817 741.379 234.115 740.856V736.488C233.518 735.645 232.787 735.224 231.923 735.224C231.166 735.224 230.563 735.539 230.115 736.168C229.678 736.797 229.465 737.688 229.475 738.84C229.475 739.992 229.678 740.877 230.083 741.496C230.489 742.104 231.049 742.408 231.763 742.408ZM238.387 741.656C238.611 741.656 238.792 741.731 238.931 741.88C239.08 742.019 239.155 742.195 239.155 742.408C239.155 742.643 239.075 742.936 238.915 743.288L238.019 745.416H237.347L237.987 743.064C237.869 743 237.779 742.909 237.715 742.792C237.651 742.675 237.619 742.547 237.619 742.408C237.619 742.195 237.693 742.019 237.843 741.88C237.992 741.731 238.173 741.656 238.387 741.656ZM248.792 731.864C249.464 731.864 250.04 731.965 250.52 732.168C251.011 732.36 251.485 732.664 251.944 733.08L251.384 733.688C250.968 733.336 250.563 733.08 250.168 732.92C249.773 732.76 249.325 732.68 248.824 732.68C248.141 732.68 247.592 732.851 247.176 733.192C246.76 733.523 246.552 733.971 246.552 734.536C246.552 734.92 246.627 735.24 246.776 735.496C246.936 735.741 247.197 735.965 247.56 736.168C247.923 736.36 248.44 736.557 249.112 736.76C249.837 736.984 250.424 737.224 250.872 737.48C251.32 737.736 251.667 738.067 251.912 738.472C252.157 738.877 252.28 739.389 252.28 740.008C252.28 740.627 252.131 741.176 251.832 741.656C251.533 742.136 251.107 742.509 250.552 742.776C250.008 743.043 249.373 743.176 248.648 743.176C247.283 743.176 246.115 742.717 245.144 741.8L245.688 741.192C246.136 741.576 246.589 741.869 247.048 742.072C247.507 742.264 248.035 742.36 248.632 742.36C249.421 742.36 250.061 742.152 250.552 741.736C251.053 741.32 251.304 740.755 251.304 740.04C251.304 739.592 251.219 739.224 251.048 738.936C250.888 738.648 250.621 738.403 250.248 738.2C249.885 737.987 249.368 737.773 248.696 737.56C247.576 737.219 246.776 736.824 246.296 736.376C245.816 735.928 245.576 735.32 245.576 734.552C245.576 734.04 245.709 733.581 245.976 733.176C246.253 732.76 246.632 732.44 247.112 732.216C247.603 731.981 248.163 731.864 248.792 731.864ZM258.537 734.456C259.284 734.456 259.86 734.685 260.265 735.144C260.67 735.592 260.873 736.216 260.873 737.016V743H259.945V737.144C259.945 735.853 259.417 735.208 258.361 735.208C257.828 735.208 257.353 735.357 256.937 735.656C256.532 735.944 256.142 736.371 255.769 736.936V743H254.841V731.224L255.769 731.112V736.024C256.516 734.979 257.438 734.456 258.537 734.456ZM270.121 738.504C270.121 738.739 270.11 738.963 270.089 739.176H264.505C264.558 740.264 264.814 741.075 265.273 741.608C265.742 742.131 266.355 742.392 267.113 742.392C267.55 742.392 267.934 742.328 268.265 742.2C268.606 742.061 268.974 741.848 269.369 741.56L269.801 742.152C269.385 742.493 268.958 742.749 268.521 742.92C268.083 743.091 267.598 743.176 267.065 743.176C265.955 743.176 265.086 742.797 264.457 742.04C263.827 741.283 263.513 740.232 263.513 738.888C263.513 738.003 263.646 737.229 263.913 736.568C264.19 735.896 264.579 735.379 265.081 735.016C265.593 734.643 266.185 734.456 266.857 734.456C267.923 734.456 268.734 734.819 269.289 735.544C269.843 736.259 270.121 737.245 270.121 738.504ZM269.209 738.216C269.209 737.277 269.011 736.547 268.617 736.024C268.233 735.491 267.657 735.224 266.889 735.224C266.195 735.224 265.635 735.491 265.209 736.024C264.782 736.557 264.547 737.368 264.505 738.456H269.209V738.216ZM276.219 734.456C277.232 734.456 277.99 734.835 278.491 735.592C279.003 736.339 279.259 737.4 279.259 738.776C279.259 740.12 278.982 741.192 278.427 741.992C277.883 742.781 277.099 743.176 276.075 743.176C275.574 743.176 275.12 743.075 274.715 742.872C274.31 742.659 273.968 742.376 273.691 742.024V746.152L272.763 746.28V734.632H273.563L273.643 735.848C273.952 735.411 274.326 735.069 274.763 734.824C275.211 734.579 275.696 734.456 276.219 734.456ZM275.899 742.392C276.667 742.392 277.254 742.088 277.659 741.48C278.064 740.872 278.267 739.971 278.267 738.776C278.267 736.408 277.526 735.224 276.043 735.224C275.542 735.224 275.104 735.352 274.731 735.608C274.368 735.864 274.022 736.216 273.691 736.664V741.112C274.246 741.965 274.982 742.392 275.899 742.392ZM285.756 734.456C286.502 734.456 287.078 734.685 287.484 735.144C287.889 735.592 288.092 736.216 288.092 737.016V743H287.164V737.144C287.164 735.853 286.636 735.208 285.58 735.208C285.046 735.208 284.572 735.357 284.156 735.656C283.75 735.944 283.361 736.371 282.988 736.936V743H282.06V731.224L282.988 731.112V736.024C283.734 734.979 284.657 734.456 285.756 734.456ZM297.34 738.504C297.34 738.739 297.329 738.963 297.308 739.176H291.724C291.777 740.264 292.033 741.075 292.492 741.608C292.961 742.131 293.574 742.392 294.332 742.392C294.769 742.392 295.153 742.328 295.484 742.2C295.825 742.061 296.193 741.848 296.588 741.56L297.02 742.152C296.604 742.493 296.177 742.749 295.74 742.92C295.302 743.091 294.817 743.176 294.284 743.176C293.174 743.176 292.305 742.797 291.676 742.04C291.046 741.283 290.732 740.232 290.732 738.888C290.732 738.003 290.865 737.229 291.132 736.568C291.409 735.896 291.798 735.379 292.3 735.016C292.812 734.643 293.404 734.456 294.076 734.456C295.142 734.456 295.953 734.819 296.508 735.544C297.062 736.259 297.34 737.245 297.34 738.504ZM296.428 738.216C296.428 737.277 296.23 736.547 295.836 736.024C295.452 735.491 294.876 735.224 294.108 735.224C293.414 735.224 292.854 735.491 292.428 736.024C292.001 736.557 291.766 737.368 291.724 738.456H296.428V738.216ZM303.23 734.456C303.56 734.456 303.838 734.488 304.062 734.552L303.886 735.432C303.651 735.368 303.406 735.336 303.15 735.336C302.584 735.336 302.126 735.544 301.774 735.96C301.432 736.365 301.144 737.005 300.91 737.88V743H299.982V734.632H300.782L300.862 736.504C301.086 735.811 301.39 735.299 301.774 734.968C302.168 734.627 302.654 734.456 303.23 734.456ZM311.434 731.224V743H310.634L310.522 741.72C309.946 742.691 309.109 743.176 308.01 743.176C307.039 743.176 306.271 742.792 305.706 742.024C305.151 741.245 304.874 740.189 304.874 738.856C304.874 737.992 305.002 737.229 305.258 736.568C305.525 735.907 305.903 735.389 306.394 735.016C306.895 734.643 307.482 734.456 308.154 734.456C309.103 734.456 309.887 734.835 310.506 735.592V731.112L311.434 731.224ZM308.154 742.408C308.687 742.408 309.135 742.28 309.498 742.024C309.871 741.768 310.207 741.379 310.506 740.856V736.488C309.909 735.645 309.178 735.224 308.314 735.224C307.557 735.224 306.954 735.539 306.506 736.168C306.069 736.797 305.855 737.688 305.866 738.84C305.866 739.992 306.069 740.877 306.474 741.496C306.879 742.104 307.439 742.408 308.154 742.408ZM321.342 734.456C321.865 734.456 322.339 734.536 322.766 734.696C323.193 734.845 323.609 735.075 324.014 735.384L323.582 735.992C323.198 735.725 322.835 735.533 322.494 735.416C322.153 735.288 321.779 735.224 321.374 735.224C320.819 735.224 320.371 735.352 320.03 735.608C319.689 735.864 319.518 736.205 319.518 736.632C319.518 737.037 319.662 737.352 319.95 737.576C320.249 737.8 320.782 738.013 321.55 738.216C322.499 738.461 323.182 738.771 323.598 739.144C324.025 739.517 324.238 740.051 324.238 740.744C324.238 741.491 323.95 742.083 323.374 742.52C322.798 742.957 322.078 743.176 321.214 743.176C320.574 743.176 320.014 743.085 319.534 742.904C319.054 742.712 318.617 742.445 318.222 742.104L318.734 741.512C319.107 741.811 319.486 742.035 319.87 742.184C320.265 742.323 320.707 742.392 321.198 742.392C321.817 742.392 322.313 742.253 322.686 741.976C323.07 741.688 323.262 741.293 323.262 740.792C323.262 740.451 323.198 740.173 323.07 739.96C322.942 739.747 322.723 739.565 322.414 739.416C322.105 739.256 321.651 739.096 321.054 738.936C320.169 738.701 319.529 738.408 319.134 738.056C318.75 737.704 318.558 737.235 318.558 736.648C318.558 736.232 318.681 735.859 318.926 735.528C319.171 735.187 319.502 734.925 319.918 734.744C320.345 734.552 320.819 734.456 321.342 734.456ZM330.524 742.648C329.991 743 329.404 743.176 328.764 743.176C328.124 743.176 327.623 742.989 327.26 742.616C326.897 742.232 326.716 741.683 326.716 740.968V735.384H325.308V734.632H326.716V732.632L327.644 732.52V734.632H329.804L329.692 735.384H327.644V740.92C327.644 741.411 327.745 741.779 327.948 742.024C328.151 742.259 328.46 742.376 328.876 742.376C329.303 742.376 329.729 742.253 330.156 742.008L330.524 742.648ZM338.041 743H337.241L337.193 741.512C336.532 742.621 335.62 743.176 334.457 743.176C333.7 743.176 333.113 742.957 332.697 742.52C332.292 742.072 332.089 741.437 332.089 740.616V734.632H333.017V740.52C333.017 741.171 333.15 741.651 333.417 741.96C333.694 742.259 334.11 742.408 334.665 742.408C335.636 742.408 336.452 741.837 337.113 740.696V734.632H338.041V743ZM347.403 731.224V743H346.603L346.491 741.72C345.915 742.691 345.077 743.176 343.979 743.176C343.008 743.176 342.24 742.792 341.675 742.024C341.12 741.245 340.843 740.189 340.843 738.856C340.843 737.992 340.971 737.229 341.227 736.568C341.493 735.907 341.872 735.389 342.363 735.016C342.864 734.643 343.451 734.456 344.123 734.456C345.072 734.456 345.856 734.835 346.475 735.592V731.112L347.403 731.224ZM344.123 742.408C344.656 742.408 345.104 742.28 345.467 742.024C345.84 741.768 346.176 741.379 346.475 740.856V736.488C345.877 735.645 345.147 735.224 344.283 735.224C343.525 735.224 342.923 735.539 342.475 736.168C342.037 736.797 341.824 737.688 341.835 738.84C341.835 739.992 342.037 740.877 342.443 741.496C342.848 742.104 343.408 742.408 344.123 742.408ZM351.722 734.632V743H350.794V734.632H351.722ZM351.242 730.952C351.455 730.952 351.626 731.016 351.754 731.144C351.882 731.272 351.946 731.432 351.946 731.624C351.946 731.816 351.882 731.976 351.754 732.104C351.626 732.232 351.455 732.296 351.242 732.296C351.039 732.296 350.874 732.232 350.746 732.104C350.618 731.976 350.554 731.816 350.554 731.624C350.554 731.432 350.618 731.272 350.746 731.144C350.874 731.016 351.039 730.952 351.242 730.952ZM358.435 741.656C358.659 741.656 358.84 741.731 358.979 741.88C359.128 742.019 359.203 742.195 359.203 742.408C359.203 742.632 359.128 742.819 358.979 742.968C358.84 743.107 358.659 743.176 358.435 743.176C358.221 743.176 358.04 743.101 357.891 742.952C357.741 742.803 357.667 742.621 357.667 742.408C357.667 742.195 357.741 742.019 357.891 741.88C358.04 741.731 358.221 741.656 358.435 741.656ZM361.795 741.672C362.019 741.672 362.2 741.747 362.339 741.896C362.488 742.035 362.563 742.211 362.563 742.424C362.563 742.648 362.488 742.835 362.339 742.984C362.2 743.123 362.019 743.192 361.795 743.192C361.581 743.192 361.4 743.117 361.251 742.968C361.101 742.819 361.027 742.637 361.027 742.424C361.027 742.211 361.101 742.035 361.251 741.896C361.4 741.747 361.581 741.672 361.795 741.672ZM355.059 741.656C355.283 741.656 355.464 741.731 355.603 741.88C355.752 742.019 355.827 742.195 355.827 742.408C355.827 742.632 355.752 742.819 355.603 742.968C355.464 743.107 355.283 743.176 355.059 743.176C354.845 743.176 354.664 743.101 354.515 742.952C354.365 742.803 354.291 742.621 354.291 742.408C354.291 742.195 354.365 742.019 354.515 741.88C354.664 741.731 354.845 741.656 355.059 741.656Z" fill="#CDCDCD"/>
<rect width="351" height="29" transform="translate(20 475)" fill="#EDF2F3"/>
<rect width="351" height="29" transform="translate(20 300)" fill="#EDF2F3"/>
<rect x="20.75" y="337.25" width="166.5" height="40.5" fill="#CDCDCD"/>
<rect x="20.75" y="337.25" width="166.5" height="40.5" stroke="#AEAEAE" stroke-width="0.5"/>
<rect x="203.75" y="337.25" width="166.5" height="40.5" fill="#CDCDCD"/>
<rect x="203.75" y="337.25" width="166.5" height="40.5" stroke="#AEAEAE" stroke-width="0.5"/>
<rect x="20.75" y="394.25" width="166.5" height="40.5" fill="#CDCDCD"/>
<rect x="20.75" y="394.25" width="166.5" height="40.5" stroke="#AEAEAE" stroke-width="0.5"/>
<rect x="203.75" y="394.25" width="166.5" height="40.5" fill="#CDCDCD"/>
<rect x="203.75" y="394.25" width="166.5" height="40.5" stroke="#AEAEAE" stroke-width="0.5"/>
<rect x="20.0513" y="264" width="76.1954" height="4" fill="#CDCDCD"/>
<rect x="112.288" y="264" width="75.1928" height="4" fill="#CDCDCD"/>
<rect x="203.522" y="264" width="76.1954" height="4" fill="#CDCDCD"/>
<rect x="295.758" y="264" width="75.1928" height="4" fill="#CDCDCD"/>
<rect width="390" height="256" fill="#CDCDCD"/>
<rect width="390" height="256" fill="#CDCDCD"/>
<path d="M43.669 205.728C43.669 206.304 43.581 206.872 43.405 207.432C43.245 207.992 42.965 208.496 42.565 208.944C42.181 209.376 41.661 209.728 41.005 210C40.365 210.256 39.565 210.384 38.605 210.384C37.005 210.384 35.773 209.968 34.909 209.136C34.045 208.288 33.613 207.048 33.613 205.416V204.36H35.893V205.08C35.893 205.576 35.933 206.032 36.013 206.448C36.093 206.864 36.229 207.224 36.421 207.528C36.629 207.832 36.909 208.072 37.261 208.248C37.629 208.408 38.093 208.488 38.653 208.488C39.693 208.488 40.405 208.208 40.789 207.648C41.189 207.088 41.389 206.336 41.389 205.392V192.864H43.669V205.728ZM58.0583 209.952C57.7063 210.16 57.2183 210.264 56.5943 210.264C56.0663 210.264 55.6423 210.12 55.3223 209.832C55.0183 209.528 54.8663 209.04 54.8663 208.368C54.3063 209.04 53.6503 209.528 52.8983 209.832C52.1623 210.12 51.3623 210.264 50.4983 210.264C49.9383 210.264 49.4023 210.2 48.8903 210.072C48.3943 209.944 47.9623 209.744 47.5943 209.472C47.2263 209.2 46.9303 208.848 46.7063 208.416C46.4983 207.968 46.3943 207.432 46.3943 206.808C46.3943 206.104 46.5143 205.528 46.7543 205.08C46.9943 204.632 47.3063 204.272 47.6903 204C48.0903 203.712 48.5383 203.496 49.0343 203.352C49.5463 203.208 50.0663 203.088 50.5943 202.992C51.1543 202.88 51.6823 202.8 52.1783 202.752C52.6903 202.688 53.1383 202.608 53.5223 202.512C53.9063 202.4 54.2103 202.248 54.4343 202.056C54.6583 201.848 54.7703 201.552 54.7703 201.168C54.7703 200.72 54.6823 200.36 54.5063 200.088C54.3463 199.816 54.1303 199.608 53.8583 199.464C53.6023 199.32 53.3063 199.224 52.9703 199.176C52.6503 199.128 52.3303 199.104 52.0103 199.104C51.1463 199.104 50.4263 199.272 49.8503 199.608C49.2743 199.928 48.9623 200.544 48.9143 201.456H46.8743C46.9063 200.688 47.0663 200.04 47.3543 199.512C47.6423 198.984 48.0263 198.56 48.5063 198.24C48.9863 197.904 49.5303 197.664 50.1383 197.52C50.7623 197.376 51.4263 197.304 52.1303 197.304C52.6903 197.304 53.2423 197.344 53.7863 197.424C54.3463 197.504 54.8503 197.672 55.2983 197.928C55.7463 198.168 56.1063 198.512 56.3783 198.96C56.6503 199.408 56.7863 199.992 56.7863 200.712V207.096C56.7863 207.576 56.8103 207.928 56.8583 208.152C56.9223 208.376 57.1143 208.488 57.4343 208.488C57.6103 208.488 57.8183 208.448 58.0583 208.368V209.952ZM54.7463 203.592C54.4903 203.784 54.1543 203.928 53.7383 204.024C53.3223 204.104 52.8823 204.176 52.4183 204.24C51.9703 204.288 51.5143 204.352 51.0503 204.432C50.5863 204.496 50.1703 204.608 49.8023 204.768C49.4343 204.928 49.1303 205.16 48.8903 205.464C48.6663 205.752 48.5543 206.152 48.5543 206.664C48.5543 207 48.6183 207.288 48.7463 207.528C48.8903 207.752 49.0663 207.936 49.2743 208.08C49.4983 208.224 49.7543 208.328 50.0423 208.392C50.3303 208.456 50.6343 208.488 50.9543 208.488C51.6263 208.488 52.2023 208.4 52.6823 208.224C53.1623 208.032 53.5543 207.8 53.8583 207.528C54.1623 207.24 54.3863 206.936 54.5303 206.616C54.6743 206.28 54.7463 205.968 54.7463 205.68V203.592ZM60.0289 197.592H62.0689V199.272H62.1169C62.4529 198.584 62.9809 198.088 63.7009 197.784C64.4209 197.464 65.2129 197.304 66.0769 197.304C67.0369 197.304 67.8689 197.48 68.5729 197.832C69.2929 198.184 69.8849 198.664 70.3489 199.272C70.8289 199.864 71.1889 200.552 71.4289 201.336C71.6689 202.12 71.7889 202.952 71.7889 203.832C71.7889 204.712 71.6689 205.544 71.4289 206.328C71.2049 207.112 70.8529 207.8 70.3729 208.392C69.9089 208.968 69.3169 209.424 68.5969 209.76C67.8929 210.096 67.0689 210.264 66.1249 210.264C65.8209 210.264 65.4769 210.232 65.0929 210.168C64.7249 210.104 64.3569 210 63.9889 209.856C63.6209 209.712 63.2689 209.52 62.9329 209.28C62.6129 209.024 62.3409 208.712 62.1169 208.344H62.0689V214.728H60.0289V197.592ZM69.6289 203.688C69.6289 203.112 69.5489 202.552 69.3889 202.008C69.2449 201.448 69.0129 200.952 68.6929 200.52C68.3889 200.088 67.9889 199.744 67.4929 199.488C67.0129 199.232 66.4449 199.104 65.7889 199.104C65.1009 199.104 64.5169 199.24 64.0369 199.512C63.5569 199.784 63.1649 200.144 62.8609 200.592C62.5569 201.024 62.3329 201.52 62.1889 202.08C62.0609 202.64 61.9969 203.208 61.9969 203.784C61.9969 204.392 62.0689 204.984 62.2129 205.56C62.3569 206.12 62.5809 206.616 62.8849 207.048C63.2049 207.48 63.6129 207.832 64.1089 208.104C64.6049 208.36 65.2049 208.488 65.9089 208.488C66.6129 208.488 67.1969 208.352 67.6609 208.08C68.1409 207.808 68.5249 207.448 68.8129 207C69.1009 206.552 69.3089 206.04 69.4369 205.464C69.5649 204.888 69.6289 204.296 69.6289 203.688ZM85.1755 209.952C84.8235 210.16 84.3355 210.264 83.7115 210.264C83.1835 210.264 82.7595 210.12 82.4395 209.832C82.1355 209.528 81.9835 209.04 81.9835 208.368C81.4235 209.04 80.7675 209.528 80.0155 209.832C79.2795 210.12 78.4795 210.264 77.6155 210.264C77.0555 210.264 76.5195 210.2 76.0075 210.072C75.5115 209.944 75.0795 209.744 74.7115 209.472C74.3435 209.2 74.0475 208.848 73.8235 208.416C73.6155 207.968 73.5115 207.432 73.5115 206.808C73.5115 206.104 73.6315 205.528 73.8715 205.08C74.1115 204.632 74.4235 204.272 74.8075 204C75.2075 203.712 75.6555 203.496 76.1515 203.352C76.6635 203.208 77.1835 203.088 77.7115 202.992C78.2715 202.88 78.7995 202.8 79.2955 202.752C79.8075 202.688 80.2555 202.608 80.6395 202.512C81.0235 202.4 81.3275 202.248 81.5515 202.056C81.7755 201.848 81.8875 201.552 81.8875 201.168C81.8875 200.72 81.7995 200.36 81.6235 200.088C81.4635 199.816 81.2475 199.608 80.9755 199.464C80.7195 199.32 80.4235 199.224 80.0875 199.176C79.7675 199.128 79.4475 199.104 79.1275 199.104C78.2635 199.104 77.5435 199.272 76.9675 199.608C76.3915 199.928 76.0795 200.544 76.0315 201.456H73.9915C74.0235 200.688 74.1835 200.04 74.4715 199.512C74.7595 198.984 75.1435 198.56 75.6235 198.24C76.1035 197.904 76.6475 197.664 77.2555 197.52C77.8795 197.376 78.5435 197.304 79.2475 197.304C79.8075 197.304 80.3595 197.344 80.9035 197.424C81.4635 197.504 81.9675 197.672 82.4155 197.928C82.8635 198.168 83.2235 198.512 83.4955 198.96C83.7675 199.408 83.9035 199.992 83.9035 200.712V207.096C83.9035 207.576 83.9275 207.928 83.9755 208.152C84.0395 208.376 84.2315 208.488 84.5515 208.488C84.7275 208.488 84.9355 208.448 85.1755 208.368V209.952ZM81.8635 203.592C81.6075 203.784 81.2715 203.928 80.8555 204.024C80.4395 204.104 79.9995 204.176 79.5355 204.24C79.0875 204.288 78.6315 204.352 78.1675 204.432C77.7035 204.496 77.2875 204.608 76.9195 204.768C76.5515 204.928 76.2475 205.16 76.0075 205.464C75.7835 205.752 75.6715 206.152 75.6715 206.664C75.6715 207 75.7355 207.288 75.8635 207.528C76.0075 207.752 76.1835 207.936 76.3915 208.08C76.6155 208.224 76.8715 208.328 77.1595 208.392C77.4475 208.456 77.7515 208.488 78.0715 208.488C78.7435 208.488 79.3195 208.4 79.7995 208.224C80.2795 208.032 80.6715 207.8 80.9755 207.528C81.2795 207.24 81.5035 206.936 81.6475 206.616C81.7915 206.28 81.8635 205.968 81.8635 205.68V203.592ZM87.0741 197.592H88.9941V199.56H89.0421C89.8901 198.056 91.2341 197.304 93.0741 197.304C93.8901 197.304 94.5701 197.416 95.1141 197.64C95.6581 197.864 96.0981 198.176 96.4341 198.576C96.7701 198.976 97.0021 199.456 97.1301 200.016C97.2741 200.56 97.3461 201.168 97.3461 201.84V210H95.3061V201.6C95.3061 200.832 95.0821 200.224 94.6341 199.776C94.1861 199.328 93.5701 199.104 92.7861 199.104C92.1621 199.104 91.6181 199.2 91.1541 199.392C90.7061 199.584 90.3301 199.856 90.0261 200.208C89.7221 200.56 89.4901 200.976 89.3301 201.456C89.1861 201.92 89.1141 202.432 89.1141 202.992V210H87.0741V197.592ZM109.026 202.608C108.994 202.128 108.882 201.672 108.69 201.24C108.514 200.808 108.266 200.44 107.946 200.136C107.642 199.816 107.274 199.568 106.842 199.392C106.426 199.2 105.962 199.104 105.45 199.104C104.922 199.104 104.442 199.2 104.01 199.392C103.594 199.568 103.234 199.816 102.93 200.136C102.626 200.456 102.386 200.832 102.21 201.264C102.034 201.68 101.93 202.128 101.898 202.608H109.026ZM110.994 206.064C110.722 207.456 110.122 208.504 109.194 209.208C108.266 209.912 107.098 210.264 105.69 210.264C104.698 210.264 103.834 210.104 103.098 209.784C102.378 209.464 101.77 209.016 101.274 208.44C100.778 207.864 100.402 207.176 100.146 206.376C99.906 205.576 99.77 204.704 99.738 203.76C99.738 202.816 99.882 201.952 100.17 201.168C100.458 200.384 100.858 199.704 101.37 199.128C101.898 198.552 102.514 198.104 103.218 197.784C103.938 197.464 104.722 197.304 105.57 197.304C106.674 197.304 107.586 197.536 108.306 198C109.042 198.448 109.626 199.024 110.058 199.728C110.506 200.432 110.81 201.2 110.97 202.032C111.146 202.864 111.218 203.656 111.186 204.408H101.898C101.882 204.952 101.946 205.472 102.09 205.968C102.234 206.448 102.466 206.88 102.786 207.264C103.106 207.632 103.514 207.928 104.01 208.152C104.506 208.376 105.09 208.488 105.762 208.488C106.626 208.488 107.33 208.288 107.874 207.888C108.434 207.488 108.802 206.88 108.978 206.064H110.994ZM114.549 206.088C114.565 206.536 114.669 206.92 114.861 207.24C115.053 207.544 115.301 207.792 115.605 207.984C115.925 208.16 116.277 208.288 116.661 208.368C117.061 208.448 117.469 208.488 117.885 208.488C118.205 208.488 118.541 208.464 118.893 208.416C119.245 208.368 119.565 208.28 119.853 208.152C120.157 208.024 120.405 207.84 120.597 207.6C120.789 207.344 120.885 207.024 120.885 206.64C120.885 206.112 120.685 205.712 120.285 205.44C119.885 205.168 119.381 204.952 118.773 204.792C118.181 204.616 117.533 204.464 116.829 204.336C116.125 204.192 115.469 204 114.861 203.76C114.269 203.504 113.773 203.152 113.373 202.704C112.973 202.256 112.773 201.632 112.773 200.832C112.773 200.208 112.909 199.672 113.181 199.224C113.469 198.776 113.829 198.416 114.261 198.144C114.709 197.856 115.205 197.648 115.749 197.52C116.309 197.376 116.861 197.304 117.405 197.304C118.109 197.304 118.757 197.368 119.349 197.496C119.941 197.608 120.461 197.816 120.909 198.12C121.373 198.408 121.741 198.808 122.013 199.32C122.285 199.816 122.445 200.44 122.493 201.192H120.453C120.421 200.792 120.317 200.464 120.141 200.208C119.965 199.936 119.741 199.72 119.469 199.56C119.197 199.4 118.893 199.288 118.557 199.224C118.237 199.144 117.909 199.104 117.573 199.104C117.269 199.104 116.957 199.128 116.637 199.176C116.333 199.224 116.053 199.312 115.797 199.44C115.541 199.552 115.333 199.712 115.173 199.92C115.013 200.112 114.933 200.368 114.933 200.688C114.933 201.04 115.053 201.336 115.293 201.576C115.549 201.8 115.869 201.992 116.253 202.152C116.637 202.296 117.069 202.424 117.549 202.536C118.029 202.632 118.509 202.736 118.989 202.848C119.501 202.96 119.997 203.096 120.477 203.256C120.973 203.416 121.405 203.632 121.773 203.904C122.157 204.16 122.461 204.488 122.685 204.888C122.925 205.288 123.045 205.784 123.045 206.376C123.045 207.128 122.885 207.752 122.565 208.248C122.261 208.744 121.853 209.144 121.341 209.448C120.845 209.752 120.277 209.96 119.637 210.072C119.013 210.2 118.389 210.264 117.765 210.264C117.077 210.264 116.421 210.192 115.797 210.048C115.173 209.904 114.621 209.672 114.141 209.352C113.661 209.016 113.277 208.584 112.989 208.056C112.701 207.512 112.541 206.856 112.509 206.088H114.549ZM133.917 202.608C133.885 202.128 133.773 201.672 133.581 201.24C133.405 200.808 133.157 200.44 132.837 200.136C132.533 199.816 132.165 199.568 131.733 199.392C131.317 199.2 130.853 199.104 130.341 199.104C129.813 199.104 129.333 199.2 128.901 199.392C128.485 199.568 128.125 199.816 127.821 200.136C127.517 200.456 127.277 200.832 127.101 201.264C126.925 201.68 126.821 202.128 126.789 202.608H133.917ZM135.885 206.064C135.613 207.456 135.013 208.504 134.085 209.208C133.157 209.912 131.989 210.264 130.581 210.264C129.589 210.264 128.725 210.104 127.989 209.784C127.269 209.464 126.661 209.016 126.165 208.44C125.669 207.864 125.293 207.176 125.037 206.376C124.797 205.576 124.661 204.704 124.629 203.76C124.629 202.816 124.773 201.952 125.061 201.168C125.349 200.384 125.749 199.704 126.261 199.128C126.789 198.552 127.405 198.104 128.109 197.784C128.829 197.464 129.613 197.304 130.461 197.304C131.565 197.304 132.477 197.536 133.197 198C133.933 198.448 134.517 199.024 134.949 199.728C135.397 200.432 135.701 201.2 135.861 202.032C136.037 202.864 136.109 203.656 136.077 204.408H126.789C126.773 204.952 126.837 205.472 126.981 205.968C127.125 206.448 127.357 206.88 127.677 207.264C127.997 207.632 128.405 207.928 128.901 208.152C129.397 208.376 129.981 208.488 130.653 208.488C131.517 208.488 132.221 208.288 132.765 207.888C133.325 207.488 133.693 206.88 133.869 206.064H135.885ZM153.295 201.576C153.135 200.792 152.799 200.184 152.287 199.752C151.775 199.32 151.087 199.104 150.223 199.104C149.487 199.104 148.871 199.24 148.375 199.512C147.879 199.784 147.479 200.144 147.175 200.592C146.887 201.04 146.679 201.56 146.551 202.152C146.423 202.728 146.359 203.328 146.359 203.952C146.359 204.528 146.423 205.088 146.551 205.632C146.695 206.176 146.911 206.664 147.199 207.096C147.487 207.512 147.863 207.848 148.327 208.104C148.791 208.36 149.343 208.488 149.983 208.488C150.991 208.488 151.775 208.224 152.335 207.696C152.911 207.168 153.263 206.424 153.391 205.464H155.479C155.255 207 154.679 208.184 153.751 209.016C152.839 209.848 151.591 210.264 150.007 210.264C149.063 210.264 148.223 210.112 147.487 209.808C146.767 209.504 146.159 209.072 145.663 208.512C145.183 207.952 144.815 207.288 144.559 206.52C144.319 205.736 144.199 204.88 144.199 203.952C144.199 203.024 144.319 202.16 144.559 201.36C144.799 200.544 145.159 199.84 145.639 199.248C146.135 198.64 146.751 198.168 147.487 197.832C148.223 197.48 149.079 197.304 150.055 197.304C150.759 197.304 151.415 197.392 152.023 197.568C152.647 197.728 153.191 197.984 153.655 198.336C154.135 198.688 154.527 199.136 154.831 199.68C155.135 200.208 155.327 200.84 155.407 201.576H153.295ZM159.922 195.36H157.882V192.864H159.922V195.36ZM157.882 197.592H159.922V210H157.882V197.592ZM165.914 197.592H168.386V199.392H165.914V207.096C165.914 207.336 165.93 207.528 165.962 207.672C166.01 207.816 166.09 207.928 166.202 208.008C166.314 208.088 166.466 208.144 166.658 208.176C166.866 208.192 167.13 208.2 167.45 208.2H168.386V210H166.826C166.298 210 165.842 209.968 165.458 209.904C165.09 209.824 164.786 209.688 164.546 209.496C164.322 209.304 164.154 209.032 164.042 208.68C163.93 208.328 163.874 207.864 163.874 207.288V199.392H161.762V197.592H163.874V193.872H165.914V197.592ZM175.524 211.656C175.284 212.264 175.044 212.776 174.804 213.192C174.58 213.608 174.324 213.944 174.036 214.2C173.764 214.472 173.452 214.664 173.1 214.776C172.764 214.904 172.372 214.968 171.924 214.968C171.684 214.968 171.444 214.952 171.204 214.92C170.964 214.888 170.732 214.832 170.508 214.752V212.88C170.684 212.96 170.884 213.024 171.108 213.072C171.348 213.136 171.548 213.168 171.708 213.168C172.124 213.168 172.468 213.064 172.74 212.856C173.028 212.664 173.244 212.384 173.388 212.016L174.228 209.928L169.308 197.592H171.612L175.236 207.744H175.284L178.764 197.592H180.924L175.524 211.656ZM189.404 197.592H191.444V199.272H191.492C191.828 198.584 192.356 198.088 193.076 197.784C193.796 197.464 194.588 197.304 195.452 197.304C196.412 197.304 197.244 197.48 197.948 197.832C198.668 198.184 199.26 198.664 199.724 199.272C200.204 199.864 200.564 200.552 200.804 201.336C201.044 202.12 201.164 202.952 201.164 203.832C201.164 204.712 201.044 205.544 200.804 206.328C200.58 207.112 200.228 207.8 199.748 208.392C199.284 208.968 198.692 209.424 197.972 209.76C197.268 210.096 196.444 210.264 195.5 210.264C195.196 210.264 194.852 210.232 194.468 210.168C194.1 210.104 193.732 210 193.364 209.856C192.996 209.712 192.644 209.52 192.308 209.28C191.988 209.024 191.716 208.712 191.492 208.344H191.444V214.728H189.404V197.592ZM199.004 203.688C199.004 203.112 198.924 202.552 198.764 202.008C198.62 201.448 198.388 200.952 198.068 200.52C197.764 200.088 197.364 199.744 196.868 199.488C196.388 199.232 195.82 199.104 195.164 199.104C194.476 199.104 193.892 199.24 193.412 199.512C192.932 199.784 192.54 200.144 192.236 200.592C191.932 201.024 191.708 201.52 191.564 202.08C191.436 202.64 191.372 203.208 191.372 203.784C191.372 204.392 191.444 204.984 191.588 205.56C191.732 206.12 191.956 206.616 192.26 207.048C192.58 207.48 192.988 207.832 193.484 208.104C193.98 208.36 194.58 208.488 195.284 208.488C195.988 208.488 196.572 208.352 197.036 208.08C197.516 207.808 197.9 207.448 198.188 207C198.476 206.552 198.684 206.04 198.812 205.464C198.94 204.888 199.004 204.296 199.004 203.688ZM205.046 203.808C205.046 204.56 205.142 205.232 205.334 205.824C205.542 206.4 205.822 206.888 206.174 207.288C206.526 207.672 206.934 207.968 207.398 208.176C207.878 208.384 208.382 208.488 208.91 208.488C209.438 208.488 209.934 208.384 210.398 208.176C210.878 207.968 211.294 207.672 211.646 207.288C211.998 206.888 212.27 206.4 212.462 205.824C212.67 205.232 212.774 204.56 212.774 203.808C212.774 203.056 212.67 202.392 212.462 201.816C212.27 201.224 211.998 200.728 211.646 200.328C211.294 199.928 210.878 199.624 210.398 199.416C209.934 199.208 209.438 199.104 208.91 199.104C208.382 199.104 207.878 199.208 207.398 199.416C206.934 199.624 206.526 199.928 206.174 200.328C205.822 200.728 205.542 201.224 205.334 201.816C205.142 202.392 205.046 203.056 205.046 203.808ZM202.886 203.808C202.886 202.896 203.014 202.048 203.27 201.264C203.526 200.464 203.91 199.776 204.422 199.2C204.934 198.608 205.566 198.144 206.318 197.808C207.07 197.472 207.934 197.304 208.91 197.304C209.902 197.304 210.766 197.472 211.502 197.808C212.254 198.144 212.886 198.608 213.398 199.2C213.91 199.776 214.294 200.464 214.55 201.264C214.806 202.048 214.934 202.896 214.934 203.808C214.934 204.72 214.806 205.568 214.55 206.352C214.294 207.136 213.91 207.824 213.398 208.416C212.886 208.992 212.254 209.448 211.502 209.784C210.766 210.104 209.902 210.264 208.91 210.264C207.934 210.264 207.07 210.104 206.318 209.784C205.566 209.448 204.934 208.992 204.422 208.416C203.91 207.824 203.526 207.136 203.27 206.352C203.014 205.568 202.886 204.72 202.886 203.808ZM217.412 197.592H219.452V199.272H219.5C219.836 198.584 220.364 198.088 221.084 197.784C221.804 197.464 222.596 197.304 223.46 197.304C224.42 197.304 225.252 197.48 225.956 197.832C226.676 198.184 227.268 198.664 227.732 199.272C228.212 199.864 228.572 200.552 228.812 201.336C229.052 202.12 229.172 202.952 229.172 203.832C229.172 204.712 229.052 205.544 228.812 206.328C228.588 207.112 228.236 207.8 227.756 208.392C227.292 208.968 226.7 209.424 225.98 209.76C225.276 210.096 224.452 210.264 223.508 210.264C223.204 210.264 222.86 210.232 222.476 210.168C222.108 210.104 221.74 210 221.372 209.856C221.004 209.712 220.652 209.52 220.316 209.28C219.996 209.024 219.724 208.712 219.5 208.344H219.452V214.728H217.412V197.592ZM227.012 203.688C227.012 203.112 226.932 202.552 226.772 202.008C226.628 201.448 226.396 200.952 226.076 200.52C225.772 200.088 225.372 199.744 224.876 199.488C224.396 199.232 223.828 199.104 223.172 199.104C222.484 199.104 221.9 199.24 221.42 199.512C220.94 199.784 220.548 200.144 220.244 200.592C219.94 201.024 219.716 201.52 219.572 202.08C219.444 202.64 219.38 203.208 219.38 203.784C219.38 204.392 219.452 204.984 219.596 205.56C219.74 206.12 219.964 206.616 220.268 207.048C220.588 207.48 220.996 207.832 221.492 208.104C221.988 208.36 222.588 208.488 223.292 208.488C223.996 208.488 224.58 208.352 225.044 208.08C225.524 207.808 225.908 207.448 226.196 207C226.484 206.552 226.692 206.04 226.82 205.464C226.948 204.888 227.012 204.296 227.012 203.688Z" fill="#CDCDCD"/>
<path d="M38.477 230.368C39.2983 230.699 39.8956 231.088 40.269 231.536C40.653 231.973 40.845 232.539 40.845 233.232C40.845 233.819 40.6956 234.336 40.397 234.784C40.109 235.221 39.6983 235.563 39.165 235.808C38.6423 236.053 38.0396 236.176 37.357 236.176C36.6743 236.176 36.0716 236.053 35.549 235.808C35.037 235.563 34.637 235.221 34.349 234.784C34.0716 234.336 33.933 233.824 33.933 233.248C33.933 231.883 34.6956 230.896 36.221 230.288C35.5916 230 35.1276 229.669 34.829 229.296C34.541 228.912 34.397 228.427 34.397 227.84C34.397 227.296 34.5356 226.821 34.813 226.416C35.0903 226.011 35.4583 225.707 35.917 225.504C36.3756 225.291 36.8663 225.184 37.389 225.184C37.9116 225.184 38.4023 225.285 38.861 225.488C39.3196 225.691 39.6876 225.989 39.965 226.384C40.253 226.779 40.397 227.259 40.397 227.824C40.397 228.379 40.2423 228.859 39.933 229.264C39.6236 229.659 39.1383 230.027 38.477 230.368ZM35.325 227.856C35.325 228.368 35.469 228.773 35.757 229.072C36.0556 229.371 36.5676 229.653 37.293 229.92L37.789 230.096C38.3863 229.776 38.813 229.445 39.069 229.104C39.3356 228.763 39.469 228.347 39.469 227.856C39.469 227.248 39.277 226.773 38.893 226.432C38.5196 226.091 38.0183 225.92 37.389 225.92C36.781 225.92 36.285 226.091 35.901 226.432C35.517 226.773 35.325 227.248 35.325 227.856ZM37.373 235.392C38.1303 235.392 38.733 235.205 39.181 234.832C39.6396 234.448 39.869 233.915 39.869 233.232C39.869 232.805 39.789 232.453 39.629 232.176C39.469 231.888 39.2236 231.643 38.893 231.44C38.5623 231.227 38.0983 231.008 37.501 230.784L36.957 230.576C36.2423 230.853 35.7196 231.211 35.389 231.648C35.069 232.075 34.909 232.608 34.909 233.248C34.909 233.931 35.133 234.459 35.581 234.832C36.029 235.205 36.6263 235.392 37.373 235.392ZM46.0943 225.184C47.193 225.184 48.025 225.653 48.5903 226.592C49.1557 227.52 49.4383 228.885 49.4383 230.688C49.4383 232.48 49.1503 233.845 48.5743 234.784C48.009 235.712 47.1823 236.176 46.0943 236.176C44.9957 236.176 44.1637 235.712 43.5983 234.784C43.033 233.845 42.7503 232.475 42.7503 230.672C42.7503 228.869 43.033 227.504 43.5983 226.576C44.1637 225.648 44.9957 225.184 46.0943 225.184ZM46.0943 225.952C44.505 225.952 43.7103 227.525 43.7103 230.672C43.7103 233.829 44.505 235.408 46.0943 235.408C46.873 235.408 47.4597 235.024 47.8543 234.256C48.2597 233.488 48.4623 232.299 48.4623 230.688C48.4623 229.077 48.2597 227.888 47.8543 227.12C47.4597 226.341 46.873 225.952 46.0943 225.952ZM54.2352 227.456C54.7579 227.456 55.2325 227.536 55.6592 227.696C56.0859 227.845 56.5019 228.075 56.9072 228.384L56.4752 228.992C56.0912 228.725 55.7285 228.533 55.3872 228.416C55.0459 228.288 54.6725 228.224 54.2672 228.224C53.7125 228.224 53.2645 228.352 52.9232 228.608C52.5819 228.864 52.4112 229.205 52.4112 229.632C52.4112 230.037 52.5552 230.352 52.8432 230.576C53.1419 230.8 53.6752 231.013 54.4432 231.216C55.3925 231.461 56.0752 231.771 56.4912 232.144C56.9179 232.517 57.1312 233.051 57.1312 233.744C57.1312 234.491 56.8432 235.083 56.2672 235.52C55.6912 235.957 54.9712 236.176 54.1072 236.176C53.4672 236.176 52.9072 236.085 52.4272 235.904C51.9472 235.712 51.5099 235.445 51.1152 235.104L51.6272 234.512C52.0005 234.811 52.3792 235.035 52.7632 235.184C53.1579 235.323 53.6005 235.392 54.0912 235.392C54.7099 235.392 55.2059 235.253 55.5792 234.976C55.9632 234.688 56.1552 234.293 56.1552 233.792C56.1552 233.451 56.0912 233.173 55.9632 232.96C55.8352 232.747 55.6165 232.565 55.3072 232.416C54.9979 232.256 54.5445 232.096 53.9472 231.936C53.0619 231.701 52.4219 231.408 52.0272 231.056C51.6432 230.704 51.4512 230.235 51.4512 229.648C51.4512 229.232 51.5739 228.859 51.8192 228.528C52.0645 228.187 52.3952 227.925 52.8112 227.744C53.2379 227.552 53.7125 227.456 54.2352 227.456ZM58.8448 231.392V230.592H63.0848V231.392H58.8448ZM67.9227 227.456C68.4454 227.456 68.92 227.536 69.3467 227.696C69.7734 227.845 70.1894 228.075 70.5947 228.384L70.1627 228.992C69.7787 228.725 69.416 228.533 69.0747 228.416C68.7334 228.288 68.36 228.224 67.9547 228.224C67.4 228.224 66.952 228.352 66.6107 228.608C66.2694 228.864 66.0987 229.205 66.0987 229.632C66.0987 230.037 66.2427 230.352 66.5307 230.576C66.8294 230.8 67.3627 231.013 68.1307 231.216C69.08 231.461 69.7627 231.771 70.1787 232.144C70.6054 232.517 70.8187 233.051 70.8187 233.744C70.8187 234.491 70.5307 235.083 69.9547 235.52C69.3787 235.957 68.6587 236.176 67.7947 236.176C67.1547 236.176 66.5947 236.085 66.1147 235.904C65.6347 235.712 65.1974 235.445 64.8027 235.104L65.3147 234.512C65.688 234.811 66.0667 235.035 66.4507 235.184C66.8454 235.323 67.288 235.392 67.7787 235.392C68.3974 235.392 68.8934 235.253 69.2667 234.976C69.6507 234.688 69.8427 234.293 69.8427 233.792C69.8427 233.451 69.7787 233.173 69.6507 232.96C69.5227 232.747 69.304 232.565 68.9947 232.416C68.6854 232.256 68.232 232.096 67.6347 231.936C66.7494 231.701 66.1094 231.408 65.7147 231.056C65.3307 230.704 65.1387 230.235 65.1387 229.648C65.1387 229.232 65.2614 228.859 65.5067 228.528C65.752 228.187 66.0827 227.925 66.4987 227.744C66.9254 227.552 67.4 227.456 67.9227 227.456ZM77.1046 235.648C76.5713 236 75.9846 236.176 75.3446 236.176C74.7046 236.176 74.2033 235.989 73.8406 235.616C73.4779 235.232 73.2966 234.683 73.2966 233.968V228.384H71.8886V227.632H73.2966V225.632L74.2246 225.52V227.632H76.3846L76.2726 228.384H74.2246V233.92C74.2246 234.411 74.3259 234.779 74.5286 235.024C74.7313 235.259 75.0406 235.376 75.4566 235.376C75.8833 235.376 76.3099 235.253 76.7366 235.008L77.1046 235.648ZM81.3436 236.032C81.1196 236.683 80.8743 237.216 80.6076 237.632C80.3409 238.048 79.9943 238.389 79.5676 238.656C79.1409 238.933 78.5916 239.136 77.9196 239.264L77.8236 238.544C78.3783 238.405 78.8103 238.235 79.1196 238.032C79.4396 237.829 79.6903 237.573 79.8716 237.264C80.0636 236.965 80.2556 236.544 80.4476 236H80.1276L77.2156 227.632H78.2236L80.7516 235.312L83.2316 227.632H84.2076L81.3436 236.032ZM87.548 236.176C87.0893 236.176 86.7266 236.043 86.46 235.776C86.204 235.509 86.076 235.115 86.076 234.592V224.224L87.004 224.112V234.56C87.004 235.104 87.228 235.376 87.676 235.376C87.9 235.376 88.092 235.339 88.252 235.264L88.508 235.952C88.2093 236.101 87.8893 236.176 87.548 236.176ZM96.5607 231.504C96.5607 231.739 96.55 231.963 96.5287 232.176H90.9447C90.998 233.264 91.254 234.075 91.7127 234.608C92.182 235.131 92.7954 235.392 93.5527 235.392C93.99 235.392 94.374 235.328 94.7047 235.2C95.046 235.061 95.414 234.848 95.8087 234.56L96.2407 235.152C95.8247 235.493 95.398 235.749 94.9607 235.92C94.5234 236.091 94.038 236.176 93.5047 236.176C92.3954 236.176 91.526 235.797 90.8967 235.04C90.2674 234.283 89.9527 233.232 89.9527 231.888C89.9527 231.003 90.086 230.229 90.3527 229.568C90.63 228.896 91.0194 228.379 91.5207 228.016C92.0327 227.643 92.6247 227.456 93.2967 227.456C94.3634 227.456 95.174 227.819 95.7287 228.544C96.2834 229.259 96.5607 230.245 96.5607 231.504ZM95.6487 231.216C95.6487 230.277 95.4514 229.547 95.0567 229.024C94.6727 228.491 94.0967 228.224 93.3287 228.224C92.6354 228.224 92.0754 228.491 91.6487 229.024C91.222 229.557 90.9874 230.368 90.9447 231.456H95.6487V231.216ZM111.832 227.456C112.504 227.456 113.032 227.685 113.416 228.144C113.81 228.603 114.008 229.227 114.008 230.016V236H113.08V230.144C113.08 229.483 112.952 228.997 112.696 228.688C112.45 228.368 112.104 228.208 111.656 228.208C111.186 228.208 110.765 228.357 110.392 228.656C110.018 228.955 109.656 229.381 109.304 229.936V236H108.376V230.144C108.376 229.483 108.248 228.997 107.992 228.688C107.746 228.368 107.4 228.208 106.952 228.208C106.472 228.208 106.045 228.357 105.672 228.656C105.298 228.955 104.941 229.381 104.6 229.936V236H103.672V227.632H104.472L104.552 229.056C104.872 228.555 105.25 228.165 105.688 227.888C106.125 227.6 106.605 227.456 107.128 227.456C107.661 227.456 108.109 227.605 108.472 227.904C108.834 228.192 109.08 228.597 109.208 229.12C109.538 228.597 109.922 228.192 110.36 227.904C110.808 227.605 111.298 227.456 111.832 227.456ZM123.184 236H122.384L122.336 234.512C121.675 235.621 120.763 236.176 119.6 236.176C118.843 236.176 118.256 235.957 117.84 235.52C117.435 235.072 117.232 234.437 117.232 233.616V227.632H118.16V233.52C118.16 234.171 118.294 234.651 118.56 234.96C118.838 235.259 119.254 235.408 119.808 235.408C120.779 235.408 121.595 234.837 122.256 233.696V227.632H123.184V236ZM128.626 227.456C129.149 227.456 129.623 227.536 130.05 227.696C130.477 227.845 130.893 228.075 131.298 228.384L130.866 228.992C130.482 228.725 130.119 228.533 129.778 228.416C129.437 228.288 129.063 228.224 128.658 228.224C128.103 228.224 127.655 228.352 127.314 228.608C126.973 228.864 126.802 229.205 126.802 229.632C126.802 230.037 126.946 230.352 127.234 230.576C127.533 230.8 128.066 231.013 128.834 231.216C129.783 231.461 130.466 231.771 130.882 232.144C131.309 232.517 131.522 233.051 131.522 233.744C131.522 234.491 131.234 235.083 130.658 235.52C130.082 235.957 129.362 236.176 128.498 236.176C127.858 236.176 127.298 236.085 126.818 235.904C126.338 235.712 125.901 235.445 125.506 235.104L126.018 234.512C126.391 234.811 126.77 235.035 127.154 235.184C127.549 235.323 127.991 235.392 128.482 235.392C129.101 235.392 129.597 235.253 129.97 234.976C130.354 234.688 130.546 234.293 130.546 233.792C130.546 233.451 130.482 233.173 130.354 232.96C130.226 232.747 130.007 232.565 129.698 232.416C129.389 232.256 128.935 232.096 128.338 231.936C127.453 231.701 126.813 231.408 126.418 231.056C126.034 230.704 125.842 230.235 125.842 229.648C125.842 229.232 125.965 228.859 126.21 228.528C126.455 228.187 126.786 227.925 127.202 227.744C127.629 227.552 128.103 227.456 128.626 227.456ZM134.928 227.632V236H134V227.632H134.928ZM134.448 223.952C134.661 223.952 134.832 224.016 134.96 224.144C135.088 224.272 135.152 224.432 135.152 224.624C135.152 224.816 135.088 224.976 134.96 225.104C134.832 225.232 134.661 225.296 134.448 225.296C134.245 225.296 134.08 225.232 133.952 225.104C133.824 224.976 133.76 224.816 133.76 224.624C133.76 224.432 133.824 224.272 133.952 224.144C134.08 224.016 134.245 223.952 134.448 223.952ZM141.176 227.456C141.656 227.456 142.083 227.525 142.456 227.664C142.83 227.792 143.192 228.005 143.544 228.304L143.08 228.912C142.803 228.688 142.515 228.523 142.216 228.416C141.928 228.309 141.598 228.256 141.224 228.256C140.435 228.256 139.806 228.565 139.336 229.184C138.867 229.792 138.632 230.683 138.632 231.856C138.632 233.019 138.862 233.893 139.32 234.48C139.79 235.067 140.419 235.36 141.208 235.36C141.582 235.36 141.918 235.301 142.216 235.184C142.526 235.067 142.835 234.891 143.144 234.656L143.592 235.28C142.888 235.877 142.088 236.176 141.192 236.176C140.478 236.176 139.854 236.005 139.32 235.664C138.787 235.323 138.371 234.832 138.072 234.192C137.784 233.541 137.64 232.768 137.64 231.872C137.64 230.987 137.784 230.213 138.072 229.552C138.371 228.88 138.787 228.363 139.32 228C139.854 227.637 140.472 227.456 141.176 227.456ZM153.721 227.456C154.692 227.456 155.444 227.829 155.977 228.576C156.51 229.323 156.777 230.389 156.777 231.776C156.777 233.131 156.494 234.203 155.929 234.992C155.374 235.781 154.596 236.176 153.593 236.176C153.092 236.176 152.633 236.064 152.217 235.84C151.812 235.616 151.47 235.317 151.193 234.944L151.097 236H150.281V224.224L151.209 224.112V228.8C151.87 227.904 152.708 227.456 153.721 227.456ZM153.417 235.408C154.174 235.408 154.756 235.104 155.161 234.496C155.577 233.877 155.785 232.971 155.785 231.776C155.785 229.408 155.033 228.224 153.529 228.224C153.028 228.224 152.596 228.352 152.233 228.608C151.87 228.853 151.529 229.205 151.209 229.664V234.064C151.476 234.48 151.796 234.811 152.169 235.056C152.542 235.291 152.958 235.408 153.417 235.408ZM160.97 236.176C160.511 236.176 160.149 236.043 159.882 235.776C159.626 235.509 159.498 235.115 159.498 234.592V224.224L160.426 224.112V234.56C160.426 235.104 160.65 235.376 161.098 235.376C161.322 235.376 161.514 235.339 161.674 235.264L161.93 235.952C161.631 236.101 161.311 236.176 160.97 236.176ZM169.983 231.504C169.983 231.739 169.972 231.963 169.951 232.176H164.367C164.42 233.264 164.676 234.075 165.135 234.608C165.604 235.131 166.217 235.392 166.975 235.392C167.412 235.392 167.796 235.328 168.127 235.2C168.468 235.061 168.836 234.848 169.231 234.56L169.663 235.152C169.247 235.493 168.82 235.749 168.383 235.92C167.945 236.091 167.46 236.176 166.927 236.176C165.817 236.176 164.948 235.797 164.319 235.04C163.689 234.283 163.375 233.232 163.375 231.888C163.375 231.003 163.508 230.229 163.775 229.568C164.052 228.896 164.441 228.379 164.943 228.016C165.455 227.643 166.047 227.456 166.719 227.456C167.785 227.456 168.596 227.819 169.151 228.544C169.705 229.259 169.983 230.245 169.983 231.504ZM169.071 231.216C169.071 230.277 168.873 229.547 168.479 229.024C168.095 228.491 167.519 228.224 166.751 228.224C166.057 228.224 165.497 228.491 165.071 229.024C164.644 229.557 164.409 230.368 164.367 231.456H169.071V231.216ZM176.321 227.456C177.078 227.456 177.654 227.68 178.049 228.128C178.454 228.576 178.657 229.205 178.657 230.016V236H177.729V230.144C177.729 229.472 177.595 228.981 177.329 228.672C177.062 228.363 176.667 228.208 176.145 228.208C175.611 228.208 175.137 228.357 174.721 228.656C174.315 228.944 173.926 229.371 173.553 229.936V236H172.625V227.632H173.425L173.521 229.056C173.862 228.555 174.267 228.165 174.737 227.888C175.206 227.6 175.734 227.456 176.321 227.456ZM187.936 224.224V236H187.136L187.024 234.72C186.448 235.691 185.611 236.176 184.512 236.176C183.542 236.176 182.774 235.792 182.208 235.024C181.654 234.245 181.376 233.189 181.376 231.856C181.376 230.992 181.504 230.229 181.76 229.568C182.027 228.907 182.406 228.389 182.896 228.016C183.398 227.643 183.984 227.456 184.656 227.456C185.606 227.456 186.39 227.835 187.008 228.592V224.112L187.936 224.224ZM184.656 235.408C185.19 235.408 185.638 235.28 186 235.024C186.374 234.768 186.71 234.379 187.008 233.856V229.488C186.411 228.645 185.68 228.224 184.816 228.224C184.059 228.224 183.456 228.539 183.008 229.168C182.571 229.797 182.358 230.688 182.368 231.84C182.368 232.992 182.571 233.877 182.976 234.496C183.382 235.104 183.942 235.408 184.656 235.408ZM192.256 227.632V236H191.328V227.632H192.256ZM191.776 223.952C191.989 223.952 192.16 224.016 192.288 224.144C192.416 224.272 192.48 224.432 192.48 224.624C192.48 224.816 192.416 224.976 192.288 225.104C192.16 225.232 191.989 225.296 191.776 225.296C191.573 225.296 191.408 225.232 191.28 225.104C191.152 224.976 191.088 224.816 191.088 224.624C191.088 224.432 191.152 224.272 191.28 224.144C191.408 224.016 191.573 223.952 191.776 223.952ZM199.336 227.456C200.094 227.456 200.67 227.68 201.064 228.128C201.47 228.576 201.672 229.205 201.672 230.016V236H200.744V230.144C200.744 229.472 200.611 228.981 200.344 228.672C200.078 228.363 199.683 228.208 199.16 228.208C198.627 228.208 198.152 228.357 197.736 228.656C197.331 228.944 196.942 229.371 196.568 229.936V236H195.64V227.632H196.44L196.536 229.056C196.878 228.555 197.283 228.165 197.752 227.888C198.222 227.6 198.75 227.456 199.336 227.456ZM211.208 227.808C210.696 227.947 209.923 228.027 208.888 228.048C209.837 228.496 210.312 229.253 210.312 230.32C210.312 231.141 210.04 231.808 209.496 232.32C208.952 232.821 208.216 233.072 207.288 233.072C206.872 233.072 206.509 233.019 206.2 232.912C205.997 233.029 205.837 233.173 205.72 233.344C205.613 233.504 205.56 233.68 205.56 233.872C205.56 234.448 206.003 234.736 206.888 234.736H208.248C209.069 234.736 209.72 234.939 210.2 235.344C210.691 235.739 210.936 236.251 210.936 236.88C210.936 237.648 210.632 238.24 210.024 238.656C209.416 239.072 208.509 239.28 207.304 239.28C206.056 239.28 205.16 239.088 204.616 238.704C204.083 238.331 203.816 237.723 203.816 236.88H204.68C204.691 237.285 204.776 237.605 204.936 237.84C205.096 238.075 205.363 238.245 205.736 238.352C206.109 238.459 206.632 238.512 207.304 238.512C208.243 238.512 208.925 238.373 209.352 238.096C209.779 237.829 209.992 237.44 209.992 236.928C209.992 236.48 209.827 236.139 209.496 235.904C209.165 235.659 208.701 235.536 208.104 235.536H206.744C206.083 235.536 205.571 235.397 205.208 235.12C204.856 234.843 204.68 234.491 204.68 234.064C204.68 233.787 204.76 233.525 204.92 233.28C205.08 233.035 205.304 232.821 205.592 232.64C205.112 232.395 204.755 232.08 204.52 231.696C204.296 231.312 204.184 230.843 204.184 230.288C204.184 229.445 204.467 228.763 205.032 228.24C205.597 227.717 206.339 227.456 207.256 227.456C208.269 227.467 209.005 227.429 209.464 227.344C209.933 227.259 210.419 227.115 210.92 226.912L211.208 227.808ZM207.256 228.176C206.563 228.176 206.035 228.368 205.672 228.752C205.32 229.136 205.144 229.648 205.144 230.288C205.144 230.949 205.331 231.467 205.704 231.84C206.088 232.213 206.605 232.4 207.256 232.4C207.939 232.4 208.461 232.219 208.824 231.856C209.187 231.483 209.368 230.965 209.368 230.304C209.368 229.632 209.187 229.109 208.824 228.736C208.472 228.363 207.949 228.176 207.256 228.176ZM219.964 224.88C219.484 224.88 219.121 224.992 218.876 225.216C218.641 225.44 218.524 225.797 218.524 226.288V227.632H220.732L220.604 228.384H218.524V236H217.596V228.384H216.14V227.632H217.596V226.256C217.596 225.595 217.798 225.072 218.204 224.688C218.62 224.304 219.19 224.112 219.916 224.112C220.566 224.112 221.217 224.261 221.868 224.56L221.548 225.248C220.993 225.003 220.465 224.88 219.964 224.88ZM228.512 236H227.712L227.664 234.512C227.003 235.621 226.091 236.176 224.928 236.176C224.171 236.176 223.584 235.957 223.168 235.52C222.763 235.072 222.56 234.437 222.56 233.616V227.632H223.488V233.52C223.488 234.171 223.622 234.651 223.888 234.96C224.166 235.259 224.582 235.408 225.136 235.408C226.107 235.408 226.923 234.837 227.584 233.696V227.632H228.512V236ZM235.602 227.456C236.359 227.456 236.935 227.68 237.33 228.128C237.735 228.576 237.938 229.205 237.938 230.016V236H237.01V230.144C237.01 229.472 236.877 228.981 236.61 228.672C236.343 228.363 235.949 228.208 235.426 228.208C234.893 228.208 234.418 228.357 234.002 228.656C233.597 228.944 233.207 229.371 232.834 229.936V236H231.906V227.632H232.706L232.802 229.056C233.143 228.555 233.549 228.165 234.018 227.888C234.487 227.6 235.015 227.456 235.602 227.456ZM242.178 224.112V236H241.25V224.224L242.178 224.112ZM246.866 227.632L243.346 231.376L247.234 236H246.114L242.274 231.424L245.794 227.632H246.866ZM249.045 234.656C249.269 234.656 249.451 234.731 249.589 234.88C249.739 235.019 249.813 235.195 249.813 235.408C249.813 235.643 249.733 235.936 249.573 236.288L248.677 238.416H248.005L248.645 236.064C248.528 236 248.437 235.909 248.373 235.792C248.309 235.675 248.277 235.547 248.277 235.408C248.277 235.195 248.352 235.019 248.501 234.88C248.651 234.731 248.832 234.656 249.045 234.656ZM257.803 235.696C257.803 236.421 257.723 236.997 257.563 237.424C257.403 237.861 257.168 238.208 256.859 238.464C256.549 238.731 256.112 238.992 255.547 239.248L255.275 238.576C255.68 238.373 255.989 238.171 256.203 237.968C256.427 237.776 256.592 237.504 256.699 237.152C256.816 236.811 256.875 236.336 256.875 235.728V227.632H257.803V235.696ZM257.323 223.952C257.536 223.952 257.707 224.016 257.835 224.144C257.963 224.272 258.027 224.432 258.027 224.624C258.027 224.816 257.963 224.976 257.835 225.104C257.707 225.232 257.536 225.296 257.323 225.296C257.12 225.296 256.955 225.232 256.827 225.104C256.699 224.976 256.635 224.816 256.635 224.624C256.635 224.432 256.699 224.272 256.827 224.144C256.955 224.016 257.12 223.952 257.323 223.952ZM266.387 234.144C266.387 234.581 266.441 234.896 266.547 235.088C266.665 235.28 266.846 235.424 267.091 235.52L266.883 236.176C266.499 236.101 266.201 235.957 265.987 235.744C265.785 235.531 265.651 235.205 265.587 234.768C265.011 235.707 264.142 236.176 262.979 236.176C262.179 236.176 261.545 235.952 261.075 235.504C260.617 235.045 260.387 234.437 260.387 233.68C260.387 232.816 260.691 232.149 261.299 231.68C261.918 231.211 262.771 230.976 263.859 230.976H265.459V230.16C265.459 229.488 265.31 229.003 265.011 228.704C264.713 228.395 264.217 228.24 263.523 228.24C262.883 228.24 262.126 228.4 261.251 228.72L261.011 228.016C261.95 227.643 262.83 227.456 263.651 227.456C265.475 227.456 266.387 228.341 266.387 230.112V234.144ZM263.139 235.424C264.142 235.424 264.915 234.933 265.459 233.952V231.648H264.003C263.15 231.648 262.499 231.813 262.051 232.144C261.603 232.475 261.379 232.971 261.379 233.632C261.379 234.208 261.534 234.651 261.843 234.96C262.153 235.269 262.585 235.424 263.139 235.424ZM274.277 227.632V228.352L269.605 235.2H274.245L274.149 236H268.517V235.28L273.189 228.432H268.901V227.632H274.277ZM281.027 227.632V228.352L276.355 235.2H280.995L280.899 236H275.267V235.28L279.939 228.432H275.651V227.632H281.027ZM286.593 234.656C286.817 234.656 286.999 234.731 287.137 234.88C287.287 235.019 287.361 235.195 287.361 235.408C287.361 235.632 287.287 235.819 287.137 235.968C286.999 236.107 286.817 236.176 286.593 236.176C286.38 236.176 286.199 236.101 286.049 235.952C285.9 235.803 285.825 235.621 285.825 235.408C285.825 235.195 285.9 235.019 286.049 234.88C286.199 234.731 286.38 234.656 286.593 234.656ZM289.953 234.672C290.177 234.672 290.359 234.747 290.497 234.896C290.647 235.035 290.721 235.211 290.721 235.424C290.721 235.648 290.647 235.835 290.497 235.984C290.359 236.123 290.177 236.192 289.953 236.192C289.74 236.192 289.559 236.117 289.409 235.968C289.26 235.819 289.185 235.637 289.185 235.424C289.185 235.211 289.26 235.035 289.409 234.896C289.559 234.747 289.74 234.672 289.953 234.672ZM283.217 234.656C283.441 234.656 283.623 234.731 283.761 234.88C283.911 235.019 283.985 235.195 283.985 235.408C283.985 235.632 283.911 235.819 283.761 235.968C283.623 236.107 283.441 236.176 283.217 236.176C283.004 236.176 282.823 236.101 282.673 235.952C282.524 235.803 282.449 235.621 282.449 235.408C282.449 235.195 282.524 235.019 282.673 234.88C282.823 234.731 283.004 234.656 283.217 234.656Z" fill="#CDCDCD"/>
<rect width="40.1028" height="40" transform="translate(313.805 196)" fill="#111111"/>
<path d="M316.311 235.125L353.06 216L316.311 196.875V235.125Z" fill="#111111"/>
<rect width="390" height="56" transform="translate(0 724)" fill="#EDF2F3"/>
<rect y="724" width="96" height="56" fill="#111111"/>
<rect width="16" height="16" transform="translate(322 744)" fill="#111111"/>
<path d="M328 759V745H326V759H328ZM334 759V745H332V759H334Z" fill="#111111"/>
<rect width="390" height="64" transform="translate(0 780)" fill="#CDCDCD"/>
<rect width="16" height="16" transform="translate(50.5 804)" fill="#111111"/>
<path d="M50.5 812C50.5 809.878 51.3429 807.843 52.8431 806.343C54.3434 804.843 56.3783 804 58.5 804C60.6217 804 62.6566 804.843 64.1569 806.343C65.6571 807.843 66.5 809.878 66.5 812V820H62.5C61.9696 820 61.4609 819.789 61.0858 819.414C60.7107 819.039 60.5 818.53 60.5 818V814C60.5 813.47 60.7107 812.961 61.0858 812.586C61.4609 812.211 61.9696 812 62.5 812H64.5C64.5 810.409 63.8679 808.883 62.7426 807.757C61.6174 806.632 60.0913 806 58.5 806C56.9087 806 55.3826 806.632 54.2574 807.757C53.1321 808.883 52.5 810.409 52.5 812H54.5C55.0304 812 55.5391 812.211 55.9142 812.586C56.2893 812.961 56.5 813.47 56.5 814V818C56.5 818.53 56.2893 819.039 55.9142 819.414C55.5391 819.789 55.0304 820 54.5 820H50.5V812ZM52.5 814V818H54.5V814H52.5ZM64.5 814H62.5V818H64.5V814Z" fill="#111111"/>
<rect width="16" height="16" transform="translate(141.5 804)" fill="#111111"/>
<path d="M141.5 812C141.5 809.878 142.343 807.843 143.843 806.343C145.343 804.843 147.378 804 149.5 804C151.622 804 153.657 804.843 155.157 806.343C156.657 807.843 157.5 809.878 157.5 812C157.5 814.122 156.657 816.157 155.157 817.657C153.657 819.157 151.622 820 149.5 820C147.378 820 145.343 819.157 143.843 817.657C142.343 816.157 141.5 814.122 141.5 812ZM145.67 811C145.743 809.758 145.952 808.527 146.294 807.33L146.434 806.842C145.686 807.287 145.043 807.889 144.551 808.607C144.058 809.325 143.728 810.142 143.583 811H145.67ZM145.67 813H143.583C143.728 813.859 144.058 814.675 144.55 815.393C145.042 816.112 145.685 816.714 146.433 817.159L146.294 816.67C145.952 815.473 145.743 814.242 145.67 813ZM148.74 817.952C149.245 818.016 149.755 818.016 150.26 817.952L150.783 816.121C151.075 815.098 151.256 814.051 151.326 813H147.674C147.744 814.052 147.925 815.098 148.217 816.12L148.741 817.952H148.74ZM147.675 811H151.327C151.257 809.944 151.075 808.898 150.784 807.88L150.26 806.048C149.756 805.984 149.246 805.984 148.742 806.048L148.218 807.879C147.927 808.897 147.745 809.943 147.674 811H147.675ZM152.707 816.67L152.567 817.159C153.315 816.714 153.958 816.112 154.45 815.393C154.942 814.675 155.272 813.859 155.417 813H153.33C153.257 814.242 153.049 815.473 152.707 816.67ZM152.707 807.33C153.05 808.532 153.258 809.763 153.331 811H155.418C155.273 810.142 154.943 809.325 154.451 808.607C153.959 807.889 153.316 807.287 152.568 806.842L152.707 807.33Z" fill="#111111"/>
<rect width="16" height="16" transform="translate(232.5 804)" fill="#111111"/>
<path d="M239.5 806C238.174 806 236.902 806.527 235.964 807.464C235.027 808.402 234.5 809.674 234.5 811C234.5 812.326 235.027 813.598 235.964 814.536C236.902 815.473 238.174 816 239.5 816C240.826 816 242.098 815.473 243.036 814.536C243.973 813.598 244.5 812.326 244.5 811C244.5 809.674 243.973 808.402 243.036 807.464C242.098 806.527 240.826 806 239.5 806ZM232.5 811C232.5 809.891 232.763 808.798 233.268 807.811C233.773 806.824 234.506 805.971 235.405 805.323C236.304 804.674 237.345 804.248 238.441 804.081C239.537 803.913 240.657 804.008 241.709 804.358C242.761 804.708 243.715 805.302 244.492 806.093C245.269 806.884 245.848 807.848 246.179 808.906C246.511 809.964 246.587 811.085 246.4 812.178C246.214 813.271 245.77 814.304 245.106 815.192L248.207 818.292L246.793 819.707L243.693 816.607C242.653 817.385 241.416 817.859 240.122 817.974C238.827 818.089 237.527 817.842 236.365 817.26C235.203 816.678 234.226 815.785 233.544 814.679C232.861 813.573 232.5 812.299 232.5 811Z" fill="#111111"/>
<rect width="16" height="16" transform="translate(323.5 804)" fill="#111111"/>
<path d="M331.5 804C330.439 804 329.422 804.421 328.672 805.172C327.921 805.922 327.5 806.939 327.5 808C327.5 809.061 327.921 810.078 328.672 810.828C329.422 811.579 330.439 812 331.5 812C332.561 812 333.578 811.579 334.328 810.828C335.079 810.078 335.5 809.061 335.5 808C335.5 806.939 335.079 805.922 334.328 805.172C333.578 804.421 332.561 804 331.5 804ZM329.5 808C329.5 807.47 329.711 806.961 330.086 806.586C330.461 806.211 330.97 806 331.5 806C332.03 806 332.539 806.211 332.914 806.586C333.289 806.961 333.5 807.47 333.5 808C333.5 808.53 333.289 809.039 332.914 809.414C332.539 809.789 332.03 810 331.5 810C330.97 810 330.461 809.789 330.086 809.414C329.711 809.039 329.5 808.53 329.5 808ZM329.5 813C328.704 813 327.941 813.316 327.379 813.879C326.816 814.441 326.5 815.204 326.5 816V820H336.5V816C336.5 815.204 336.184 814.441 335.621 813.879C335.059 813.316 334.296 813 333.5 813H329.5ZM328.5 816C328.5 815.735 328.605 815.48 328.793 815.293C328.98 815.105 329.235 815 329.5 815H333.5C333.765 815 334.02 815.105 334.207 815.293C334.395 815.48 334.5 815.735 334.5 816V818H328.5V816Z" fill="#111111"/>
</g>
<defs>
<clipPath id="clip0_575_1205">
<rect width="390" height="844" fill="white"/>
</clipPath>
</defs>
</svg>
