<svg width="390" height="844" viewBox="0 0 390 844" fill="none" xmlns="http://www.w3.org/2000/svg">
<rect width="390" height="844" fill="#111111"/>
<rect x="20" y="122" width="350" height="310" fill="#D9D9D9"/>
<rect width="17" height="16" transform="matrix(0 1 1 0 24 73)" fill="#CDCDCD"/>
<rect width="48" height="29" transform="translate(20 464)" fill="#CDCDCD"/>
<rect width="125" height="19" transform="translate(20 501)" fill="#CDCDCD"/>
<rect width="32" height="19" transform="translate(20 529)" fill="#CDCDCD"/>
<rect x="20" y="595" width="241" height="4" fill="#CDCDCD"/>
<rect x="261" y="595" width="110" height="4" fill="#CDCDCD"/>
<rect width="39" height="19" transform="translate(28 569.5)" fill="#EDF2F3"/>
<rect width="39" height="19" transform="translate(331 569.5)" fill="#EDF2F3"/>
<rect width="350" height="43" transform="translate(20 797)" fill="#CDCDCD"/>
<path d="M32.816 800.976L30.576 812H28.624L26.592 802.768L24.544 812H22.64L20.4 800.976H21.888L23.664 810.672L25.792 800.976H27.408L29.584 810.672L31.424 800.976H32.816ZM39.9344 810.032C39.9344 810.373 39.993 810.629 40.1104 810.8C40.2277 810.96 40.4037 811.083 40.6384 811.168L40.3024 812.192C39.865 812.139 39.513 812.016 39.2464 811.824C38.9797 811.632 38.7824 811.333 38.6544 810.928C38.089 811.771 37.2517 812.192 36.1424 812.192C35.3104 812.192 34.6544 811.957 34.1744 811.488C33.6944 811.019 33.4544 810.405 33.4544 809.648C33.4544 808.752 33.7744 808.064 34.4144 807.584C35.065 807.104 35.9824 806.864 37.1664 806.864H38.4624V806.24C38.4624 805.643 38.3184 805.216 38.0304 804.96C37.7424 804.704 37.2997 804.576 36.7024 804.576C36.0837 804.576 35.3264 804.725 34.4304 805.024L34.0624 803.952C35.1077 803.568 36.0784 803.376 36.9744 803.376C37.9664 803.376 38.7077 803.621 39.1984 804.112C39.689 804.592 39.9344 805.28 39.9344 806.176V810.032ZM36.4784 811.088C37.321 811.088 37.9824 810.651 38.4624 809.776V807.84H37.3584C35.801 807.84 35.0224 808.416 35.0224 809.568C35.0224 810.069 35.145 810.448 35.3904 810.704C35.6357 810.96 35.9984 811.088 36.4784 811.088ZM44.4813 812.192C43.9373 812.192 43.5053 812.032 43.1853 811.712C42.8759 811.381 42.7213 810.923 42.7213 810.336V800.176L44.1933 800V810.304C44.1933 810.539 44.2306 810.709 44.3053 810.816C44.3906 810.923 44.5293 810.976 44.7213 810.976C44.9239 810.976 45.1053 810.944 45.2653 810.88L45.6493 811.904C45.2973 812.096 44.9079 812.192 44.4813 812.192ZM51.7448 811.616C51.1901 812 50.5608 812.192 49.8568 812.192C49.1421 812.192 48.5821 811.989 48.1768 811.584C47.7821 811.168 47.5848 810.571 47.5848 809.792V804.704H46.1128V803.568H47.5848V801.664L49.0568 801.488V803.568H51.0568L50.8968 804.704H49.0568V809.728C49.0568 810.165 49.1314 810.485 49.2808 810.688C49.4408 810.88 49.7021 810.976 50.0648 810.976C50.3954 810.976 50.7688 810.864 51.1848 810.64L51.7448 811.616ZM59.4036 807.536C59.4036 807.781 59.393 808.032 59.3716 808.288H53.9956C54.0596 809.216 54.2943 809.899 54.6996 810.336C55.105 810.773 55.6276 810.992 56.2676 810.992C56.673 810.992 57.0463 810.933 57.3876 810.816C57.729 810.699 58.0863 810.512 58.4596 810.256L59.0996 811.136C58.2036 811.84 57.2223 812.192 56.1556 812.192C54.9823 812.192 54.065 811.808 53.4036 811.04C52.753 810.272 52.4276 809.216 52.4276 807.872C52.4276 806.997 52.5663 806.224 52.8436 805.552C53.1316 804.869 53.537 804.336 54.0596 803.952C54.593 803.568 55.217 803.376 55.9316 803.376C57.0516 803.376 57.9103 803.744 58.5076 804.48C59.105 805.216 59.4036 806.235 59.4036 807.536ZM57.9476 807.104C57.9476 806.272 57.7823 805.637 57.4516 805.2C57.121 804.763 56.625 804.544 55.9636 804.544C54.7583 804.544 54.1023 805.429 53.9956 807.2H57.9476V807.104ZM65.4184 803.376C65.717 803.376 65.9944 803.408 66.2504 803.472L65.9784 804.912C65.7224 804.848 65.477 804.816 65.2424 804.816C64.7197 804.816 64.2984 805.008 63.9784 805.392C63.6584 805.776 63.4077 806.373 63.2264 807.184V812H61.7544V803.568H63.0184L63.1624 805.28C63.3864 804.651 63.6904 804.176 64.0744 803.856C64.4584 803.536 64.9064 803.376 65.4184 803.376ZM83.4566 800.976L81.2166 812H79.2646L77.2326 802.768L75.1846 812H73.2806L71.0406 800.976H72.5286L74.3046 810.672L76.4326 800.976H78.0486L80.2246 810.672L82.0646 800.976H83.4566ZM90.575 810.032C90.575 810.373 90.6337 810.629 90.751 810.8C90.8683 810.96 91.0443 811.083 91.279 811.168L90.943 812.192C90.5057 812.139 90.1537 812.016 89.887 811.824C89.6203 811.632 89.423 811.333 89.295 810.928C88.7297 811.771 87.8923 812.192 86.783 812.192C85.951 812.192 85.295 811.957 84.815 811.488C84.335 811.019 84.095 810.405 84.095 809.648C84.095 808.752 84.415 808.064 85.055 807.584C85.7057 807.104 86.623 806.864 87.807 806.864H89.103V806.24C89.103 805.643 88.959 805.216 88.671 804.96C88.383 804.704 87.9403 804.576 87.343 804.576C86.7243 804.576 85.967 804.725 85.071 805.024L84.703 803.952C85.7483 803.568 86.719 803.376 87.615 803.376C88.607 803.376 89.3483 803.621 89.839 804.112C90.3297 804.592 90.575 805.28 90.575 806.176V810.032ZM87.119 811.088C87.9617 811.088 88.623 810.651 89.103 809.776V807.84H87.999C86.4417 807.84 85.663 808.416 85.663 809.568C85.663 810.069 85.7857 810.448 86.031 810.704C86.2763 810.96 86.639 811.088 87.119 811.088ZM97.5661 803.376C98.3341 803.376 98.9315 803.605 99.3581 804.064C99.7955 804.523 100.014 805.152 100.014 805.952V812H98.5421V806.16C98.5421 805.563 98.4301 805.141 98.2061 804.896C97.9821 804.651 97.6515 804.528 97.2141 804.528C96.7661 804.528 96.3715 804.656 96.0301 804.912C95.6888 805.168 95.3688 805.536 95.0701 806.016V812H93.5981V803.568H94.8621L94.9901 804.816C95.2888 804.368 95.6568 804.016 96.0941 803.76C96.5421 803.504 97.0328 803.376 97.5661 803.376ZM109.501 800.176V812H108.205L108.061 810.832C107.784 811.259 107.437 811.595 107.021 811.84C106.605 812.075 106.141 812.192 105.629 812.192C104.626 812.192 103.842 811.797 103.277 811.008C102.722 810.219 102.445 809.157 102.445 807.824C102.445 806.96 102.578 806.192 102.845 805.52C103.112 804.848 103.496 804.325 103.997 803.952C104.498 803.568 105.085 803.376 105.757 803.376C106.621 803.376 107.378 803.723 108.029 804.416V800L109.501 800.176ZM105.949 811.024C106.397 811.024 106.781 810.923 107.101 810.72C107.421 810.507 107.73 810.192 108.029 809.776V805.648C107.752 805.285 107.453 805.013 107.133 804.832C106.824 804.64 106.472 804.544 106.077 804.544C105.426 804.544 104.92 804.816 104.557 805.36C104.205 805.904 104.029 806.715 104.029 807.792C104.029 808.88 104.194 809.691 104.525 810.224C104.856 810.757 105.33 811.024 105.949 811.024ZM118.904 807.536C118.904 807.781 118.893 808.032 118.872 808.288H113.496C113.56 809.216 113.794 809.899 114.2 810.336C114.605 810.773 115.128 810.992 115.768 810.992C116.173 810.992 116.546 810.933 116.888 810.816C117.229 810.699 117.586 810.512 117.96 810.256L118.6 811.136C117.704 811.84 116.722 812.192 115.656 812.192C114.482 812.192 113.565 811.808 112.904 811.04C112.253 810.272 111.928 809.216 111.928 807.872C111.928 806.997 112.066 806.224 112.344 805.552C112.632 804.869 113.037 804.336 113.56 803.952C114.093 803.568 114.717 803.376 115.432 803.376C116.552 803.376 117.41 803.744 118.008 804.48C118.605 805.216 118.904 806.235 118.904 807.536ZM117.448 807.104C117.448 806.272 117.282 805.637 116.952 805.2C116.621 804.763 116.125 804.544 115.464 804.544C114.258 804.544 113.602 805.429 113.496 807.2H117.448V807.104ZM124.918 803.376C125.217 803.376 125.494 803.408 125.75 803.472L125.478 804.912C125.222 804.848 124.977 804.816 124.742 804.816C124.22 804.816 123.798 805.008 123.478 805.392C123.158 805.776 122.908 806.373 122.726 807.184V812H121.254V803.568H122.518L122.662 805.28C122.886 804.651 123.19 804.176 123.574 803.856C123.958 803.536 124.406 803.376 124.918 803.376ZM129.106 812.192C128.562 812.192 128.13 812.032 127.81 811.712C127.501 811.381 127.346 810.923 127.346 810.336V800.176L128.818 800V810.304C128.818 810.539 128.856 810.709 128.93 810.816C129.016 810.923 129.154 810.976 129.346 810.976C129.549 810.976 129.73 810.944 129.89 810.88L130.274 811.904C129.922 812.096 129.533 812.192 129.106 812.192ZM138.404 807.536C138.404 807.781 138.393 808.032 138.372 808.288H132.996C133.06 809.216 133.294 809.899 133.7 810.336C134.105 810.773 134.628 810.992 135.268 810.992C135.673 810.992 136.046 810.933 136.388 810.816C136.729 810.699 137.086 810.512 137.46 810.256L138.1 811.136C137.204 811.84 136.222 812.192 135.156 812.192C133.982 812.192 133.065 811.808 132.404 811.04C131.753 810.272 131.428 809.216 131.428 807.872C131.428 806.997 131.566 806.224 131.844 805.552C132.132 804.869 132.537 804.336 133.06 803.952C133.593 803.568 134.217 803.376 134.932 803.376C136.052 803.376 136.91 803.744 137.508 804.48C138.105 805.216 138.404 806.235 138.404 807.536ZM136.948 807.104C136.948 806.272 136.782 805.637 136.452 805.2C136.121 804.763 135.625 804.544 134.964 804.544C133.758 804.544 133.102 805.429 132.996 807.2H136.948V807.104ZM144.068 812.048C143.737 813.029 143.273 813.803 142.676 814.368C142.089 814.944 141.247 815.291 140.148 815.408L139.988 814.256C140.543 814.16 140.985 814.021 141.316 813.84C141.647 813.659 141.908 813.424 142.1 813.136C142.303 812.859 142.489 812.48 142.66 812H142.164L139.332 803.568H140.9L143.156 810.928L145.364 803.568H146.884L144.068 812.048ZM162.433 803.568L160.513 812H158.513L157.041 804.896L155.521 812H153.569L151.601 803.568H153.073L154.593 810.976L156.257 803.568H157.905L159.489 810.976L161.025 803.568H162.433ZM169.763 810.032C169.763 810.373 169.821 810.629 169.939 810.8C170.056 810.96 170.232 811.083 170.467 811.168L170.131 812.192C169.693 812.139 169.341 812.016 169.075 811.824C168.808 811.632 168.611 811.333 168.483 810.928C167.917 811.771 167.08 812.192 165.971 812.192C165.139 812.192 164.483 811.957 164.003 811.488C163.523 811.019 163.283 810.405 163.283 809.648C163.283 808.752 163.603 808.064 164.243 807.584C164.893 807.104 165.811 806.864 166.995 806.864H168.291V806.24C168.291 805.643 168.147 805.216 167.859 804.96C167.571 804.704 167.128 804.576 166.531 804.576C165.912 804.576 165.155 804.725 164.259 805.024L163.891 803.952C164.936 803.568 165.907 803.376 166.803 803.376C167.795 803.376 168.536 803.621 169.027 804.112C169.517 804.592 169.763 805.28 169.763 806.176V810.032ZM166.307 811.088C167.149 811.088 167.811 810.651 168.291 809.776V807.84H167.187C165.629 807.84 164.851 808.416 164.851 809.568C164.851 810.069 164.973 810.448 165.219 810.704C165.464 810.96 165.827 811.088 166.307 811.088ZM174.917 803.376C175.493 803.376 176.011 803.456 176.469 803.616C176.928 803.776 177.365 804.016 177.781 804.336L177.157 805.264C176.773 805.019 176.405 804.837 176.053 804.72C175.712 804.603 175.349 804.544 174.965 804.544C174.485 804.544 174.107 804.645 173.829 804.848C173.552 805.04 173.413 805.307 173.413 805.648C173.413 805.989 173.541 806.256 173.797 806.448C174.064 806.64 174.539 806.827 175.221 807.008C176.16 807.243 176.859 807.563 177.317 807.968C177.787 808.373 178.021 808.928 178.021 809.632C178.021 810.464 177.696 811.099 177.045 811.536C176.405 811.973 175.621 812.192 174.693 812.192C173.413 812.192 172.352 811.824 171.509 811.088L172.293 810.192C173.008 810.736 173.797 811.008 174.661 811.008C175.216 811.008 175.653 810.896 175.973 810.672C176.304 810.437 176.469 810.123 176.469 809.728C176.469 809.44 176.411 809.211 176.293 809.04C176.176 808.859 175.973 808.704 175.685 808.576C175.397 808.437 174.976 808.293 174.421 808.144C173.525 807.909 172.875 807.595 172.469 807.2C172.075 806.805 171.877 806.304 171.877 805.696C171.877 805.259 172.005 804.864 172.261 804.512C172.528 804.149 172.891 803.872 173.349 803.68C173.819 803.477 174.341 803.376 174.917 803.376ZM190.013 810.032C190.013 810.373 190.071 810.629 190.189 810.8C190.306 810.96 190.482 811.083 190.717 811.168L190.381 812.192C189.943 812.139 189.591 812.016 189.325 811.824C189.058 811.632 188.861 811.333 188.733 810.928C188.167 811.771 187.33 812.192 186.221 812.192C185.389 812.192 184.733 811.957 184.253 811.488C183.773 811.019 183.533 810.405 183.533 809.648C183.533 808.752 183.853 808.064 184.493 807.584C185.143 807.104 186.061 806.864 187.245 806.864H188.541V806.24C188.541 805.643 188.397 805.216 188.109 804.96C187.821 804.704 187.378 804.576 186.781 804.576C186.162 804.576 185.405 804.725 184.509 805.024L184.141 803.952C185.186 803.568 186.157 803.376 187.053 803.376C188.045 803.376 188.786 803.621 189.277 804.112C189.767 804.592 190.013 805.28 190.013 806.176V810.032ZM186.557 811.088C187.399 811.088 188.061 810.651 188.541 809.776V807.84H187.437C185.879 807.84 185.101 808.416 185.101 809.568C185.101 810.069 185.223 810.448 185.469 810.704C185.714 810.96 186.077 811.088 186.557 811.088ZM202.214 806.176C202.971 806.304 203.585 806.571 204.054 806.976C204.523 807.381 204.758 808.011 204.758 808.864C204.758 810.955 203.302 812 200.39 812H197.35V800.976H199.958C201.355 800.976 202.422 801.205 203.158 801.664C203.905 802.123 204.278 802.821 204.278 803.76C204.278 804.4 204.075 804.933 203.67 805.36C203.275 805.787 202.79 806.059 202.214 806.176ZM198.87 802.176V805.648H200.534C201.174 805.648 201.697 805.493 202.102 805.184C202.518 804.875 202.726 804.437 202.726 803.872C202.726 803.232 202.507 802.789 202.07 802.544C201.643 802.299 200.993 802.176 200.118 802.176H198.87ZM200.39 810.784C201.286 810.784 201.969 810.651 202.438 810.384C202.918 810.117 203.158 809.611 203.158 808.864C203.158 808.139 202.929 807.616 202.47 807.296C202.011 806.976 201.414 806.816 200.678 806.816H198.87V810.784H200.39ZM210.668 803.376C210.967 803.376 211.244 803.408 211.5 803.472L211.228 804.912C210.972 804.848 210.727 804.816 210.492 804.816C209.97 804.816 209.548 805.008 209.228 805.392C208.908 805.776 208.658 806.373 208.476 807.184V812H207.004V803.568H208.268L208.412 805.28C208.636 804.651 208.94 804.176 209.324 803.856C209.708 803.536 210.156 803.376 210.668 803.376ZM218.294 810.032C218.294 810.373 218.352 810.629 218.47 810.8C218.587 810.96 218.763 811.083 218.998 811.168L218.662 812.192C218.224 812.139 217.872 812.016 217.606 811.824C217.339 811.632 217.142 811.333 217.014 810.928C216.448 811.771 215.611 812.192 214.502 812.192C213.67 812.192 213.014 811.957 212.534 811.488C212.054 811.019 211.814 810.405 211.814 809.648C211.814 808.752 212.134 808.064 212.774 807.584C213.424 807.104 214.342 806.864 215.526 806.864H216.822V806.24C216.822 805.643 216.678 805.216 216.39 804.96C216.102 804.704 215.659 804.576 215.062 804.576C214.443 804.576 213.686 804.725 212.79 805.024L212.422 803.952C213.467 803.568 214.438 803.376 215.334 803.376C216.326 803.376 217.067 803.621 217.558 804.112C218.048 804.592 218.294 805.28 218.294 806.176V810.032ZM214.838 811.088C215.68 811.088 216.342 810.651 216.822 809.776V807.84H215.718C214.16 807.84 213.382 808.416 213.382 809.568C213.382 810.069 213.504 810.448 213.75 810.704C213.995 810.96 214.358 811.088 214.838 811.088ZM226.261 803.568V804.688L221.861 810.768H226.309L226.133 812H220.197V810.896L224.581 804.816H220.565V803.568H226.261ZM229.773 803.568V812H228.301V803.568H229.773ZM229.021 799.52C229.331 799.52 229.581 799.616 229.773 799.808C229.965 800 230.061 800.24 230.061 800.528C230.061 800.816 229.965 801.056 229.773 801.248C229.581 801.429 229.331 801.52 229.021 801.52C228.723 801.52 228.477 801.429 228.285 801.248C228.093 801.056 227.997 800.816 227.997 800.528C227.997 800.24 228.093 800 228.285 799.808C228.477 799.616 228.723 799.52 229.021 799.52ZM234.497 812.192C233.953 812.192 233.521 812.032 233.201 811.712C232.892 811.381 232.737 810.923 232.737 810.336V800.176L234.209 800V810.304C234.209 810.539 234.246 810.709 234.321 810.816C234.406 810.923 234.545 810.976 234.737 810.976C234.94 810.976 235.121 810.944 235.281 810.88L235.665 811.904C235.313 812.096 234.924 812.192 234.497 812.192ZM238.976 803.568V812H237.504V803.568H238.976ZM238.224 799.52C238.534 799.52 238.784 799.616 238.976 799.808C239.168 800 239.264 800.24 239.264 800.528C239.264 800.816 239.168 801.056 238.976 801.248C238.784 801.429 238.534 801.52 238.224 801.52C237.926 801.52 237.68 801.429 237.488 801.248C237.296 801.056 237.2 800.816 237.2 800.528C237.2 800.24 237.296 800 237.488 799.808C237.68 799.616 237.926 799.52 238.224 799.52ZM247.7 810.032C247.7 810.373 247.759 810.629 247.876 810.8C247.993 810.96 248.169 811.083 248.404 811.168L248.068 812.192C247.631 812.139 247.279 812.016 247.012 811.824C246.745 811.632 246.548 811.333 246.42 810.928C245.855 811.771 245.017 812.192 243.908 812.192C243.076 812.192 242.42 811.957 241.94 811.488C241.46 811.019 241.22 810.405 241.22 809.648C241.22 808.752 241.54 808.064 242.18 807.584C242.831 807.104 243.748 806.864 244.932 806.864H246.228V806.24C246.228 805.643 246.084 805.216 245.796 804.96C245.508 804.704 245.065 804.576 244.468 804.576C243.849 804.576 243.092 804.725 242.196 805.024L241.828 803.952C242.873 803.568 243.844 803.376 244.74 803.376C245.732 803.376 246.473 803.621 246.964 804.112C247.455 804.592 247.7 805.28 247.7 806.176V810.032ZM244.244 811.088C245.087 811.088 245.748 810.651 246.228 809.776V807.84H245.124C243.567 807.84 242.788 808.416 242.788 809.568C242.788 810.069 242.911 810.448 243.156 810.704C243.401 810.96 243.764 811.088 244.244 811.088ZM254.691 803.376C255.459 803.376 256.056 803.605 256.483 804.064C256.92 804.523 257.139 805.152 257.139 805.952V812H255.667V806.16C255.667 805.563 255.555 805.141 255.331 804.896C255.107 804.651 254.776 804.528 254.339 804.528C253.891 804.528 253.496 804.656 253.155 804.912C252.814 805.168 252.494 805.536 252.195 806.016V812H250.723V803.568H251.987L252.115 804.816C252.414 804.368 252.782 804.016 253.219 803.76C253.667 803.504 254.158 803.376 254.691 803.376ZM265.773 811.488C265.773 812.267 265.677 812.891 265.485 813.36C265.293 813.829 265.01 814.208 264.637 814.496C264.274 814.795 263.762 815.093 263.101 815.392L262.668 814.32C263.085 814.128 263.405 813.936 263.629 813.744C263.853 813.563 264.018 813.301 264.125 812.96C264.242 812.629 264.301 812.171 264.301 811.584V803.568H265.773V811.488ZM265.037 799.52C265.346 799.52 265.597 799.616 265.789 799.808C265.981 800 266.077 800.24 266.077 800.528C266.077 800.816 265.981 801.056 265.789 801.248C265.597 801.429 265.346 801.52 265.037 801.52C264.738 801.52 264.493 801.429 264.301 801.248C264.109 801.056 264.013 800.816 264.013 800.528C264.013 800.24 264.109 800 264.301 799.808C264.493 799.616 264.738 799.52 265.037 799.52ZM274.497 810.032C274.497 810.373 274.556 810.629 274.673 810.8C274.79 810.96 274.966 811.083 275.201 811.168L274.865 812.192C274.428 812.139 274.076 812.016 273.809 811.824C273.542 811.632 273.345 811.333 273.217 810.928C272.652 811.771 271.814 812.192 270.705 812.192C269.873 812.192 269.217 811.957 268.737 811.488C268.257 811.019 268.017 810.405 268.017 809.648C268.017 808.752 268.337 808.064 268.977 807.584C269.628 807.104 270.545 806.864 271.729 806.864H273.025V806.24C273.025 805.643 272.881 805.216 272.593 804.96C272.305 804.704 271.862 804.576 271.265 804.576C270.646 804.576 269.889 804.725 268.993 805.024L268.625 803.952C269.67 803.568 270.641 803.376 271.537 803.376C272.529 803.376 273.27 803.621 273.761 804.112C274.252 804.592 274.497 805.28 274.497 806.176V810.032ZM271.041 811.088C271.884 811.088 272.545 810.651 273.025 809.776V807.84H271.921C270.364 807.84 269.585 808.416 269.585 809.568C269.585 810.069 269.708 810.448 269.953 810.704C270.198 810.96 270.561 811.088 271.041 811.088ZM282.464 803.568V804.688L278.064 810.768H282.512L282.336 812H276.4V810.896L280.784 804.816H276.768V803.568H282.464ZM289.448 803.568V804.688L285.048 810.768H289.496L289.32 812H283.384V810.896L287.768 804.816H283.752V803.568H289.448ZM301.403 810.032C301.403 810.373 301.462 810.629 301.579 810.8C301.696 810.96 301.872 811.083 302.107 811.168L301.771 812.192C301.334 812.139 300.982 812.016 300.715 811.824C300.448 811.632 300.251 811.333 300.123 810.928C299.558 811.771 298.72 812.192 297.611 812.192C296.779 812.192 296.123 811.957 295.643 811.488C295.163 811.019 294.923 810.405 294.923 809.648C294.923 808.752 295.243 808.064 295.883 807.584C296.534 807.104 297.451 806.864 298.635 806.864H299.931V806.24C299.931 805.643 299.787 805.216 299.499 804.96C299.211 804.704 298.768 804.576 298.171 804.576C297.552 804.576 296.795 804.725 295.899 805.024L295.531 803.952C296.576 803.568 297.547 803.376 298.443 803.376C299.435 803.376 300.176 803.621 300.667 804.112C301.158 804.592 301.403 805.28 301.403 806.176V810.032ZM297.947 811.088C298.79 811.088 299.451 810.651 299.931 809.776V807.84H298.827C297.27 807.84 296.491 808.416 296.491 809.568C296.491 810.069 296.614 810.448 296.859 810.704C297.104 810.96 297.467 811.088 297.947 811.088ZM308.394 803.376C309.162 803.376 309.76 803.605 310.186 804.064C310.624 804.523 310.842 805.152 310.842 805.952V812H309.37V806.16C309.37 805.563 309.258 805.141 309.034 804.896C308.81 804.651 308.48 804.528 308.042 804.528C307.594 804.528 307.2 804.656 306.858 804.912C306.517 805.168 306.197 805.536 305.898 806.016V812H304.426V803.568H305.69L305.818 804.816C306.117 804.368 306.485 804.016 306.922 803.76C307.37 803.504 307.861 803.376 308.394 803.376ZM320.329 800.176V812H319.033L318.889 810.832C318.612 811.259 318.265 811.595 317.849 811.84C317.433 812.075 316.969 812.192 316.457 812.192C315.455 812.192 314.671 811.797 314.105 811.008C313.551 810.219 313.273 809.157 313.273 807.824C313.273 806.96 313.407 806.192 313.673 805.52C313.94 804.848 314.324 804.325 314.825 803.952C315.327 803.568 315.913 803.376 316.585 803.376C317.449 803.376 318.207 803.723 318.857 804.416V800L320.329 800.176ZM316.777 811.024C317.225 811.024 317.609 810.923 317.929 810.72C318.249 810.507 318.559 810.192 318.857 809.776V805.648C318.58 805.285 318.281 805.013 317.961 804.832C317.652 804.64 317.3 804.544 316.905 804.544C316.255 804.544 315.748 804.816 315.385 805.36C315.033 805.904 314.857 806.715 314.857 807.792C314.857 808.88 315.023 809.691 315.353 810.224C315.684 810.757 316.159 811.024 316.777 811.024ZM331.454 803.376C332.414 803.376 333.177 803.765 333.742 804.544C334.307 805.312 334.59 806.389 334.59 807.776C334.59 808.651 334.457 809.424 334.19 810.096C333.923 810.757 333.539 811.275 333.038 811.648C332.537 812.011 331.95 812.192 331.278 812.192C330.393 812.192 329.646 811.819 329.038 811.072L328.894 812H327.598V800.176L329.07 800V804.624C329.678 803.792 330.473 803.376 331.454 803.376ZM330.926 811.024C331.577 811.024 332.083 810.763 332.446 810.24C332.819 809.707 333.006 808.885 333.006 807.776C333.006 806.635 332.835 805.813 332.494 805.312C332.153 804.8 331.667 804.544 331.038 804.544C330.291 804.544 329.635 804.981 329.07 805.856V809.888C329.294 810.24 329.566 810.517 329.886 810.72C330.217 810.923 330.563 811.024 330.926 811.024ZM340.266 803.376C341.45 803.376 342.367 803.771 343.018 804.56C343.679 805.349 344.01 806.421 344.01 807.776C344.01 808.651 343.861 809.424 343.562 810.096C343.263 810.757 342.831 811.275 342.266 811.648C341.701 812.011 341.029 812.192 340.25 812.192C339.066 812.192 338.143 811.797 337.482 811.008C336.821 810.219 336.49 809.147 336.49 807.792C336.49 806.917 336.639 806.149 336.938 805.488C337.237 804.816 337.669 804.299 338.234 803.936C338.799 803.563 339.477 803.376 340.266 803.376ZM340.266 804.56C338.805 804.56 338.074 805.637 338.074 807.792C338.074 809.936 338.799 811.008 340.25 811.008C341.701 811.008 342.426 809.931 342.426 807.776C342.426 805.632 341.706 804.56 340.266 804.56ZM348.73 803.376C349.306 803.376 349.823 803.456 350.282 803.616C350.741 803.776 351.178 804.016 351.594 804.336L350.97 805.264C350.586 805.019 350.218 804.837 349.866 804.72C349.525 804.603 349.162 804.544 348.778 804.544C348.298 804.544 347.919 804.645 347.642 804.848C347.365 805.04 347.226 805.307 347.226 805.648C347.226 805.989 347.354 806.256 347.61 806.448C347.877 806.64 348.351 806.827 349.034 807.008C349.973 807.243 350.671 807.563 351.13 807.968C351.599 808.373 351.834 808.928 351.834 809.632C351.834 810.464 351.509 811.099 350.858 811.536C350.218 811.973 349.434 812.192 348.506 812.192C347.226 812.192 346.165 811.824 345.322 811.088L346.106 810.192C346.821 810.736 347.61 811.008 348.474 811.008C349.029 811.008 349.466 810.896 349.786 810.672C350.117 810.437 350.282 810.123 350.282 809.728C350.282 809.44 350.223 809.211 350.106 809.04C349.989 808.859 349.786 808.704 349.498 808.576C349.21 808.437 348.789 808.293 348.234 808.144C347.338 807.909 346.687 807.595 346.282 807.2C345.887 806.805 345.69 806.304 345.69 805.696C345.69 805.259 345.818 804.864 346.074 804.512C346.341 804.149 346.703 803.872 347.162 803.68C347.631 803.477 348.154 803.376 348.73 803.376ZM356.042 803.376C356.618 803.376 357.136 803.456 357.594 803.616C358.053 803.776 358.49 804.016 358.906 804.336L358.282 805.264C357.898 805.019 357.53 804.837 357.178 804.72C356.837 804.603 356.474 804.544 356.09 804.544C355.61 804.544 355.232 804.645 354.954 804.848C354.677 805.04 354.538 805.307 354.538 805.648C354.538 805.989 354.666 806.256 354.922 806.448C355.189 806.64 355.664 806.827 356.346 807.008C357.285 807.243 357.984 807.563 358.442 807.968C358.912 808.373 359.146 808.928 359.146 809.632C359.146 810.464 358.821 811.099 358.17 811.536C357.53 811.973 356.746 812.192 355.818 812.192C354.538 812.192 353.477 811.824 352.634 811.088L353.418 810.192C354.133 810.736 354.922 811.008 355.786 811.008C356.341 811.008 356.778 810.896 357.098 810.672C357.429 810.437 357.594 810.123 357.594 809.728C357.594 809.44 357.536 809.211 357.418 809.04C357.301 808.859 357.098 808.704 356.81 808.576C356.522 808.437 356.101 808.293 355.546 808.144C354.65 807.909 354 807.595 353.594 807.2C353.2 806.805 353.002 806.304 353.002 805.696C353.002 805.259 353.13 804.864 353.386 804.512C353.653 804.149 354.016 803.872 354.474 803.68C354.944 803.477 355.466 803.376 356.042 803.376ZM366.747 810.032C366.747 810.373 366.806 810.629 366.923 810.8C367.04 810.96 367.216 811.083 367.451 811.168L367.115 812.192C366.678 812.139 366.326 812.016 366.059 811.824C365.792 811.632 365.595 811.333 365.467 810.928C364.902 811.771 364.064 812.192 362.955 812.192C362.123 812.192 361.467 811.957 360.987 811.488C360.507 811.019 360.267 810.405 360.267 809.648C360.267 808.752 360.587 808.064 361.227 807.584C361.878 807.104 362.795 806.864 363.979 806.864H365.275V806.24C365.275 805.643 365.131 805.216 364.843 804.96C364.555 804.704 364.112 804.576 363.515 804.576C362.896 804.576 362.139 804.725 361.243 805.024L360.875 803.952C361.92 803.568 362.891 803.376 363.787 803.376C364.779 803.376 365.52 803.621 366.011 804.112C366.502 804.592 366.747 805.28 366.747 806.176V810.032ZM363.291 811.088C364.134 811.088 364.795 810.651 365.275 809.776V807.84H364.171C362.614 807.84 361.835 808.416 361.835 809.568C361.835 810.069 361.958 810.448 362.203 810.704C362.448 810.96 362.811 811.088 363.291 811.088ZM25.488 822.376C26.256 822.376 26.8533 822.605 27.28 823.064C27.7173 823.523 27.936 824.152 27.936 824.952V831H26.464V825.16C26.464 824.563 26.352 824.141 26.128 823.896C25.904 823.651 25.5733 823.528 25.136 823.528C24.688 823.528 24.2933 823.656 23.952 823.912C23.6107 824.168 23.2907 824.536 22.992 825.016V831H21.52V822.568H22.784L22.912 823.816C23.2107 823.368 23.5787 823.016 24.016 822.76C24.464 822.504 24.9547 822.376 25.488 822.376ZM34.063 822.376C35.247 822.376 36.1643 822.771 36.815 823.56C37.4763 824.349 37.807 825.421 37.807 826.776C37.807 827.651 37.6577 828.424 37.359 829.096C37.0603 829.757 36.6283 830.275 36.063 830.648C35.4977 831.011 34.8257 831.192 34.047 831.192C32.863 831.192 31.9403 830.797 31.279 830.008C30.6177 829.219 30.287 828.147 30.287 826.792C30.287 825.917 30.4363 825.149 30.735 824.488C31.0337 823.816 31.4657 823.299 32.031 822.936C32.5963 822.563 33.2737 822.376 34.063 822.376ZM34.063 823.56C32.6017 823.56 31.871 824.637 31.871 826.792C31.871 828.936 32.5963 830.008 34.047 830.008C35.4977 830.008 36.223 828.931 36.223 826.776C36.223 824.632 35.503 823.56 34.063 823.56ZM46.3683 822.568L43.5043 831H41.7283L38.8163 822.568H40.4163L42.6243 829.688L44.8163 822.568H46.3683ZM53.4813 829.032C53.4813 829.373 53.5399 829.629 53.6573 829.8C53.7746 829.96 53.9506 830.083 54.1853 830.168L53.8493 831.192C53.4119 831.139 53.0599 831.016 52.7933 830.824C52.5266 830.632 52.3293 830.333 52.2013 829.928C51.6359 830.771 50.7986 831.192 49.6893 831.192C48.8573 831.192 48.2013 830.957 47.7213 830.488C47.2413 830.019 47.0013 829.405 47.0013 828.648C47.0013 827.752 47.3213 827.064 47.9613 826.584C48.6119 826.104 49.5293 825.864 50.7133 825.864H52.0093V825.24C52.0093 824.643 51.8653 824.216 51.5773 823.96C51.2893 823.704 50.8466 823.576 50.2493 823.576C49.6306 823.576 48.8733 823.725 47.9773 824.024L47.6093 822.952C48.6546 822.568 49.6253 822.376 50.5213 822.376C51.5133 822.376 52.2546 822.621 52.7453 823.112C53.2359 823.592 53.4813 824.28 53.4813 825.176V829.032ZM50.0253 830.088C50.8679 830.088 51.5293 829.651 52.0093 828.776V826.84H50.9053C49.3479 826.84 48.5693 827.416 48.5693 828.568C48.5693 829.069 48.6919 829.448 48.9373 829.704C49.1826 829.96 49.5453 830.088 50.0253 830.088ZM63.9068 822.376C65.0908 822.376 66.0081 822.771 66.6588 823.56C67.3201 824.349 67.6508 825.421 67.6508 826.776C67.6508 827.651 67.5014 828.424 67.2028 829.096C66.9041 829.757 66.4721 830.275 65.9068 830.648C65.3414 831.011 64.6694 831.192 63.8908 831.192C62.7068 831.192 61.7841 830.797 61.1228 830.008C60.4614 829.219 60.1308 828.147 60.1308 826.792C60.1308 825.917 60.2801 825.149 60.5788 824.488C60.8774 823.816 61.3094 823.299 61.8748 822.936C62.4401 822.563 63.1174 822.376 63.9068 822.376ZM63.9068 823.56C62.4454 823.56 61.7148 824.637 61.7148 826.792C61.7148 828.936 62.4401 830.008 63.8908 830.008C65.3414 830.008 66.0668 828.931 66.0668 826.776C66.0668 824.632 65.3468 823.56 63.9068 823.56ZM73.7465 822.376C74.0452 822.376 74.3225 822.408 74.5785 822.472L74.3065 823.912C74.0505 823.848 73.8052 823.816 73.5705 823.816C73.0478 823.816 72.6265 824.008 72.3065 824.392C71.9865 824.776 71.7358 825.373 71.5545 826.184V831H70.0825V822.568H71.3465L71.4905 824.28C71.7145 823.651 72.0185 823.176 72.4025 822.856C72.7865 822.536 73.2345 822.376 73.7465 822.376ZM82.82 822.952C82.5 823.059 82.148 823.128 81.764 823.16C81.38 823.192 80.9107 823.208 80.356 823.208C81.348 823.656 81.844 824.365 81.844 825.336C81.844 826.179 81.556 826.867 80.98 827.4C80.404 827.933 79.62 828.2 78.628 828.2C78.244 828.2 77.8867 828.147 77.556 828.04C77.428 828.125 77.3267 828.243 77.252 828.392C77.1773 828.531 77.14 828.675 77.14 828.824C77.14 829.283 77.508 829.512 78.244 829.512H79.588C80.1533 829.512 80.6547 829.613 81.092 829.816C81.5293 830.019 81.8653 830.296 82.1 830.648C82.3453 831 82.468 831.4 82.468 831.848C82.468 832.669 82.132 833.299 81.46 833.736C80.788 834.184 79.8067 834.408 78.516 834.408C77.6093 834.408 76.8893 834.312 76.356 834.12C75.8333 833.939 75.46 833.661 75.236 833.288C75.012 832.915 74.9 832.435 74.9 831.848H76.228C76.228 832.189 76.292 832.456 76.42 832.648C76.548 832.851 76.7773 833 77.108 833.096C77.4387 833.203 77.908 833.256 78.516 833.256C79.4013 833.256 80.0307 833.144 80.404 832.92C80.788 832.707 80.98 832.381 80.98 831.944C80.98 831.549 80.8307 831.251 80.532 831.048C80.2333 830.845 79.8173 830.744 79.284 830.744H77.956C77.2413 830.744 76.6973 830.595 76.324 830.296C75.9613 829.987 75.78 829.603 75.78 829.144C75.78 828.867 75.86 828.6 76.02 828.344C76.18 828.088 76.4093 827.859 76.708 827.656C76.2173 827.4 75.8547 827.085 75.62 826.712C75.396 826.328 75.284 825.864 75.284 825.32C75.284 824.755 75.4227 824.248 75.7 823.8C75.988 823.352 76.3773 823.005 76.868 822.76C77.3693 822.504 77.924 822.376 78.532 822.376C79.1933 822.387 79.748 822.365 80.196 822.312C80.644 822.248 81.012 822.168 81.3 822.072C81.5987 821.965 81.9613 821.816 82.388 821.624L82.82 822.952ZM78.532 823.432C77.9773 823.432 77.5453 823.608 77.236 823.96C76.9373 824.301 76.788 824.755 76.788 825.32C76.788 825.896 76.9427 826.36 77.252 826.712C77.5613 827.053 77.9987 827.224 78.564 827.224C79.14 827.224 79.5773 827.059 79.876 826.728C80.1853 826.387 80.34 825.912 80.34 825.304C80.34 824.056 79.7373 823.432 78.532 823.432ZM89.7156 829.032C89.7156 829.373 89.7743 829.629 89.8916 829.8C90.009 829.96 90.185 830.083 90.4196 830.168L90.0836 831.192C89.6463 831.139 89.2943 831.016 89.0276 830.824C88.761 830.632 88.5636 830.333 88.4356 829.928C87.8703 830.771 87.033 831.192 85.9236 831.192C85.0916 831.192 84.4356 830.957 83.9556 830.488C83.4756 830.019 83.2356 829.405 83.2356 828.648C83.2356 827.752 83.5556 827.064 84.1956 826.584C84.8463 826.104 85.7636 825.864 86.9476 825.864H88.2436V825.24C88.2436 824.643 88.0996 824.216 87.8116 823.96C87.5236 823.704 87.081 823.576 86.4836 823.576C85.865 823.576 85.1076 823.725 84.2116 824.024L83.8436 822.952C84.889 822.568 85.8596 822.376 86.7556 822.376C87.7476 822.376 88.489 822.621 88.9796 823.112C89.4703 823.592 89.7156 824.28 89.7156 825.176V829.032ZM86.2596 830.088C87.1023 830.088 87.7636 829.651 88.2436 828.776V826.84H87.1396C85.5823 826.84 84.8036 827.416 84.8036 828.568C84.8036 829.069 84.9263 829.448 85.1716 829.704C85.417 829.96 85.7796 830.088 86.2596 830.088ZM96.7068 822.376C97.4748 822.376 98.0721 822.605 98.4988 823.064C98.9361 823.523 99.1548 824.152 99.1548 824.952V831H97.6828V825.16C97.6828 824.563 97.5708 824.141 97.3468 823.896C97.1228 823.651 96.7921 823.528 96.3548 823.528C95.9068 823.528 95.5121 823.656 95.1708 823.912C94.8294 824.168 94.5094 824.536 94.2108 825.016V831H92.7388V822.568H94.0028L94.1308 823.816C94.4294 823.368 94.7974 823.016 95.2348 822.76C95.6828 822.504 96.1734 822.376 96.7068 822.376ZM103.586 822.568V831H102.114V822.568H103.586ZM102.834 818.52C103.143 818.52 103.394 818.616 103.586 818.808C103.778 819 103.874 819.24 103.874 819.528C103.874 819.816 103.778 820.056 103.586 820.248C103.394 820.429 103.143 820.52 102.834 820.52C102.535 820.52 102.29 820.429 102.098 820.248C101.906 820.056 101.81 819.816 101.81 819.528C101.81 819.24 101.906 819 102.098 818.808C102.29 818.616 102.535 818.52 102.834 818.52ZM108.917 822.376C109.493 822.376 110.011 822.456 110.469 822.616C110.928 822.776 111.365 823.016 111.781 823.336L111.157 824.264C110.773 824.019 110.405 823.837 110.053 823.72C109.712 823.603 109.349 823.544 108.965 823.544C108.485 823.544 108.107 823.645 107.829 823.848C107.552 824.04 107.413 824.307 107.413 824.648C107.413 824.989 107.541 825.256 107.797 825.448C108.064 825.64 108.539 825.827 109.221 826.008C110.16 826.243 110.859 826.563 111.317 826.968C111.787 827.373 112.021 827.928 112.021 828.632C112.021 829.464 111.696 830.099 111.045 830.536C110.405 830.973 109.621 831.192 108.693 831.192C107.413 831.192 106.352 830.824 105.509 830.088L106.293 829.192C107.008 829.736 107.797 830.008 108.661 830.008C109.216 830.008 109.653 829.896 109.973 829.672C110.304 829.437 110.469 829.123 110.469 828.728C110.469 828.44 110.411 828.211 110.293 828.04C110.176 827.859 109.973 827.704 109.685 827.576C109.397 827.437 108.976 827.293 108.421 827.144C107.525 826.909 106.875 826.595 106.469 826.2C106.075 825.805 105.877 825.304 105.877 824.696C105.877 824.259 106.005 823.864 106.261 823.512C106.528 823.149 106.891 822.872 107.349 822.68C107.819 822.477 108.341 822.376 108.917 822.376ZM118.354 830.616C117.799 831 117.17 831.192 116.466 831.192C115.751 831.192 115.191 830.989 114.786 830.584C114.391 830.168 114.194 829.571 114.194 828.792V823.704H112.722V822.568H114.194V820.664L115.666 820.488V822.568H117.666L117.506 823.704H115.666V828.728C115.666 829.165 115.741 829.485 115.89 829.688C116.05 829.88 116.311 829.976 116.674 829.976C117.005 829.976 117.378 829.864 117.794 829.64L118.354 830.616ZM129.794 829.032C129.794 829.373 129.852 829.629 129.97 829.8C130.087 829.96 130.263 830.083 130.498 830.168L130.162 831.192C129.724 831.139 129.372 831.016 129.106 830.824C128.839 830.632 128.642 830.333 128.514 829.928C127.948 830.771 127.111 831.192 126.002 831.192C125.17 831.192 124.514 830.957 124.034 830.488C123.554 830.019 123.314 829.405 123.314 828.648C123.314 827.752 123.634 827.064 124.274 826.584C124.924 826.104 125.842 825.864 127.026 825.864H128.322V825.24C128.322 824.643 128.178 824.216 127.89 823.96C127.602 823.704 127.159 823.576 126.562 823.576C125.943 823.576 125.186 823.725 124.29 824.024L123.922 822.952C124.967 822.568 125.938 822.376 126.834 822.376C127.826 822.376 128.567 822.621 129.058 823.112C129.548 823.592 129.794 824.28 129.794 825.176V829.032ZM126.338 830.088C127.18 830.088 127.842 829.651 128.322 828.776V826.84H127.218C125.66 826.84 124.882 827.416 124.882 828.568C124.882 829.069 125.004 829.448 125.25 829.704C125.495 829.96 125.858 830.088 126.338 830.088ZM136.785 822.376C137.553 822.376 138.15 822.605 138.577 823.064C139.014 823.523 139.233 824.152 139.233 824.952V831H137.761V825.16C137.761 824.563 137.649 824.141 137.425 823.896C137.201 823.651 136.87 823.528 136.433 823.528C135.985 823.528 135.59 823.656 135.249 823.912C134.908 824.168 134.588 824.536 134.289 825.016V831H132.817V822.568H134.081L134.209 823.816C134.508 823.368 134.876 823.016 135.313 822.76C135.761 822.504 136.252 822.376 136.785 822.376ZM148.72 819.176V831H147.424L147.28 829.832C147.003 830.259 146.656 830.595 146.24 830.84C145.824 831.075 145.36 831.192 144.848 831.192C143.845 831.192 143.061 830.797 142.496 830.008C141.941 829.219 141.664 828.157 141.664 826.824C141.664 825.96 141.797 825.192 142.064 824.52C142.331 823.848 142.715 823.325 143.216 822.952C143.717 822.568 144.304 822.376 144.976 822.376C145.84 822.376 146.597 822.723 147.248 823.416V819L148.72 819.176ZM145.168 830.024C145.616 830.024 146 829.923 146.32 829.72C146.64 829.507 146.949 829.192 147.248 828.776V824.648C146.971 824.285 146.672 824.013 146.352 823.832C146.043 823.64 145.691 823.544 145.296 823.544C144.645 823.544 144.139 823.816 143.776 824.36C143.424 824.904 143.248 825.715 143.248 826.792C143.248 827.88 143.413 828.691 143.744 829.224C144.075 829.757 144.549 830.024 145.168 830.024ZM159.861 822.376C160.938 822.376 161.727 822.76 162.229 823.528C162.73 824.296 162.981 825.379 162.981 826.776C162.981 828.099 162.693 829.165 162.117 829.976C161.541 830.787 160.725 831.192 159.669 831.192C158.73 831.192 157.994 830.872 157.461 830.232V834.232L155.989 834.408V822.568H157.253L157.365 823.704C157.674 823.277 158.047 822.952 158.485 822.728C158.922 822.493 159.381 822.376 159.861 822.376ZM159.317 829.992C160.703 829.992 161.397 828.92 161.397 826.776C161.397 824.621 160.762 823.544 159.493 823.544C159.077 823.544 158.698 823.667 158.357 823.912C158.015 824.157 157.717 824.472 157.461 824.856V828.968C157.674 829.299 157.941 829.555 158.261 829.736C158.581 829.907 158.933 829.992 159.317 829.992ZM166.961 822.568V831H165.489V822.568H166.961ZM166.209 818.52C166.518 818.52 166.769 818.616 166.961 818.808C167.153 819 167.249 819.24 167.249 819.528C167.249 819.816 167.153 820.056 166.961 820.248C166.769 820.429 166.518 820.52 166.209 820.52C165.91 820.52 165.665 820.429 165.473 820.248C165.281 820.056 165.185 819.816 165.185 819.528C165.185 819.24 165.281 819 165.473 818.808C165.665 818.616 165.91 818.52 166.209 818.52ZM175.684 829.032C175.684 829.373 175.743 829.629 175.86 829.8C175.978 829.96 176.154 830.083 176.388 830.168L176.052 831.192C175.615 831.139 175.263 831.016 174.996 830.824C174.73 830.632 174.532 830.333 174.404 829.928C173.839 830.771 173.002 831.192 171.892 831.192C171.06 831.192 170.404 830.957 169.924 830.488C169.444 830.019 169.204 829.405 169.204 828.648C169.204 827.752 169.524 827.064 170.164 826.584C170.815 826.104 171.732 825.864 172.916 825.864H174.212V825.24C174.212 824.643 174.068 824.216 173.78 823.96C173.492 823.704 173.05 823.576 172.452 823.576C171.834 823.576 171.076 823.725 170.18 824.024L169.812 822.952C170.858 822.568 171.828 822.376 172.724 822.376C173.716 822.376 174.458 822.621 174.948 823.112C175.439 823.592 175.684 824.28 175.684 825.176V829.032ZM172.228 830.088C173.071 830.088 173.732 829.651 174.212 828.776V826.84H173.108C171.551 826.84 170.772 827.416 170.772 828.568C170.772 829.069 170.895 829.448 171.14 829.704C171.386 829.96 171.748 830.088 172.228 830.088ZM182.676 822.376C183.444 822.376 184.041 822.605 184.468 823.064C184.905 823.523 185.124 824.152 185.124 824.952V831H183.652V825.16C183.652 824.563 183.54 824.141 183.316 823.896C183.092 823.651 182.761 823.528 182.324 823.528C181.876 823.528 181.481 823.656 181.14 823.912C180.798 824.168 180.478 824.536 180.18 825.016V831H178.708V822.568H179.972L180.1 823.816C180.398 823.368 180.766 823.016 181.204 822.76C181.652 822.504 182.142 822.376 182.676 822.376ZM189.555 822.568V831H188.083V822.568H189.555ZM188.803 818.52C189.112 818.52 189.363 818.616 189.555 818.808C189.747 819 189.843 819.24 189.843 819.528C189.843 819.816 189.747 820.056 189.555 820.248C189.363 820.429 189.112 820.52 188.803 820.52C188.504 820.52 188.259 820.429 188.067 820.248C187.875 820.056 187.779 819.816 187.779 819.528C187.779 819.24 187.875 819 188.067 818.808C188.259 818.616 188.504 818.52 188.803 818.52ZM194.886 822.376C195.462 822.376 195.979 822.456 196.438 822.616C196.897 822.776 197.334 823.016 197.75 823.336L197.126 824.264C196.742 824.019 196.374 823.837 196.022 823.72C195.681 823.603 195.318 823.544 194.934 823.544C194.454 823.544 194.075 823.645 193.798 823.848C193.521 824.04 193.382 824.307 193.382 824.648C193.382 824.989 193.51 825.256 193.766 825.448C194.033 825.64 194.507 825.827 195.19 826.008C196.129 826.243 196.827 826.563 197.286 826.968C197.755 827.373 197.99 827.928 197.99 828.632C197.99 829.464 197.665 830.099 197.014 830.536C196.374 830.973 195.59 831.192 194.662 831.192C193.382 831.192 192.321 830.824 191.478 830.088L192.262 829.192C192.977 829.736 193.766 830.008 194.63 830.008C195.185 830.008 195.622 829.896 195.942 829.672C196.273 829.437 196.438 829.123 196.438 828.728C196.438 828.44 196.379 828.211 196.262 828.04C196.145 827.859 195.942 827.704 195.654 827.576C195.366 827.437 194.945 827.293 194.39 827.144C193.494 826.909 192.843 826.595 192.438 826.2C192.043 825.805 191.846 825.304 191.846 824.696C191.846 824.259 191.974 823.864 192.23 823.512C192.497 823.149 192.859 822.872 193.318 822.68C193.787 822.477 194.31 822.376 194.886 822.376ZM204.323 830.616C203.768 831 203.139 831.192 202.435 831.192C201.72 831.192 201.16 830.989 200.755 830.584C200.36 830.168 200.163 829.571 200.163 828.792V823.704H198.691V822.568H200.163V820.664L201.635 820.488V822.568H203.635L203.475 823.704H201.635V828.728C201.635 829.165 201.71 829.485 201.859 829.688C202.019 829.88 202.28 829.976 202.643 829.976C202.974 829.976 203.347 829.864 203.763 829.64L204.323 830.616ZM206.295 828.968C206.615 828.968 206.881 829.075 207.095 829.288C207.308 829.501 207.415 829.763 207.415 830.072C207.415 830.403 207.319 830.781 207.127 831.208L206.055 833.656H204.999L205.639 831C205.5 830.893 205.388 830.76 205.303 830.6C205.228 830.44 205.191 830.264 205.191 830.072C205.191 829.763 205.297 829.501 205.511 829.288C205.724 829.075 205.985 828.968 206.295 828.968ZM217.845 822.376C218.805 822.376 219.567 822.765 220.133 823.544C220.698 824.312 220.981 825.389 220.981 826.776C220.981 827.651 220.847 828.424 220.581 829.096C220.314 829.757 219.93 830.275 219.429 830.648C218.927 831.011 218.341 831.192 217.669 831.192C216.783 831.192 216.037 830.819 215.429 830.072L215.285 831H213.989V819.176L215.461 819V823.624C216.069 822.792 216.863 822.376 217.845 822.376ZM217.317 830.024C217.967 830.024 218.474 829.763 218.837 829.24C219.21 828.707 219.397 827.885 219.397 826.776C219.397 825.635 219.226 824.813 218.885 824.312C218.543 823.8 218.058 823.544 217.429 823.544C216.682 823.544 216.026 823.981 215.461 824.856V828.888C215.685 829.24 215.957 829.517 216.277 829.72C216.607 829.923 216.954 830.024 217.317 830.024ZM229.857 826.536C229.857 826.781 229.846 827.032 229.825 827.288H224.449C224.513 828.216 224.747 828.899 225.153 829.336C225.558 829.773 226.081 829.992 226.721 829.992C227.126 829.992 227.499 829.933 227.841 829.816C228.182 829.699 228.539 829.512 228.913 829.256L229.553 830.136C228.657 830.84 227.675 831.192 226.609 831.192C225.435 831.192 224.518 830.808 223.857 830.04C223.206 829.272 222.881 828.216 222.881 826.872C222.881 825.997 223.019 825.224 223.297 824.552C223.585 823.869 223.99 823.336 224.513 822.952C225.046 822.568 225.67 822.376 226.385 822.376C227.505 822.376 228.363 822.744 228.961 823.48C229.558 824.216 229.857 825.235 229.857 826.536ZM228.401 826.104C228.401 825.272 228.235 824.637 227.905 824.2C227.574 823.763 227.078 823.544 226.417 823.544C225.211 823.544 224.555 824.429 224.449 826.2H228.401V826.104ZM234.496 822.376C235.072 822.376 235.589 822.456 236.048 822.616C236.506 822.776 236.944 823.016 237.36 823.336L236.736 824.264C236.352 824.019 235.984 823.837 235.632 823.72C235.29 823.603 234.928 823.544 234.544 823.544C234.064 823.544 233.685 823.645 233.408 823.848C233.13 824.04 232.992 824.307 232.992 824.648C232.992 824.989 233.12 825.256 233.376 825.448C233.642 825.64 234.117 825.827 234.799 826.008C235.738 826.243 236.437 826.563 236.896 826.968C237.365 827.373 237.6 827.928 237.6 828.632C237.6 829.464 237.274 830.099 236.624 830.536C235.984 830.973 235.2 831.192 234.272 831.192C232.992 831.192 231.93 830.824 231.088 830.088L231.872 829.192C232.586 829.736 233.376 830.008 234.24 830.008C234.794 830.008 235.232 829.896 235.552 829.672C235.882 829.437 236.048 829.123 236.048 828.728C236.048 828.44 235.989 828.211 235.872 828.04C235.754 827.859 235.552 827.704 235.264 827.576C234.976 827.437 234.554 827.293 234 827.144C233.104 826.909 232.453 826.595 232.048 826.2C231.653 825.805 231.456 825.304 231.456 824.696C231.456 824.259 231.584 823.864 231.84 823.512C232.106 823.149 232.469 822.872 232.928 822.68C233.397 822.477 233.92 822.376 234.496 822.376ZM243.932 830.616C243.378 831 242.748 831.192 242.044 831.192C241.33 831.192 240.77 830.989 240.364 830.584C239.97 830.168 239.772 829.571 239.772 828.792V823.704H238.3V822.568H239.772V820.664L241.244 820.488V822.568H243.244L243.084 823.704H241.244V828.728C241.244 829.165 241.319 829.485 241.468 829.688C241.628 829.88 241.89 829.976 242.252 829.976C242.583 829.976 242.956 829.864 243.372 829.64L243.932 830.616ZM251.164 819V831H249.692V819.176L251.164 819ZM256.012 822.568L252.908 826.296L256.364 831H254.604L251.26 826.392L254.364 822.568H256.012ZM261.847 822.376C262.615 822.376 263.213 822.605 263.639 823.064C264.077 823.523 264.295 824.152 264.295 824.952V831H262.823V825.16C262.823 824.563 262.711 824.141 262.487 823.896C262.263 823.651 261.933 823.528 261.495 823.528C261.047 823.528 260.653 823.656 260.311 823.912C259.97 824.168 259.65 824.536 259.351 825.016V831H257.879V822.568H259.143L259.271 823.816C259.57 823.368 259.938 823.016 260.375 822.76C260.823 822.504 261.314 822.376 261.847 822.376ZM270.422 822.376C271.606 822.376 272.524 822.771 273.174 823.56C273.836 824.349 274.166 825.421 274.166 826.776C274.166 827.651 274.017 828.424 273.718 829.096C273.42 829.757 272.988 830.275 272.422 830.648C271.857 831.011 271.185 831.192 270.406 831.192C269.222 831.192 268.3 830.797 267.638 830.008C266.977 829.219 266.646 828.147 266.646 826.792C266.646 825.917 266.796 825.149 267.094 824.488C267.393 823.816 267.825 823.299 268.39 822.936C268.956 822.563 269.633 822.376 270.422 822.376ZM270.422 823.56C268.961 823.56 268.23 824.637 268.23 826.792C268.23 828.936 268.956 830.008 270.406 830.008C271.857 830.008 272.582 828.931 272.582 826.776C272.582 824.632 271.862 823.56 270.422 823.56ZM286.23 822.568L284.31 831H282.31L280.838 823.896L279.318 831H277.366L275.398 822.568H276.87L278.39 829.976L280.054 822.568H281.702L283.286 829.976L284.822 822.568H286.23ZM292.035 822.376C292.803 822.376 293.4 822.605 293.827 823.064C294.264 823.523 294.483 824.152 294.483 824.952V831H293.011V825.16C293.011 824.563 292.899 824.141 292.675 823.896C292.451 823.651 292.12 823.528 291.683 823.528C291.235 823.528 290.84 823.656 290.499 823.912C290.158 824.168 289.838 824.536 289.539 825.016V831H288.067V822.568H289.331L289.459 823.816C289.758 823.368 290.126 823.016 290.563 822.76C291.011 822.504 291.502 822.376 292.035 822.376ZM304.54 820.184C304.092 820.184 303.772 820.285 303.58 820.488C303.388 820.68 303.292 820.984 303.292 821.4V822.568H305.34L305.18 823.704H303.292V831H301.82V823.704H300.316V822.568H301.82V821.416C301.82 820.691 302.05 820.109 302.508 819.672C302.978 819.224 303.628 819 304.46 819C304.844 819 305.186 819.037 305.484 819.112C305.794 819.176 306.124 819.283 306.476 819.432L306.012 820.504C305.532 820.291 305.042 820.184 304.54 820.184ZM310.047 822.376C311.231 822.376 312.149 822.771 312.799 823.56C313.461 824.349 313.791 825.421 313.791 826.776C313.791 827.651 313.642 828.424 313.343 829.096C313.045 829.757 312.613 830.275 312.047 830.648C311.482 831.011 310.81 831.192 310.031 831.192C308.847 831.192 307.925 830.797 307.263 830.008C306.602 829.219 306.271 828.147 306.271 826.792C306.271 825.917 306.421 825.149 306.719 824.488C307.018 823.816 307.45 823.299 308.015 822.936C308.581 822.563 309.258 822.376 310.047 822.376ZM310.047 823.56C308.586 823.56 307.855 824.637 307.855 826.792C307.855 828.936 308.581 830.008 310.031 830.008C311.482 830.008 312.207 828.931 312.207 826.776C312.207 824.632 311.487 823.56 310.047 823.56ZM319.887 822.376C320.186 822.376 320.463 822.408 320.719 822.472L320.447 823.912C320.191 823.848 319.946 823.816 319.711 823.816C319.188 823.816 318.767 824.008 318.447 824.392C318.127 824.776 317.876 825.373 317.695 826.184V831H316.223V822.568H317.487L317.631 824.28C317.855 823.651 318.159 823.176 318.543 822.856C318.927 822.536 319.375 822.376 319.887 822.376ZM330.597 822.376C331.365 822.376 331.963 822.605 332.389 823.064C332.827 823.523 333.045 824.152 333.045 824.952V831H331.573V825.16C331.573 824.563 331.456 824.141 331.221 823.896C330.997 823.651 330.667 823.528 330.229 823.528C329.792 823.528 329.403 823.656 329.061 823.912C328.72 824.168 328.4 824.531 328.101 825V831H326.629V819.192L328.101 819.032V823.736C328.763 822.829 329.595 822.376 330.597 822.376ZM337.476 822.568V831H336.004V822.568H337.476ZM336.724 818.52C337.034 818.52 337.284 818.616 337.476 818.808C337.668 819 337.764 819.24 337.764 819.528C337.764 819.816 337.668 820.056 337.476 820.248C337.284 820.429 337.034 820.52 336.724 820.52C336.426 820.52 336.18 820.429 335.988 820.248C335.796 820.056 335.7 819.816 335.7 819.528C335.7 819.24 335.796 819 335.988 818.808C336.18 818.616 336.426 818.52 336.724 818.52ZM342.808 822.376C343.384 822.376 343.901 822.456 344.36 822.616C344.819 822.776 345.256 823.016 345.672 823.336L345.048 824.264C344.664 824.019 344.296 823.837 343.944 823.72C343.603 823.603 343.24 823.544 342.856 823.544C342.376 823.544 341.997 823.645 341.72 823.848C341.443 824.04 341.304 824.307 341.304 824.648C341.304 824.989 341.432 825.256 341.688 825.448C341.955 825.64 342.429 825.827 343.112 826.008C344.051 826.243 344.749 826.563 345.208 826.968C345.677 827.373 345.912 827.928 345.912 828.632C345.912 829.464 345.587 830.099 344.936 830.536C344.296 830.973 343.512 831.192 342.584 831.192C341.304 831.192 340.243 830.824 339.4 830.088L340.184 829.192C340.899 829.736 341.688 830.008 342.552 830.008C343.107 830.008 343.544 829.896 343.864 829.672C344.195 829.437 344.36 829.123 344.36 828.728C344.36 828.44 344.301 828.211 344.184 828.04C344.067 827.859 343.864 827.704 343.576 827.576C343.288 827.437 342.867 827.293 342.312 827.144C341.416 826.909 340.765 826.595 340.36 826.2C339.965 825.805 339.768 825.304 339.768 824.696C339.768 824.259 339.896 823.864 340.152 823.512C340.419 823.149 340.781 822.872 341.24 822.68C341.709 822.477 342.232 822.376 342.808 822.376ZM352.357 828.968C352.677 828.968 352.943 829.075 353.157 829.288C353.37 829.501 353.477 829.763 353.477 830.072C353.477 830.381 353.37 830.648 353.157 830.872C352.943 831.085 352.677 831.192 352.357 831.192C352.047 831.192 351.786 831.085 351.573 830.872C351.359 830.648 351.253 830.381 351.253 830.072C351.253 829.763 351.359 829.501 351.573 829.288C351.786 829.075 352.047 828.968 352.357 828.968ZM356.341 828.968C356.661 828.968 356.927 829.075 357.141 829.288C357.354 829.501 357.461 829.763 357.461 830.072C357.461 830.381 357.354 830.648 357.141 830.872C356.927 831.085 356.661 831.192 356.341 831.192C356.031 831.192 355.77 831.085 355.557 830.872C355.343 830.648 355.237 830.381 355.237 830.072C355.237 829.763 355.343 829.501 355.557 829.288C355.77 829.075 356.031 828.968 356.341 828.968ZM348.373 828.968C348.693 828.968 348.959 829.075 349.173 829.288C349.386 829.501 349.493 829.763 349.493 830.072C349.493 830.381 349.386 830.648 349.173 830.872C348.959 831.085 348.693 831.192 348.373 831.192C348.063 831.192 347.802 831.085 347.589 830.872C347.375 830.648 347.269 830.381 347.269 830.072C347.269 829.763 347.375 829.501 347.589 829.288C347.802 829.075 348.063 828.968 348.373 828.968Z" fill="#CDCDCD"/>
<rect width="17" height="16" transform="translate(353 764)" fill="#EDF2F3"/>
<rect width="183" height="29" transform="translate(20 757)" fill="#EDF2F3"/>
<rect width="64" height="64" transform="translate(54.5 631)" fill="#EDF2F3"/>
<path d="M80.844 663L106.5 637.344L112.156 643L92.156 663L112.156 683L106.5 688.656L80.844 663Z" fill="#EDF2F3"/>
<path d="M56.844 663L82.5 637.344L88.156 643L68.156 663L88.156 683L82.5 688.656L56.844 663Z" fill="#EDF2F3"/>
<rect width="64" height="64" transform="translate(163.5 631)" fill="#EDF2F3"/>
<path d="M167.5 693.6L226.148 663L167.5 632.4V693.6Z" fill="#EDF2F3"/>
<rect width="64" height="64" transform="translate(272.5 631)" fill="#EDF2F3"/>
<path d="M310.156 663L284.5 637.344L278.844 643L298.844 663L278.844 683L284.5 688.656L310.156 663Z" fill="#EDF2F3"/>
<path d="M334.156 663L308.5 637.344L302.844 643L322.844 663L302.844 683L308.5 688.656L334.156 663Z" fill="#EDF2F3"/>
<rect width="32" height="32" transform="translate(337 488)" fill="#EDF2F3"/>
</svg>
