<svg width="277" height="277" viewBox="0 0 277 277" fill="none" xmlns="http://www.w3.org/2000/svg">
<path d="M40.5057 40.5057C62.2078 18.8035 90.5126 4.93716 120.962 1.0905C151.412 -2.75617 182.275 3.63545 208.693 19.2587C235.11 34.8819 255.58 58.849 266.879 87.3852C278.177 115.921 279.662 147.405 271.099 176.878L138.295 138.295L40.5057 40.5057Z" fill="#3AD58B"/>
<path d="M142.533 276.525C114.824 277.375 87.4988 269.877 64.1035 255.005C40.7082 240.132 22.3225 218.572 11.3321 193.121C0.341746 167.671 -2.74602 139.504 2.46946 112.277C7.68495 85.0499 20.9629 60.0185 40.5806 40.4309L138.295 138.295L142.533 276.525Z" fill="#9CDBB6"/>
<path d="M271.096 176.888C262.946 204.933 246.127 229.678 223.049 247.576C199.971 265.474 171.819 275.607 142.629 276.522L138.295 138.295L271.096 176.888Z" fill="#71BBCB"/>
</svg>
